<?xml version="1.0" encoding="utf-8"?>
<!-- Generator: Adobe Illustrator 19.2.0, SVG Export Plug-In . SVG Version: 6.00 Build 0)  -->
<svg version="1.1" id="Layer_1" xmlns="http://www.w3.org/2000/svg" xmlns:xlink="http://www.w3.org/1999/xlink" x="0px" y="0px"
	 viewBox="0 0 612 792" style="enable-background:new 0 0 612 792;" xml:space="preserve">
<style type="text/css">
	.st0{fill:#FEFEFE;}
	.st1{fill:#2E82B9;}
	.st2{fill:#A9ABAE;}
	.st3{fill:#2C81B8;}
	.st4{fill:#2D81B8;}
	.st5{fill:#2D82B8;}
	.st6{fill:#2F82B9;}
	.st7{fill:#FCFDFD;}
	.st8{fill:#FDFEFD;}
	.st9{fill:#FBFCFD;}
	.st10{fill:#F9FBFC;}
	.st11{fill:#F6F9FB;}
	.st12{fill:#FECB29;}
	.st13{fill:#018F4F;}
	.st14{fill:#059052;}
	.st15{fill:#FECC2B;}
	.st16{fill:#079254;}
	.st17{fill:#FCFDFC;}
	.st18{fill:#FBFDFC;}
	.st19{fill:#F7FBF9;}
</style>
<g>
	<path class="st0" d="M296.8,237.2c67.5,0,135,0,202.5,0c0,105.9,0,211.8,0,317.7c-128.7,0-257.4,0-386.1,0c0-1,0-2,0-3.1
		c0.7,0.4,1.5,1.2,2.2,1.2c4-0.2,8-0.5,11.9-0.8c1-0.1,1.9-0.5,2.8-0.3c1.4,0.3,2.3-0.2,3.1-1.1c0.4-0.5,0.4-1.3,0.6-2
		c-0.7-0.1-1.4-0.5-2-0.4c-4.3,1.1-8.7,1.4-13.2,1.6c-1.7,0.1-1.9-0.2-1.6-1.8c0.7-3.2,1.5-6.4,2-9.6c0.7-4.2,1.1-8.5,1.6-12.7
		c0.1-1.3-0.5-2-1.5-2c-1,0-1.7,0.7-1.7,1.9c-0.1,5.9-1.4,11.7-2.6,17.4c-0.5,2.1-1.1,4.2-1.6,6.3c0-104.1,0-208.2,0-312.2
		c60.4,0,120.8,0,181.2,0c-0.1,0.1-0.2,0.2-0.3,0.2c-5,0.4-7.7,5.4-6.7,10c0.8,3.4,3.6,6.1,6.8,6.3c4.3,0.3,7.3-1.4,8.6-4.9
		c1.1-3.1,0.7-6-1.2-8.6C300.5,238.6,298.7,237.8,296.8,237.2z M192.6,319.2c1.6,0.6,3.2,1.2,4.8,1.8c0.6,0.2,1.1,0.6,0.8,1.5
		c-0.1,0.3,0.2,0.9,0.5,1c0.2,0.1,0.9-0.1,1-0.3c0.8-1.8,1.5-3.7,2.2-5.6c0.1-0.3-0.2-1-0.5-1.1c-0.3-0.1-1,0.1-1.2,0.4
		c-0.3,0.7-0.7,0.6-1.2,0.4c-3.2-1.2-6.3-2.4-9.5-3.7c-0.3-0.1-0.4-0.8-0.7-1.2c-0.2-0.3-0.3-0.8-0.6-0.9c-0.3-0.1-0.9,0-1.1,0.3
		c-1.7,2.1-1.5,3.6,0.3,5.5c1,1.1,2.1,2.1,3.1,3.2c0.8,0.9,1.6,1.7,2.5,2.7c-3.5,0.4-6.8,0.7-10.1,1c-0.3,0-0.8,0.2-0.9,0.4
		c-0.5,1.2-1,2.4-1.3,3.7c-0.1,0.3,0.2,1,0.4,1c0.4,0.1,1.1,0,1.2-0.3c0.5-0.9,1.2-0.8,1.9-0.5c2.9,1.1,5.8,2.3,8.7,3.4
		c0.8,0.3,1,0.7,0.8,1.6c-0.1,0.3,0.1,0.7,0.2,1.1c0.5-0.1,1.2-0.1,1.3-0.4c0.6-1.4,1.1-2.9,1.5-4.3c0.1-0.2-0.3-0.6-0.6-0.8
		c-0.2-0.1-0.7,0.1-0.8,0.2c-0.6,1.4-1.5,0.8-2.4,0.5c-1.2-0.5-2.5-0.9-3.7-1.4c-0.3-0.1-0.6-0.3-0.8-0.4c0-0.1,0-0.2,0.1-0.2
		c3.4-0.3,6.7-0.6,10.3-0.9c-0.4-0.6-0.7-0.9-0.9-1.3c-1.9-2.2-3.8-4.3-5.7-6.5C192.5,319.3,192.5,319.2,192.6,319.2z M377.5,277.1
		c-0.7,0.9-0.3,1.5,0.4,2.1c2.1,1.7,4.1,3.5,6.1,5.3c1.7,1.6,1.7,1.7,3.7,0.3c0.3-0.2,0.6-0.4,0.8-0.7c0.4-0.5,1.1-1.4,0.9-1.7
		c-0.5-0.9-1.3-0.2-1.9,0.1c-0.9,0.4-1.9,0.6-2.7,0c-0.9-0.6-1.7-1.4-2.5-2.1c1.2-1.4,2.3-2.7,3.4-3.9c1.9,1.2,1.9,1.2,0.9,3
		c-0.1,0.3-0.1,1,0,1c0.4,0.2,1.2,0.4,1.4,0.2c1.3-1.3,2.4-2.7,3.5-4.2c0.2-0.3-0.2-1-0.3-1.5c-0.4,0.1-1,0.2-1.2,0.4
		c-0.7,1-1.4,1-2.2,0.1c-0.2-0.2-0.5-0.4-0.8-0.7c1-1.1,1.9-2.2,2.9-3.3c1.1,1,2.2,1.7,2.9,2.7c0.4,0.5,0.2,1.5,0.4,2.2
		c0.1,0.2,0.8,0.5,0.8,0.5c0.7-0.9,1.4-1.9,2-2.9c0.1-0.1-0.3-0.6-0.6-0.8c-1-0.7-2-1.4-3-2.1c-1.6-1.3-3.2-2.8-4.9-4.1
		c-0.3-0.2-1-0.2-1.1-0.1c-0.2,0.4-0.2,1-0.2,1.5c0,0.2,0.3,0.4,0.6,0.7c-2.1,2.5-4.2,4.9-6.3,7.3c-0.7,0.8-1.3,1.8-2.5,0.7
		c-0.1-0.1-0.3-0.1-0.4-0.1c-0.2-0.7-0.4-1.4-0.6-2.1c-0.1,0-0.3,0-0.4,0c2-3.1,4-6.2,6.1-9.3c0.2-0.2,0.8-0.2,1.1-0.3
		c0.4-0.1,0.9-0.2,1.1-0.5c0.2-0.2,0-0.9-0.2-1.1c-1.9-2-3.2-2.2-5.5-0.7c-2.2,1.4-4.3,2.7-6.5,4c-0.1-0.1-0.1-0.1-0.2-0.2
		c0.3-3.2,0.6-6.4,0.9-9.7c0-0.4-0.1-0.9-0.4-1.1c-1-0.7-2-1.3-3.1-1.9c-0.3-0.2-1.1-0.1-1.2,0.1c-0.1,0.4-0.2,1.1,0.1,1.4
		c0.5,0.6,0.5,1.1,0.1,1.6c-1.7,2.8-3.5,5.5-5.2,8.3c-0.3,0.5-0.7,0.7-1.4,0.4c-0.4-0.2-0.9,0-1.3,0c0.1,0.5,0,1.3,0.4,1.6
		c1.1,0.8,2.3,1.4,3.5,2c0.3,0.1,0.9-0.1,1.1-0.3c0.1-0.2,0-0.9-0.3-1.1c-0.6-0.6-0.5-1.1-0.1-1.7c0.9-1.4,1.7-2.8,2.6-4.1
		c0.1-0.2,0.3-0.3,0.7-0.6c-0.4,3.6-0.8,7-1.2,10.4c0.1,0.1,0.2,0.1,0.4,0.2c2.9-1.7,5.8-3.4,8.6-5.1c-0.8,1.7-1.8,3.3-2.8,4.8
		c-0.4,0.6-0.9,0.9-1.6,0.3c-0.2-0.1-0.8,0.1-1,0.3c-0.2,0.2-0.3,0.9-0.2,1C373,275.1,374.9,276.8,377.5,277.1z M402.9,367.4
		c-0.1-53.6-43.5-97.4-97.4-97.4c-53.9,0-97.7,43.5-97.6,97.6c0.1,54.2,43.9,97.4,97.5,97.4C359.6,464.9,402.9,420.9,402.9,367.4z
		 M354.9,545.7c-0.1,0.9-0.3,1.9-0.4,2.9c0,1.6-0.1,3.3,1.5,4.3c1.7,1,3.4,0.3,4.7-0.8c1.8-1.5,3.4-3.3,5.1-5
		c0.3-0.2,0.5-0.6,0.9-1.1c-0.1,1.3-0.2,2.2-0.2,3.1c0,1.4,0.3,2.7,1.7,3.4c1.4,0.7,2.7,0.3,3.8-0.5c1.3-1,2.5-2.2,3.7-3.4
		c0.6-0.6,1.2-1.4,1.9-2.2c0,1.3,0,2.5,0,3.6c0,0.8,0.3,1.5,1.1,1.4c0.7,0,1.4-0.4,2-0.7c0.3-0.1,0.3-0.6,0.5-0.9
		c1.8-3.4,3.7-6.7,6.4-9.3c0.5-0.5,1.3-0.6,1.9-0.9c0,0.7,0.2,1.4,0.1,2.1c-0.4,2.3-0.9,4.5-0.5,6.9c0.6,3,2.8,4.2,5.5,2.8
		c1-0.5,1.8-1.2,2.6-1.8c0.3-0.2,0.6-0.5,0.9-0.8c0,0.3,0,0.5,0.1,0.7c0.4,3.6,3,5.1,6.2,3.4c1.4-0.7,2.6-1.7,3.7-2.8
		c1.2-1.1,2.1-2.4,3.2-3.6c0.1,1,0.1,1.9,0.3,2.9c0.4,3.1,2.5,4.2,5.2,2.6c1.7-1,3.1-2.4,4.6-3.6c0.3-0.2,0.5-0.4,0.8-0.7
		c0.1,0.4,0.1,0.7,0.2,1c0.7,3.1,2.7,4.6,5.9,4.4c2.8-0.1,5.1-1.5,7.3-3.1c1.2-0.9,2.3-2,3.6-3.1c0,0.9,0,1.7,0,2.4
		c0.1,2.6,2,4,4.5,3.4c0.9-0.2,2-0.6,2.7-1.2c1.9-1.7,3.7-3.5,5.5-5.3c0.3-0.3,0.5-0.6,0.8-0.9c0.1,0,0.3,0.1,0.4,0.1
		c0,2.1,0,4.3,0,6.4c0,1.1,0.7,1.8,1.7,1.8c1,0,1.4-0.6,1.5-1.8c0.1-1.4,0.3-2.8,0.7-4.2c0.9-3,2.2-5.8,4.1-8.2
		c0.8-1,1.8-1.8,3.3-1.3c0.8,0.3,1.6,0.3,2-0.7c0.3-1-0.1-1.7-1.2-2.1c-1.8-0.6-3.3-0.2-4.7,0.9c-1.8,1.4-2.9,3.3-3.8,5.3
		c-0.4,0.8-0.7,1.7-1,2.5c-0.1,0-0.3-0.1-0.4-0.1c0.3-1.5,0.5-3,0.9-4.5c0.2-0.9,0.1-1.6-0.7-2c-0.8-0.4-1.8-0.1-2.2,0.8
		c-0.2,0.4-0.2,0.8-0.4,1.3c-1.5,4.6-4.6,7.7-8.6,10.1c0,0-0.1,0-0.1,0c-1.3,0.4-2,0-2-1.4c0-0.6,0.1-1.2,0.1-1.8
		c0.3-2.1,1-3.9,2.3-5.6c0.8-1.1,0.6-2.2-0.3-2.7c-0.9-0.5-2.3-0.2-2.9,0.8c-0.2,0.3-0.3,0.6-0.4,0.9c-0.4,0.8-0.7,1.6-1.2,2.3
		c-1.9,2.8-4.3,5-7.2,6.7c-1,0.6-2.2,1.1-3.3,1.3c-2,0.5-3.6-0.7-3.9-2.6c-0.1-0.7,0.1-0.9,0.7-1.2c1.7-0.7,3.5-1.4,5-2.4
		c2-1.3,3.5-3.2,3.9-5.7c0.3-1.6,0.1-3.2-1.3-4.2c-1.4-1-3-0.8-4.4,0c-0.4,0.2-0.8,0.5-1.2,0.8c-1.9,1.5-3.2,3.4-4.4,5.5
		c-0.9,1.6-1.8,3.3-2.9,4.6c-1.3,1.5-2.9,2.8-4.5,4c-1,0.8-1.8,0.3-1.9-0.9c-0.2-2.8-0.2-5.5,0.8-8.3c1.2-3.4,2.2-6.8,3.1-10.3
		c0.5-2,0.8-4.1,1-6.1c0.1-0.6-0.2-1.6-0.7-1.8c-0.8-0.5-1.4,0.3-1.8,1c-0.4,0.8-0.9,1.6-1.2,2.5c-0.8,2.6-1.4,5.1-2.2,7.7
		c-0.1,0.4-0.5,0.9-0.8,0.9c-5.6,0.8-9.6,4-12.5,8.6c-1.5,2.4-3.3,4.6-5.7,6.3c-1.3,0.9-2.3,0.5-2.3-1.1c0-1.1,0.2-2.2,0.3-3.3
		c0.2-1.8,0.6-3.6,0.6-5.3c0-2-1.6-3.1-3.6-2.4c-1.1,0.4-2.3,1-3.1,1.9c-1.9,2.2-3.6,4.7-5.4,7c-0.2,0.3-0.4,0.5-0.7,1
		c0.2-2.3,0.3-4.3,1.5-6.2c0.6-1,0.3-1.9-0.6-2.4c-0.9-0.4-1.9-0.1-2.4,0.9c-0.2,0.3-0.3,0.6-0.4,0.9c-1.2,4.1-3.8,7.1-6.9,9.9
		c-0.3,0.2-0.6,0.4-0.9,0.6c-1,0.4-1.5,0.1-1.5-0.9c0-1.1,0.1-2.2,0.3-3.3c0.4-1.7,1-3.4,1.4-5.1c0.2-0.7,0.4-1.6-0.5-2
		c-0.9-0.4-1.6,0-2.2,0.8c-0.1,0.1-0.1,0.3-0.2,0.4c-1.3,2-2.5,4.1-4,5.9c-1.3,1.5-2.9,2.8-4.5,4.1c-0.4,0.3-1.2,0.4-1.6,0.2
		c-0.3-0.2-0.5-1-0.5-1.5c0.4-4.9,3.2-8.2,7.3-10.6c0.7-0.4,1.4-0.4,2.1,0.1c0.3,0.2,1,0.1,1.4-0.1c1.1-0.8,0.9-2.2-0.3-2.8
		c-1.7-0.8-3.2-0.3-4.7,0.5c-2.5,1.4-4.7,3.2-6.2,5.7c-1.1,1.9-5.2,1.7-6.5,0.1c-0.2-0.2-0.2-0.6-0.2-0.9c-0.2-2.2-1.5-3.9-3.6-4.4
		c-0.7-0.2-1.8-0.1-2.2,0.3c-0.4,0.4-0.4,1.6-0.1,2.2c0.6,1.1,1.5,2.1,2.2,3.1c0.2,0.4,0.5,0.9,0.4,1.2c-0.6,2.4-1.8,4.5-3.6,6.3
		c-1.4,1.4-2.9,1-3.3-0.9c-0.4-1.7-0.6-3.6-0.4-5.3c0.8-6,3.1-11.5,6.5-16.5c0.6-0.9,1.3-1.8,2.5-2.1c0.4-0.1,0.8-0.4,1.1-0.7
		c0.8-0.7,1.1-2.1,0.6-2.8c-0.4-0.7-1.6-0.9-2.6-0.2c-0.9,0.6-1.8,1.4-2.5,2.2c-3.1,3.9-5.3,8.3-6.9,13c-0.9,2.6-1.4,5.3-1.8,8
		c-0.3,2.1-0.1,4.2,0.8,6.2c1.3,2.8,4.1,3.8,6.6,2c1.3-0.9,2.5-2.3,3.4-3.6c0.9-1.3,1.5-2.9,2.1-4.1
		C351.3,545,353,545.4,354.9,545.7z M220.9,535c-1,2.8-0.7,5.7-2.6,7.9c-1.7,1.9-3.3,3.8-5.1,5.5c-1.3,1.2-2.4,0.7-2.4-1.1
		c0-1.4,0.3-2.8,0.5-4.3c0.2-1.4,0.5-2.8,0.5-4.1c-0.1-2.2-1.7-3.2-3.9-2.5c-0.7,0.2-1.4,0.5-1.9,1c-1.2,1.1-2.4,2.3-3.5,3.6
		c-1.3,1.6-2.4,3.4-3.6,5.2c0-0.4,0-0.6,0-0.9c0.2-1.8,0.4-3.5,1.4-5.1c0.6-1,0.3-2-0.6-2.4c-0.9-0.5-2,0-2.5,1
		c-0.1,0.2-0.2,0.5-0.3,0.8c-1.1,4.1-3.8,7-6.8,9.8c-0.3,0.2-0.6,0.4-0.9,0.6c-1,0.5-1.6,0.2-1.6-0.9c0-1,0-2,0.2-3
		c0.4-1.7,0.9-3.3,1.3-5c0.2-0.9,0.7-1.8-0.4-2.4c-0.8-0.4-1.8,0.1-2.4,1.2c-0.1,0.1-0.1,0.2-0.2,0.3c-1.9,2.6-3.8,5.2-5.8,7.7
		c-0.7,0.8-1.7,1.5-2.6,2c-1.3,0.8-2.1,0.3-2-1.2c0.4-5,3.2-8.4,7.5-10.7c0.5-0.3,1.3-0.1,1.9,0.2c0.8,0.4,1.3,0.2,1.8-0.3
		c0.8-0.9,0.5-2-0.6-2.6c-1.6-0.8-3.1-0.3-4.6,0.4c-2.8,1.5-5,3.6-6.8,6.3c-1.5,2.3-4.2,2.8-6.4,1.2c-0.8-0.6-1.1-1.2-0.8-2.2
		c0.5-1.3,0.8-2.8,1-4.2c0.1-0.9,0.1-1.9-1.1-2.3c-1.1-0.3-1.8,0.3-2.4,1.1c-1.1,1.6-1.3,3.3-1,5.2c0.1,0.6,0.3,1.3,0.1,1.8
		c-1.1,2.2-2.3,4.4-3.5,6.5c-0.2,0.4-0.9,0.7-1.3,0.6c-0.4-0.1-0.8-0.7-0.8-1.2c-0.4-3-0.9-6.1,0.5-9.1c0.6-1.4,0.2-2.3-1.1-2.6
		c-1.2-0.4-2.2,0.3-2.5,1.6c-0.2,0.9-0.3,2-0.8,2.7c-1.9,2.9-4.4,5.4-7.4,7.3c-1.1,0.7-2.4,1.3-3.7,1.6c-2,0.5-3.6-0.6-4-2.4
		c-0.2-0.7,0-1.1,0.8-1.4c2.3-0.6,4.4-1.7,6.1-3.4c1.5-1.4,2.5-3.1,2.8-5.2c0.4-3.1-1.8-5-4.8-4.2c-0.4,0.1-0.8,0.3-1.2,0.5
		c-4.4,2.5-7.6,9.4-6.6,14.3c0.6,3.1,2.7,4.8,5.8,4.7c2.9-0.1,5.4-1.5,7.6-3.3c1.8-1.4,3.4-3.1,5.1-4.8c0,0.4-0.1,0.9,0,1.3
		c0.3,1.5,0.4,3.1,0.9,4.5c1,2.6,3.5,3.2,5.6,1.3c1.2-1.1,2.1-2.5,3-3.8c0.7-1,1.1-2.1,1.5-3c1.1,0.5,2.1,1.2,3.2,1.4
		c1.1,0.2,2.3,0.1,3.4,0.1c0,1.2-0.1,2.4,0,3.5c0.4,2.9,2.2,4,4.9,2.6c1.4-0.7,2.7-1.7,3.8-2.8c1.2-1.1,2.2-2.4,3.4-3.8
		c-0.1,1.1-0.2,2-0.2,3c0,1.4,0.3,2.7,1.6,3.4c1.4,0.7,2.7,0.4,3.8-0.5c1.7-1.5,3.3-3.2,5-4.8c0.2-0.2,0.3-0.5,0.4-0.8
		c0.1,0.1,0.2,0.2,0.3,0.3c0,1.1,0,2.2,0,3.4c0,1,0.6,1.4,1.6,1.4c0.9,0,1.4-0.5,1.9-1.2c1.8-3,3.7-5.9,5.6-8.8
		c0.4-0.7,1.1-1.2,1.7-1.7c0.3-0.2,0.9-0.3,1.3-0.2c0.2,0.1,0.3,0.8,0.2,1.2c-0.1,0.6-0.3,1.2-0.4,1.7c-0.4,2.2-0.8,4.4-0.1,6.6
		c0.7,2.4,2.6,3.3,4.9,2.3c1.2-0.5,2.3-1.4,3.3-2.3c0.8-0.7,1.5-1.6,2.3-2.4c0,1.8,0,3.6,0,5.3c0,1,0.4,1.8,1.5,1.7
		c1.1-0.1,1.4-0.8,1.4-1.9c0-2.2,0.1-4.4,0.3-6.6c0.3-3.5,1-7,2.2-10.4c1.7,0,3.3,0,5,0c0.9,0,1.7-0.4,1.7-1.4
		c0-1.1-0.9-1.1-1.7-1.1c-1.4,0-2.8,0-4.5,0c0.9-2,1.1-3.9,2.9-5.1c1-0.6,1.2-1.8,0.9-2.9c-0.1-0.4-0.7-0.8-1.1-0.8
		c-1.1-0.2-1.9,0.6-2.4,1.5c-0.8,1.6-1.7,3.1-2.2,4.8c-0.5,1.7-1.2,2.8-3.1,2.4c-0.2,0-0.5,0-0.7,0.1c-0.5,0.3-1.1,0.6-1.3,1.1
		c-0.2,0.4,0,1.3,0.3,1.5c0.5,0.3,1.3,0.2,1.9,0.2C219.9,535.4,220.2,535.2,220.9,535z M200.5,420.7c0-0.2,0-0.3,0-0.5
		c0.5-0.3,1-0.6,1.4-1c0.3-0.4,0.7-1.1,0.6-1.4c-1.5-2.3-3.3-4.2-5.7-5.5c-0.7-0.4-1.5-0.1-1.6,0.7c-0.2,1.5-1.2,2.2-2.3,2.8
		c-1.2,0.7-2.3,1.4-3.6,1.9c-0.9,0.3-1.9,0.4-2.9,0.3c-1.3-0.1-2,0.4-1.7,1.6c0.7,2.6,2.1,4.9,4.1,6.8c0.9,0.8,1.7,0.6,2.3-0.3
		c1.7-2.3,4.2-3.2,6.6-4.3c0.4-0.2,1.4,0.1,1.6,0.5c0.3,0.4,0.1,1.3-0.2,1.8c-0.3,0.5-0.9,0.9-1.4,1.2c-1.2,0.7-2.4,1.4-3.7,2
		c-0.6,0.2-1.3,0.1-1.9,0.2c-0.6,0.1-1.3,0-1.6,0.3c-0.3,0.4-0.5,1.3-0.2,1.7c1,2,2.2,3.9,3.4,5.9c0.2,0.4,0.7,0.7,1.1,0.9
		c0.7,0.4,1.4,0.2,1.8-0.5c1.5-2.6,4.2-3.5,6.7-4.8c0.4-0.2,1.4,0.2,1.7,0.6c0.3,0.4,0.3,1.5-0.1,1.8c-2.2,1.8-4.4,3.6-7.4,3.7
		c-1,0-1.6,0.5-1.5,1.5c0.3,3,1.7,5.4,4.1,7.2c0.9,0.7,1.6,0.2,2.2-0.7c0.5-0.8,1.1-1.5,1.9-2c1.8-1.2,3.8-2.2,5.7-3.3
		c2.4-1.5,3-3.8,1.7-6.3c-0.9-1.8-2.4-2.8-4.3-3.4c-0.4-0.1-0.9-0.3-1.4-0.5c1.5-2.1,1.3-4-0.1-5.9
		C204.5,421.8,202.7,421,200.5,420.7z M177.7,395.9c0.2,4.6,1.2,8.4,4.1,11.5c1.8,1.8,3.9,2.6,6.4,2.1c3.4-0.7,6.9-1.4,10.3-2.2
		c1-0.2,1.7,0,2.4,0.7c0.4,0.4,1.4,0.9,1.7,0.7c0.5-0.3,1.1-1.2,1-1.8c-0.4-2.2-0.9-4.4-1.5-6.6c-0.2-0.5-1.1-1.1-1.7-1.1
		c-0.4,0-1,0.9-1.2,1.5c-0.3,0.9-0.7,1.6-1.7,1.8c-3.1,0.7-6.1,1.5-9.2,2.2c-1.6,0.4-3-0.3-4-1.6c-2.3-3.2-1-7.1,2.9-8.1
		c2.5-0.6,5-1.1,7.5-1.6c1.1-0.2,2-0.1,2.7,0.9c0.8,1.1,2.3,0.8,2.7-0.6c0.2-0.6,0.3-1.2,0.1-1.8c-0.5-2.5-1.1-5-1.7-7.4
		c-0.1-0.5-0.5-1-0.8-1.4c-0.9-1.1-2.2-1-2.7,0.3c-0.6,1.5-1.8,2-3.2,2.3c-3,0.6-5.9,1.3-8.8,2.1c-2.5,0.7-4,2.5-4.7,4.9
		C178,393.8,177.8,395.1,177.7,395.9z M400.7,433.1c-0.9,0.2-1.8,0-2.1,0.4c-1.9,2.5-2.7,5.4-2.7,8.4c0,1.5,1.5,2.1,2.6,1.1
		c0.7-0.6,1.2-0.5,1.8-0.1c2.5,1.8,4.9,3.5,7.4,5.3c0.8,0.6,1.1,1.4,1,2.4c-0.1,1.2,0.7,1.8,1.9,1.6c2.6-0.6,6.7-4.9,7.1-7.6
		c0.2-1.4-0.6-2.1-2.1-1.8c-0.6,0.2-1.4,0.2-2-0.1c-1.2-0.5-1.2-1-0.2-1.7c1.5-1,2.5-2.3,2.9-4.1c1.1-4.5-2.1-9.6-7-10.9
		c-4.6-1.2-8.2,1.3-8.6,6.1C400.8,432.6,400.7,433,400.7,433.1z M326.9,481.4c-0.2-1.9-1.2-2-2.3-1.4c-2.2,1.1-4.4,2.3-6.5,3.7
		c-0.5,0.3-0.7,1.4-0.6,2c0.1,0.4,1,0.6,1.5,1c0.4,0.2,0.9,0.5,1,0.8c0.6,3.2,1.2,6.4,1.7,9.6c0.1,0.5-0.2,1.3-0.6,1.7
		c-1.3,1.5-1.1,2.7,0.8,3.1c1.8,0.4,3.6,0.5,5.4,0.4c1.3-0.1,2.7-0.6,3.9-1.2c1.4-0.7,1.2-2-0.2-2.8c-0.4-0.2-0.9-0.5-1.1-0.9
		c-0.3-0.5-0.3-1.1-0.4-1.7c0.5-0.1,1-0.2,1.5-0.1c2.7,0.4,4.9-0.6,6.5-2.7c2.6-3.2,2.6-8,0.2-11.5c-2.5-3.5-6.6-4-9.9-1.1
		C327.9,480.6,327.5,480.9,326.9,481.4z M211.5,458.3c-3.2-0.2-4.5,1.7-3.4,4.6c0.1,0.3,0.2,0.6,0.4,0.9c2,3.5,4.8,6.1,8.5,7.6
		c1.7,0.7,3.4,0.8,5.2,0.2c3-1.1,4-4.2,1.9-6.6c-1.1-1.2-2.4-2.2-3.7-3.2c-0.7-0.6-1.5-1.2-2.2-1.9c-0.5-0.6-1-1.3-0.2-2
		c0.8-0.7,1.2,0.1,1.6,0.6c1.7,1.8,3.6,3.2,6,3.7c2.1,0.5,3.9,0.1,5.3-1.7c0.3-0.3,0.9-0.5,1.3-0.6c1.2-0.2,2.4-0.5,3.1-1.6
		c0.4-0.6,0.5-1.5-0.5-1.6c-2.6-0.2-4.2-1.8-5.6-3.9c-1.6-2.4-4-3.9-6.9-4.5c-3.2-0.6-5.7,1.4-5.7,4.6c0,0.4,0,0.8,0,1.3
		C212,454.1,211.8,454.7,211.5,458.3z M277.8,543.6c1.9,0.8,4.2,1.7,6.4,2.7c1.4,0.6,1.6,1.5,0.5,2.5c-1.4,1.1-2.9,2.1-4.5,2.8
		c-0.7,0.3-1.7,0.1-2.5,0.1c0.1-0.8,0.1-1.6,0.1-2.4c0-0.4,0-1.2-0.2-1.3c-0.5-0.2-1.1-0.2-1.5,0.1c-1.2,0.7-1.7,3.2-1.2,4.8
		c0.4,1.2,1.6,1.9,3.3,1.7c3.9-0.5,7.2-2.3,9.7-5.2c1.6-1.9,1.3-3.6-0.8-4.9c-1.4-0.8-3-1.3-4.5-2c-1.1-0.5-2.2-0.9-3.3-1.4
		c-0.7-0.3-1-0.9-0.5-1.7c1.2-1.9,5.4-2.5,7.1-1.1c0.2,0.2,0.6,0.3,0.9,0.4c1,0.1,1.7-0.4,1.9-1.3c0.3-1-0.1-1.9-1.1-2.1
		c-1.6-0.3-3.2-0.5-4.8-0.5c-2.5,0.1-4.6,1.1-6.4,2.9c-0.9,0.9-1.2,2-1,3.3c0.1,0.5-0.1,1.2-0.3,1.6c-2,2.7-4.5,4.9-7.4,6.5
		c-1,0.6-2.2,0.9-3.4,1.1c-1.6,0.2-2.9-1-3.2-2.6c-0.1-0.7,0-1,0.8-1.3c1.6-0.6,3.1-1.2,4.5-2.1c2.2-1.3,3.8-3.2,4.3-5.8
		c0.4-1.7,0.2-3.4-1.3-4.4c-1.5-1.1-3.2-0.7-4.8,0.2c-0.2,0.1-0.5,0.3-0.7,0.5c-3,2.4-5,5.5-5.7,9.2c-0.3,1.7-0.2,3.7,0.2,5.4
		c0.5,2.5,2.5,3.8,5.1,3.8c3,0,5.5-1.2,7.6-3C273.3,548.1,275.4,545.9,277.8,543.6z M286.3,490.2c0,3.3,1.7,6,4.8,7.2
		c3.6,1.5,7.2,1.2,10.6-0.8c2.7-1.6,4.4-3.9,4.1-7.1c-0.2-3.2-1.8-5.6-4.7-7.2c-2.1-1.1-4.3-1.2-6.5-0.9
		C289.7,481.9,286.3,485.6,286.3,490.2z M409.3,416.4c0.3,1.3,0.6,2.5,1,3.7c0.3,0.9,1.2,1.3,2.2,1.1c1-0.3,1.4-1.1,1.4-2
		c0-0.8-0.4-1.6-0.7-2.4c-0.2-0.5-0.6-1-0.7-1.5c0-0.6,0.1-1.4,0.5-1.7c1.2-0.7,2.4,0.1,3.5,0.6c0.9,0.5,0.2,1.3,0,1.9
		c-0.7,1.8-1.2,3.6-0.9,5.6c0.4,1.9,1.3,3.3,3.2,3.7c2,0.4,3.6-0.2,4.8-1.8c1.1-1.6,1.8-3.3,1.3-5.3c-0.2-0.9,0-1.4,0.9-1.7
		c3.1-1.2,3-6,0.8-7.7c-0.3-0.2-1.1-0.2-1.3,0c-0.6,0.7-1.3,0.7-2.1,0.4c-1.6-0.6-3.1-1.3-4.6-2c-2.9-1.2-4.9-0.7-6.9,1.8
		C410.3,411.3,409.7,413.8,409.3,416.4z M379.8,459.9c-0.1,0-0.1,0-0.2,0c0-0.3-0.1-0.7,0-1c0.2-0.6,0.4-1.3,0.8-1.6
		c0.4-0.2,1.2,0.1,1.7,0.3c0.3,0.1,0.5,0.4,0.7,0.6c1.4,1.4,1.4,1.4,0,2.7c-1.5,1.4-2.8,3-3.3,5.2c-0.3,1.7,0.1,3.2,1.5,4.3
		c1.4,1.1,3,1.4,4.7,0.6c1.9-0.9,3.3-2.3,3.9-4.3c0.3-1,0.7-1.3,1.7-1.3c2.9,0.1,5.3-4.1,3.9-6.6c-0.2-0.3-0.9-0.7-1.1-0.6
		c-1,0.5-1.6,0-2.2-0.6c-1-1.1-2-2.2-2.9-3.3c-2.4-3-5.1-3-8-1.2c-2.5,1.5-4.2,3.8-5.1,6.6c-0.2,0.7-0.3,1.4-0.3,2.1
		c0,0.9,0.4,1.7,1.5,1.9c1.1,0.2,1.8-0.3,2.2-1.2C379.5,461.7,379.6,460.8,379.8,459.9z M430.8,391.4c-0.4,0.7-0.5,1.4-0.9,1.6
		c-0.3,0.2-1.1-0.1-1.4-0.5c-2.2-2-4.4-4-6.6-6c-0.4-0.4-0.8-0.8-1.3-1c-0.8-0.4-1.5-0.3-1.8,0.7c-0.2,0.7-0.3,1.4-0.5,2.1
		c-0.9,3.2-1.9,6.3-2.8,9.5c-0.1,0.3-0.1,0.6,0,0.9c0.5,1.4,3,3.3,4.5,3.2c0.5,0,1.2-0.4,1.5-0.8c0.2-0.4,0-1.1-0.3-1.6
		c-0.3-0.6-1.1-1-1.2-1.6c-0.1-0.7,0.2-1.6,0.4-2.3c0.5,0.2,1.1,0.4,1.6,0.7c0.3,0.2,0.5,0.5,0.8,0.7c2.1,2.1,4.2,4.2,6.4,6.3
		c1.1,1.1,2,0.9,2.5-0.6c0.3-0.8,0.4-1.6,0.6-2.4c0.9-3,1-6.2,2.6-8.9c0.2-0.3,0.1-0.8,0-1.2c-0.8-1.8-2.2-3-4.1-3.3
		c-0.6-0.1-1.5,0.4-1.9,0.9c-0.6,0.6,0.1,1.2,0.6,1.7C429.9,390,430.3,390.7,430.8,391.4z M343.6,481.3c0,2.1,0.8,4.2,2.3,5.7
		c5.1,5.4,13,1.6,15-3.1c0.2-0.4,0.3-1,0.2-1.4c-0.3-0.6-0.8-1.1-1.3-1.4c-0.3-0.1-0.9,0.4-1.3,0.7c-0.8,0.6-1.5,1.4-2.4,1.9
		c-1.3,0.8-3.4,0.4-4.4-0.5c-0.7-0.7-0.7-1.2,0.3-1.5c2.1-0.8,4.2-1.6,6.2-2.4c1.4-0.6,1.8-1.3,1.3-2.8c-0.6-1.8-1.8-2.9-3.5-3.6
		C350.5,470.3,343.6,475,343.6,481.3z M275.8,495.2c1.7-0.2,3.2-0.5,4.6-1.5c0.7-0.6,1-1.3,0.6-2.2c-0.4-0.8-1-0.5-1.6-0.4
		c-1.7,0.3-2.8-0.7-2.3-2.4c0.5-1.9,1-3.7,1.5-5.5c0.2-0.7,0.5-0.9,1.2-0.6c0.8,0.3,1.7,0.5,2.5,0.7c0.4,0.1,1,0.1,1.1-0.1
		c0.4-0.8,0.8-1.7,0.8-2.6c0-0.3-0.9-0.7-1.5-0.9c-2.9-0.9-2.9-0.8-2.2-3.7c0-0.1,0.1-0.3,0.1-0.3c-0.1-0.3-0.2-0.8-0.4-0.8
		c-0.9-0.2-1.9-0.4-2.8-0.2c-2.4,0.6-4.7,1.4-7.1,2c-1.1,0.3-1.7,1-1.6,2c0,0.4,0.9,0.8,1.5,0.9c1,0.2,1.2,0.7,0.9,1.6
		c-0.7,2.3-1.3,4.6-1.9,6.9c-0.7,2.7,0.5,5.2,3.1,6.3C273.3,494.7,274.6,494.9,275.8,495.2z M244.6,467.4c0.3-0.8,0.5-1.3,0.7-1.8
		c0.3-0.7,0.2-1.1-0.4-1.5c-2.1-1.3-4.4-2.1-6.9-2.3c-1.6-0.1-2.2,0.9-1.5,2.4c0.2,0.5,0.2,1.3,0,1.7c-0.9,1.5-2,3-3.1,4.4
		c-0.3,0.4-1,0.8-1.6,0.9c-0.8,0.2-1.8,0.2-1.9,1.1c-0.1,0.7,0.2,1.6,0.7,2.1c2.1,2.2,4.6,3.6,7.4,4.8c0.8,0.4,1.8,0.3,2.4-0.5
		c0.7-0.9,0.2-1.6-0.4-2.3c-0.6-0.7-0.6-1.4-0.2-2.1c0.8-1.3,1.5-2.5,2.4-3.7c0.2-0.3,0.7-0.6,1-0.6c0.2,0,0.4,0.6,0.6,0.9
		c0.5,0.8,0.8,1.9,1.5,2.5c1.4,1.2,3.5,0.9,4.9-0.4c1.3-1.2,1.6-3.2,0.8-4.6c-0.9-1.5-2.8-2.1-4.6-1.6
		C245.9,467.1,245.4,467.2,244.6,467.4z M236.1,276.9c0.1-0.1,0.2-0.2,0.3-0.2c-0.6-3.2-1.2-6.4-1.9-9.7c0.1-0.1,0.2-0.1,0.3-0.2
		c1.1,1.5,2.3,3,3.4,4.5c0.1,0.2-0.2,0.8-0.3,1.2c-0.1,0.4-0.2,0.8-0.1,1.1c0.1,0.3,0.8,0.6,0.9,0.5c1.7-1.3,3.4-2.7,5.1-4.1
		c0.1-0.1,0.1-0.7-0.1-0.9c-0.2-0.2-0.6-0.3-0.9-0.3c-0.3,0-0.6,0.3-1.1,0.5c-0.3-0.3-0.6-0.7-0.9-1c-1.8-2.3-3.6-4.6-5.4-6.9
		c-0.7-0.9-1.2-1.7,0.1-2.7c-0.5-0.4-0.8-1-1.2-1c-1.5,0-3.5,2.5-3.2,4.1c0.3,1.4,0.7,2.8,1,4.2c0.3,1.5,0.6,3,1,4.7
		c-0.6-0.3-1-0.4-1.4-0.6c-2.6-1.2-5.1-2.4-7.7-3.6c-0.3-0.2-0.9-0.3-1.2-0.1c-1,0.7-2,1.6-3,2.4c-0.2,0.2-0.4,1-0.2,1.1
		c0.3,0.3,1,0.6,1.3,0.4c0.7-0.4,1.2-0.2,1.7,0.4c2,2.6,4.1,5.2,6.1,7.7c0.4,0.5,0.4,0.9-0.1,1.5c-0.3,0.3-0.3,0.8-0.5,1.3
		c0.5,0.1,1.2,0.4,1.6,0.2c1.1-0.7,2.1-1.6,3-2.5c0.2-0.2,0.2-0.8,0.2-1.2c-0.4,0-0.8-0.1-1.3-0.1c-0.4,0-0.9,0.2-1.1,0
		c-1.3-1.6-2.6-3.2-3.9-4.8c0.1-0.1,0.2-0.2,0.2-0.3C230.1,274,233.1,275.5,236.1,276.9z M369.1,481.5c0.1,0,0.3,0,0.5-0.1
		c2.7-0.8,5.1-2.3,7.2-4.1c0.3-0.3,0.5-0.7,0.6-1.1c0.2-1-0.3-1.7-1.2-1.6c-1.1,0.1-1.7-0.4-2.2-1.3c-2.4-4.4-4.9-8.7-7.3-13.1
		c-0.3-0.6-0.5-1.2-1-1.6c-0.4-0.3-1.2-0.6-1.5-0.4c-2.3,1.5-4.5,3.2-6,5.6c-0.9,1.4-0.2,2.7,1.5,2.7c1.1,0.1,2,0.5,2.5,1.4
		c1.8,3.1,3.6,6.2,5.3,9.4c0.3,0.5,0.2,1.4,0,2C367.1,480.6,367.6,481.5,369.1,481.5z M313.9,546.6c0,0.9,0,1.7,0,2.5
		c0,1.5,0.2,2.8,1.7,3.6c1.4,0.7,2.8,0.3,3.9-0.6c3.1-2.3,5.5-5.3,7.5-8.7c0.5-0.9,0.4-1.7-0.5-2.2c-1-0.5-1.3,0.3-1.7,0.9
		c-1.6,2.2-3.3,4.3-5,6.4c-0.5,0.6-1.2,1-1.9,1.4c-0.8,0.4-1.3,0.1-1.3-0.8c0-1,0-1.9,0.2-2.9c0.4-2,1.1-3.9,1.5-5.9
		c0.1-0.5-0.1-1.5-0.5-1.7c-0.7-0.5-1.5-0.1-2.1,0.6c-0.2,0.2-0.3,0.5-0.4,0.7c-1.6,3-3.6,5.8-6.1,8.1c-0.7,0.7-1.6,1.4-2.5,1.9
		c-1.3,0.7-1.9,0.3-1.9-1.2c0-4,3.7-9.5,7.5-10.8c0.5-0.2,1.3-0.2,1.7,0.1c1,0.6,1.6,0.3,2.1-0.5c0.5-0.8,0.3-1.9-0.6-2.2
		c-0.8-0.3-1.8-0.5-2.6-0.4c-2.9,0.5-5,2.4-6.9,4.5c-2.8,3-4.2,6.6-3.9,10.7c0.2,2.6,2.1,3.8,4.4,2.8c1.1-0.5,2.2-1.1,3.1-1.9
		C311,549.7,312.4,548.2,313.9,546.6z M478.5,546.2c-0.1,0.7-0.2,1.3-0.2,1.9c-0.1,1.7-0.2,3.6,1.6,4.5c1.9,1,3.4,0,4.8-1.2
		c2.6-2.2,4.7-4.7,6.5-7.7c0.7-1.2,0.6-2.1-0.2-2.5c-1.2-0.6-1.5,0.5-1.9,1.2c-1.7,2.6-3.5,5.2-6,7.1c-0.4,0.3-1.2,0.6-1.6,0.4
		c-0.4-0.2-0.5-1-0.5-1.5c-0.1-0.4,0-0.9,0.1-1.3c0.5-2.2,1.1-4.4,1.7-6.6c0.2-0.7,0.3-1.5-0.5-1.9c-0.8-0.4-1.6,0-2.1,0.7
		c-0.1,0.2-0.2,0.4-0.3,0.5c-1.3,2-2.5,4.1-4,5.9c-1.3,1.6-2.8,2.9-4.5,4.1c-1.3,1-2.2,0.4-2.1-1.2c0.1-3.9,3.8-9.2,7.4-10.6
		c0.5-0.2,1.3-0.2,1.8,0.1c0.9,0.6,1.5,0.3,2-0.4c0.6-0.8,0.4-1.8-0.4-2.2c-0.8-0.4-1.9-0.6-2.7-0.5c-2.8,0.4-4.8,2.2-6.6,4.1
		c-2.8,2.9-4.4,6.3-4.3,10.4c0.1,3.5,2.3,4.8,5.4,3.1c1.3-0.7,2.4-1.7,3.5-2.7C476.4,548.8,477.4,547.5,478.5,546.2z M229.2,546.2
		c0,0.3,0,0.6,0,1c0.3,4.4,3.3,6.7,7.6,5.7c0.6-0.1,1.2-0.3,1.8-0.6c4.3-1.9,7.5-5,10-8.8c0.5-0.7,0.7-1.4-0.1-2
		c-0.9-0.6-1.4-0.1-1.9,0.7c-1.8,2.6-4.1,4.8-6.9,6.4c-1.1,0.7-2.3,1.2-3.5,1.5c-2.1,0.6-3.7-0.7-4-2.6c-0.1-0.7,0.1-0.9,0.7-1.1
		c1.4-0.5,2.8-1,4.1-1.7c2.2-1.3,4-3.1,4.8-5.6c0.6-2,0.1-4.1-1.1-5c-1.3-0.9-3.5-0.9-5.1,0.3C231.6,537.3,229.5,541.3,229.2,546.2z
		 M406.4,288.2c-2,1.8-4,3.5-6.2,5.3c0.4-4.4,0.6-8.6,1.1-12.7c0.2-1.8-0.7-2.8-1.9-3.7c-0.2-0.2-0.9-0.2-1-0.1
		c-0.3,0.3-0.6,0.9-0.4,1.2c0.6,1,0.1,1.6-0.6,2.3c-0.6,0.5-1.1,1-1.7,1.5c-2,1.7-4,3.5-6,5.2c-0.2-0.3-0.3-0.4-0.4-0.6
		c-0.3-0.5-0.6-0.9-1.3-0.5c-0.8,0.4-0.6,1-0.2,1.5c0.8,1,1.7,2,2.6,2.9c0.2,0.2,0.9,0.2,1,0.1c0.2-0.3,0.3-0.8,0.3-1.2
		c0-0.3-0.3-0.5-0.6-0.8c1.8-1.6,3.6-3.1,5.6-4.8c0,0.5,0.1,0.7,0,0.8c-0.2,3.6-0.4,7.3-0.6,10.9c0,0.8-0.1,1.6,0,2.4
		c0.2,1.1,0.7,1.3,1.5,0.6c1.3-1.1,2.6-2.2,3.9-3.4c2.1-1.8,4.2-3.6,6.2-5.4c0.2,0.1,0.3,0.3,0.4,0.3c0.5,0,1,0.1,1.5,0.1
		c0-0.5,0.1-1-0.2-1.3c-0.6-0.9-1.4-1.7-2.2-2.5c-0.2-0.2-0.9-0.4-1-0.2c-0.3,0.3-0.4,0.8-0.4,1.2
		C405.9,287.5,406.2,287.8,406.4,288.2z M256.9,253.5c0.6,0.2,0.9,0.3,1.2,0.4c3.7,1.5,7.3,3.1,11,4.6c0.6,0.2,1.3,0.1,1.9,0.1
		c-0.1-0.6,0-1.2-0.2-1.7c-1.5-4-3-7.9-4.5-11.9c0.2-0.1,0.4-0.2,0.5-0.4c0.2-0.5,0.3-1,0.5-1.4c-0.4-0.1-0.8-0.3-1.2-0.2
		c-1.1,0.3-2.1,0.7-3.1,1.2c-0.3,0.1-0.4,0.6-0.7,1c0.4,0.2,0.7,0.5,1.2,0.7c0.3,0.1,0.6-0.1,1-0.1c0.9,2.5,1.9,4.9,2.9,7.6
		c-0.8-0.3-1.2-0.5-1.5-0.7c-3.3-1.5-6.6-2.9-9.9-4.6c-1.6-0.8-2.9-0.3-4.2,0.5c-0.3,0.2-0.4,0.8-0.3,1.1c0.1,0.3,0.6,0.7,0.9,0.7
		c1.1-0.2,1.5,0.4,1.8,1.3c1.1,2.9,2.2,5.7,3.4,8.6c0.1,0.3,0.2,0.7,0.3,1.1c-0.3,0.1-0.4,0.1-0.5,0.1c-0.7,0-1.2,0.3-1,1.1
		c0.1,0.9,0.7,0.9,1.3,0.7c1.2-0.5,2.4-1,3.6-1.5c0.2-0.1,0.4-0.7,0.3-0.9c-0.2-0.3-0.6-0.5-1-0.6c-0.3-0.1-0.6,0.1-1,0.2
		C258.7,258.1,257.9,255.9,256.9,253.5z M258.1,489.5c2.1,0.1,2.9-0.9,2.3-2.1c-0.6-1.2-0.5-2.2,0-3.3c1.3-2.8,2.5-5.7,3.8-8.5
		c0.4-0.9,0.3-1.5-0.7-1.7c-2.4-0.5-4.8-0.9-7.3-1.3c-0.5-0.1-1.3,0.4-1.5,0.9c-0.2,0.4,0.2,1.1,0.3,1.6c0.1,0.6,0.5,1.2,0.3,1.6
		c-0.6,1.7-1.3,3.4-2.1,4.9c-0.4,0.7-1.3,1.3-2.1,1.6c-1.3,0.5-1.8,1.7-0.6,2.7C252.8,487.8,255.5,489,258.1,489.5z M200.4,313.8
		c4.4,0,8.1-3.8,8.2-8.2c0-4.3-4.1-8.3-8.8-8.3c-4.3,0-8,3.9-8,8.3C191.7,309.9,195.8,313.8,200.4,313.8z M420.3,317.4
		c-4.6,0-8.7,3.8-8.7,8c0,4.8,3.5,8.4,8,8.4c4.7,0,8.7-3.7,8.7-8C428.3,321,424.9,317.4,420.3,317.4z M355.2,249
		c1,0.5,1.7,0.3,2.1-0.8c-1.6-1.4-3.5-2.1-5.4-2.7c-0.6-0.2-1.3-0.5-1.6,0.4c-0.4,0.9,0.5,1,0.9,1.3c0.1,0,0.1,0.1,0.1,0.3
		c-0.1,0.3-0.3,0.7-0.5,1c-1.1,2.4-2.2,4.8-3.2,7.2c-1.2,3-0.5,5.1,2.3,6.7c1.2,0.7,2.5,1.3,3.8,1.7c2.7,0.9,5.1-0.2,6.5-2.7
		c0.4-0.6,0.6-1.3,0.9-1.9c1-2.1,1.9-4.2,2.9-6.3c0.3,0.1,0.5,0.1,0.7,0.2c0.5,0.2,1,0.5,1.4-0.2c0.4-0.8,0-1.2-0.6-1.4
		c-1.3-0.6-2.6-1.2-3.9-1.7c-0.3-0.1-0.9,0.1-1,0.3c-0.1,0.4,0,0.9,0.3,1.2c0.3,0.3,0.8,0.5,1.2,0.8c-1,2.2-2,4.4-3,6.6
		c-1.5,3.3-2.8,3.7-6,1.9c-0.2-0.1-0.5-0.3-0.7-0.4c-1.3-1-1.7-1.9-1-3.4C352.7,254.3,353.9,251.7,355.2,249z M323.3,247.4
		c2.3,0,2.4,0.1,2.4,1.5c0,0.5,0.3,1.2,0.6,1.3c0.7,0.3,1.3-0.2,1.4-0.9c0.3-1.6,0.5-3.1,0.6-4.7c0.1-0.8-0.4-1.4-1.2-1.4
		c-0.3,0-0.7,0.7-0.8,1.2c-0.1,1-0.6,1.3-1.5,1.1c-0.4-0.1-0.8-0.2-1.2-0.3c0.2-1.5,0.4-2.8,0.6-4.2c1.3,0.2,2.5,0.1,3.4,0.5
		c1,0.4,1.7,1.4,2.6,2.1c0.8-1,0.7-2.1,0.6-3.2c-0.1-0.9-0.6-1.2-1.5-1c-0.6,0.1-1.3,0.1-1.9,0c-2.5-0.3-5-0.7-7.5-0.9
		c-0.4,0-1.1,0.3-1.3,0.6c-0.3,0.7,0.1,1.2,0.9,1.3c0.1,0,0.3,0.1,0.6,0.2c-0.5,3.6-1,7.2-1.6,10.7c0,0.3-0.6,0.5-1,0.7
		c-0.3,0.2-0.6,0.3-0.8,0.6c-0.4,0.9-0.2,1.3,1.1,1.5c3.2,0.5,6.4,1,9.6,1.5c0.3,0,0.8-0.1,0.9-0.3c0.6-1.3,1.1-2.6,1.5-3.9
		c0.1-0.3-0.2-0.7-0.3-1c-0.3,0.1-0.7,0.2-1,0.5c-0.3,0.2-0.4,0.6-0.6,0.9c-0.6,1-1.4,1.4-2.5,1.3c-0.9-0.1-1.9-0.2-2.9-0.3
		C322.9,250.7,323.1,249.1,323.3,247.4z M243.2,255.7c1.9-0.8,3.3-2.7,5.6-1.5c0.6,0.3,1.1-0.2,0.8-0.8c-0.5-0.9-1.1-1.7-1.8-2.5
		c-0.1-0.2-0.8,0-1.1,0.2c-1,0.6-1.9,1.4-2.9,2c-1.8,1.1-3.7,2.2-5.6,3.3c-0.3,0.2-0.3,0.7-0.5,1.1c0.5,0.2,0.9,0.4,1.4,0.5
		c0.2,0,0.4-0.1,0.8-0.3c1.8,3.2,3.5,6.3,5.2,9.4c0.3,0.5,0.3,1-0.4,1.3c-0.2,0.1-0.3,0.6-0.2,0.9c0.3,1.3,1,0.9,1.8,0.5
		c2.8-1.5,5.7-3,8.5-4.6c0.3-0.1,0.6-0.6,0.5-0.8c-0.4-1.4-0.8-2.8-1.3-4.2c-0.1-0.2-0.5-0.4-0.7-0.4c-0.2,0.1-0.5,0.4-0.5,0.7
		c-0.1,0.4,0.1,0.9,0,1.3c-0.2,0.8-0.2,1.7-0.7,2.2c-0.8,0.8-1.9,1.3-3,2c-0.9-1.7-1.8-3.1-2.6-4.6c1.8-1.2,1.8-1.2,3.1,0.2
		c0.2,0.2,0.9,0.4,1,0.3c0.3-0.3,0.7-0.9,0.6-1.3c-0.2-0.8-0.6-1.6-1-2.3c-0.5-0.9-1.1-1.7-1.8-2.4c-0.3-0.3-1-0.1-1.5-0.2
		c0,0.4-0.1,0.9,0,1.3c0.1,0.4,0.4,0.8,0.6,1.3c-0.8,0.4-1.4,0.8-2.2,1.2C244.6,258.2,243.9,257.1,243.2,255.7z M346.8,246.1
		c0.1-1.2-0.6-1.9-1.9-2.7c-4.2-2.7-8.4-2.3-11.2,1.6c-2,2.8-2.3,7.2-0.5,10c1.9,2.8,4.7,3.4,7.9,3.1c1.9-0.2,3.2-1.1,3.7-2.9
		c0.3-1,0-1.4-1-1.2c-0.5,0.1-1,0.4-1.4,0.6c-2.1,1-4,0.4-5.1-1.6c-1.2-2.3-1-4.6,0.3-6.7c0.8-1.4,2.1-1.9,3.6-1.5
		c1.3,0.4,1.8,1.1,1.8,2.8c0,1,0.6,1.4,1.5,1.5C346,249.3,346.7,248.4,346.8,246.1z M414.6,303.2c-0.8,0.1-1.6,0.1-2.4,0.3
		c-3.4,0.9-5.7,3.1-6.6,6.5c-0.8,3.1,0.7,5.6,3,7.6c0.9,0.8,2,1.7,3.4,1.2c0.7-0.3,1.9-0.6,2-1.1c0.2-1-1-1.1-1.8-1.4
		c-0.3-0.1-0.5-0.2-0.8-0.3c-1.5-0.8-2.2-2.3-1.8-3.9c0.6-2.6,3.1-4.9,5.7-5.1c1.5-0.1,2.5,0.5,3.2,1.9c0.5,1.2,0.1,2.2-0.8,3
		c-0.5,0.5-1,1-0.5,1.8c0.5,0.8,1.3,1.7,2.2,1.3c1-0.4,1.9-1.4,2.7-2.2c0.7-0.6,0.2-1.2-0.1-1.8c-0.1-0.2,0-0.5-0.1-0.7
		C421.5,307.1,419.2,303,414.6,303.2z M294.7,535c0,0.5-0.1,0.7-0.1,1c-0.7,3.9-1.4,7.8-2,11.7c-0.2,1.6-0.1,3.3,0,5
		c0,0.8,0.5,1.3,1.4,1.2c0.8,0,1.4-0.5,1.5-1.3c0.1-0.4,0-0.7,0-1.1c0-5.3,0.6-10.4,2.1-15.5c0.2-0.8,0.6-1.1,1.5-1.1
		c1.2,0.1,2.5,0.1,3.7,0.1c1.1,0,2-0.6,1.9-1.4c-0.1-1.1-1-1.1-1.8-1.1c-1.4,0-2.8,0-4.4,0c0.8-2,1-3.8,2.6-4.9c1-0.7,1.4-1.8,1.1-3
		c-0.1-0.4-0.8-0.9-1.2-0.9c-1.2-0.2-1.9,0.7-2.4,1.6c-0.8,1.6-1.7,3.1-2.2,4.8c-0.5,1.6-1.1,2.6-3,2.3c-0.3,0-0.6,0-0.8,0.2
		c-0.5,0.4-1.1,0.8-1.3,1.3c-0.2,0.3,0.1,1.2,0.4,1.3c0.6,0.2,1.3,0.2,1.9,0.1C293.9,535.4,294.3,535.2,294.7,535z M279.4,242.3
		c1.8-0.6,2.3-0.5,3.6,1.1c0.6,0.7,1.2,0.6,1.7,0.2c0.2-0.2,0.3-0.9,0.1-1.2c-0.4-0.9-1-1.8-1.5-2.7c-0.4-0.6-0.8-0.6-1.5-0.4
		c-3.1,0.8-6.2,1.7-9.3,2.3c-1.7,0.3-2,0.3-2,2.1c0,0.8,0,1.6,0.2,2.4c0.1,0.3,0.5,0.8,0.8,0.8c0.4,0,0.8-0.3,1.1-0.7
		c0.2-0.3,0.2-0.8,0.3-1.1c0.4-1.3,1-1.7,2.6-1.7c0.8,3.5,1.7,7.1,2.4,10.7c0.1,0.3-0.4,0.7-0.6,1.1c-0.2,0.4-0.6,0.8-0.6,1.2
		c0,0.2,0.7,0.7,1,0.6c1.9-0.4,3.7-0.8,5.6-1.3c0.3-0.1,0.7-0.6,0.7-0.8c-0.2-0.4-0.6-1-0.9-0.9c-1,0.2-1.1-0.5-1.3-1.2
		c-0.5-2.3-1-4.5-1.5-6.8C279.9,244.7,279.7,243.5,279.4,242.3z M200.5,293.5c0.3-1.3,1.1-1.1,2-0.9c4.4,1.1,8.8,2.1,13.2,3.1
		c0.5,0.1,1.1,0,1.6,0c-0.1-0.5,0-1.1-0.3-1.6c-0.6-1.3-1.3-2.6-2-4c-1.4-2.8-2.9-5.5-4.3-8.3c-0.2-0.3-0.2-0.9,0-1.2
		c0.3-0.4,0.6-0.7,0.1-1.2c-0.5-0.4-1-0.6-1.4-0.1c-0.8,1-1.7,1.9-2.4,3c-0.7,1.1-0.6,1.3,0.8,1.9c0.3-0.4,0.6-0.7,1.1-1.3
		c1.6,2.8,3.1,5.4,4.6,7.9c-0.1,0.1-0.2,0.3-0.3,0.4c-3-0.8-5.9-1.6-9-2.4c0.3-0.5,0.6-0.7,0.6-0.9c0-0.4-0.2-0.8-0.4-1.1
		c-0.1-0.1-0.7-0.1-0.9,0.1c-1.3,1.5-2.6,3-3.8,4.6C199,292.4,199.4,293,200.5,293.5z M214.4,277.2c0.2,0.1,0.3,0.2,0.4,0.3
		c2.5,2.6,5,5.3,7.5,7.9c0.5,0.5,0.3,0.9-0.1,1.4c-0.2,0.3,0,1,0.1,1.5c0.4,0,0.9,0.1,1.1-0.1c1.5-1.4,3-2.8,4.5-4.3
		c0.2-0.2,0.1-0.8,0.2-1.2c-0.5,0-1-0.1-1.5-0.1c-0.2,0-0.4,0.3-0.6,0.4c-0.2-0.1-0.3-0.1-0.4-0.2c-2.5-2.6-5-5.3-7.5-7.9
		c-0.5-0.5-0.3-0.9,0.1-1.4c0.2-0.3,0.1-0.9-0.1-1.2c-0.1-0.2-0.8-0.3-1-0.1c-1.6,1.5-3.2,3-4.8,4.6c-0.2,0.2-0.1,0.8,0.1,1
		c0.3,0.2,0.8,0.3,1.1,0.2C213.9,277.8,214.2,277.5,214.4,277.2z M411.1,294.4c-0.1,0.1-0.2,0.2-0.2,0.3c-3.1,2-6.2,3.9-9.3,5.9
		c-0.5,0.3-0.9,0.3-1.3-0.2c-0.3-0.3-0.9-0.2-1.4-0.3c-0.1,0.4-0.3,0.9-0.2,1.2c1.1,1.8,2.2,3.5,3.3,5.2c0.2,0.3,1,0.4,1.1,0.3
		c0.3-0.3,0.5-1,0.4-1.3c-0.5-0.8-0.1-1.1,0.5-1.5c2.8-1.8,5.6-3.5,8.4-5.3c0.6-0.4,1.1-0.6,1.6,0.2c0.2,0.2,0.8,0.3,1.2,0.2
		c0.2,0,0.5-0.7,0.4-0.8c-1.2-2-2.4-3.9-3.7-5.8c-0.1-0.2-0.8-0.1-1,0.1c-0.2,0.2-0.3,0.7-0.3,1
		C410.6,293.8,410.9,294.1,411.1,294.4z M424.3,367.6c2.7,0,4.8-2.1,4.8-4.7c0-2.6-2.1-4.7-4.7-4.8c-2.6,0-4.8,2.1-4.8,4.6
		C419.5,365.4,421.6,367.6,424.3,367.6z M186.4,366.9c2.6,0,4.7-2.1,4.7-4.7c0-2.7-2.1-4.8-4.8-4.8c-2.6,0-4.7,2.2-4.7,4.9
		C181.6,364.8,183.7,366.9,186.4,366.9z M499.3,526.8c-0.1-1.4-0.6-2.1-1.8-2.2c-1.1-0.1-1.6,0.4-1.7,1.5c-0.5,5.5-1,11-1.5,16.4
		c-0.1,0.9,0,1.7,1.1,1.9c1.1,0.1,1.6-0.6,1.7-1.6C497.9,537.6,498.6,532.2,499.3,526.8z M260.5,466.1c0,0.1-0.1,0.2-0.1,0.3
		c-1.8,0-2.7,0.5-2.9,1.6c-0.2,1.1,0.5,2.2,2,2.7c1.5,0.5,3.2,0.7,4.8,0.9c1,0.1,1.9-0.4,2.2-1.5c0.3-1.1-0.3-2-1.2-2.4
		C263.7,467.1,262,466.7,260.5,466.1z M494.8,547.6c-1.6,0-2.7,1.3-2.6,3.1c0,1.3,0.9,2.1,2.2,2.1c1.5,0,2.6-1.3,2.6-3
		C497,548.3,496.2,547.5,494.8,547.6z M446.4,530.3c-1.1,0-2.5,1.4-2.7,2.8c-0.2,1.1,0.3,2,1.3,2.4c1,0.3,1.9,0.1,2.5-0.9
		c0.3-0.5,0.5-1.1,0.8-1.6C449,531.7,447.5,530.4,446.4,530.3z M393.3,269.1c0.4,0.8,0.8,1.5,1.3,2.2c0.1,0.2,0.7,0.2,0.8,0.1
		c0.2-0.2,0.3-0.6,0.3-0.9c-0.2-1.9-2-3.4-3.9-3.4c-0.3,0-0.8,0.2-0.9,0.4c-0.1,0.2,0.1,0.8,0.3,0.9
		C391.9,268.7,392.6,268.9,393.3,269.1z"/>
	<path class="st1" d="M113.2,549.5c0.6-2.1,1.2-4.2,1.6-6.3c1.2-5.7,2.5-11.5,2.6-17.4c0-1.2,0.7-1.9,1.7-1.9c1,0,1.7,0.7,1.5,2
		c-0.5,4.2-0.9,8.5-1.6,12.7c-0.5,3.2-1.3,6.4-2,9.6c-0.3,1.6-0.2,1.9,1.6,1.8c4.4-0.2,8.8-0.6,13.2-1.6c0.6-0.1,1.3,0.2,2,0.4
		c-0.2,0.7-0.2,1.5-0.6,2c-0.7,0.9-1.7,1.4-3.1,1.1c-0.9-0.2-1.9,0.3-2.8,0.3c-4,0.3-8,0.7-11.9,0.8c-0.7,0-1.4-0.8-2.2-1.2
		C113.2,551.1,113.2,550.3,113.2,549.5z"/>
	<path class="st1" d="M296.8,237.2c1.9,0.5,3.6,1.3,4.8,3c1.9,2.7,2.4,5.6,1.2,8.6c-1.3,3.6-4.3,5.3-8.6,4.9c-3.2-0.2-6.1-3-6.8-6.3
		c-1-4.6,1.6-9.6,6.7-10c0.1,0,0.2-0.1,0.3-0.2C295.2,237.2,296,237.2,296.8,237.2z M299.7,247.3c-0.1-2.1-1-4.5-2.9-6.5
		c-1-1.1-2.1-1.7-3.6-1.1c-1.5,0.6-1.8,1.8-1.9,3.2c-0.1,2.9,0.9,5.5,2.9,7.6c0.5,0.6,1.3,1,2,1.2
		C298.5,252.1,299.8,250.7,299.7,247.3z"/>
	<path class="st2" d="M402.9,367.4c0,53.6-43.3,97.6-97.5,97.6c-53.7,0-97.4-43.2-97.5-97.4c-0.1-54,43.7-97.6,97.6-97.6
		C359.4,270,402.8,313.7,402.9,367.4z M390.7,367.5c0.3-46.8-38.2-85.3-85.1-85.4c-46.9-0.1-85.5,38-85.6,85.3
		c-0.1,47.3,38.4,85.4,85.2,85.5C352.5,452.9,390.9,414.2,390.7,367.5z"/>
	<path class="st1" d="M354.9,545.7c-1.8-0.4-3.5-0.7-5.3-1.1c-0.6,1.2-1.2,2.8-2.1,4.1c-0.9,1.3-2.1,2.7-3.4,3.6
		c-2.5,1.8-5.4,0.8-6.6-2c-0.9-2-1.1-4.1-0.8-6.2c0.4-2.7,0.9-5.4,1.8-8c1.6-4.7,3.8-9.1,6.9-13c0.7-0.9,1.5-1.6,2.5-2.2
		c1-0.7,2.2-0.5,2.6,0.2c0.5,0.7,0.2,2.2-0.6,2.8c-0.3,0.3-0.7,0.6-1.1,0.7c-1.2,0.3-1.9,1.1-2.5,2.1c-3.4,5-5.6,10.5-6.5,16.5
		c-0.2,1.7,0,3.6,0.4,5.3c0.4,1.9,1.9,2.2,3.3,0.9c1.8-1.7,2.9-3.9,3.6-6.3c0.1-0.4-0.2-0.9-0.4-1.2c-0.7-1.1-1.6-2-2.2-3.1
		c-0.3-0.6-0.3-1.7,0.1-2.2c0.4-0.4,1.5-0.5,2.2-0.3c2.2,0.5,3.5,2.2,3.6,4.4c0,0.3,0.1,0.7,0.2,0.9c1.3,1.6,5.4,1.8,6.5-0.1
		c1.5-2.5,3.7-4.3,6.2-5.7c1.5-0.8,3-1.3,4.7-0.5c1.2,0.6,1.4,2,0.3,2.8c-0.3,0.2-1.1,0.3-1.4,0.1c-0.7-0.5-1.4-0.5-2.1-0.1
		c-4.1,2.4-6.9,5.7-7.3,10.6c0,0.5,0.1,1.3,0.5,1.5c0.4,0.2,1.3,0.1,1.6-0.2c1.6-1.3,3.2-2.6,4.5-4.1c1.5-1.8,2.7-3.9,4-5.9
		c0.1-0.1,0.1-0.3,0.2-0.4c0.5-0.8,1.3-1.1,2.2-0.8c0.9,0.4,0.7,1.2,0.5,2c-0.5,1.7-1,3.4-1.4,5.1c-0.2,1.1-0.3,2.2-0.3,3.3
		c0,1,0.6,1.3,1.5,0.9c0.3-0.1,0.6-0.3,0.9-0.6c3-2.8,5.7-5.8,6.9-9.9c0.1-0.3,0.2-0.6,0.4-0.9c0.5-1,1.6-1.3,2.4-0.9
		c0.9,0.4,1.2,1.4,0.6,2.4c-1.2,1.8-1.3,3.8-1.5,6.2c0.3-0.5,0.5-0.8,0.7-1c1.8-2.4,3.5-4.8,5.4-7c0.8-0.9,2-1.5,3.1-1.9
		c2-0.7,3.5,0.4,3.6,2.4c0,1.8-0.4,3.5-0.6,5.3c-0.1,1.1-0.3,2.2-0.3,3.3c0,1.6,0.9,2.1,2.3,1.1c2.4-1.6,4.1-3.9,5.7-6.3
		c3-4.6,6.9-7.8,12.5-8.6c0.3,0,0.7-0.6,0.8-0.9c0.8-2.6,1.4-5.2,2.2-7.7c0.3-0.9,0.7-1.7,1.2-2.5c0.4-0.7,1-1.4,1.8-1
		c0.4,0.3,0.8,1.2,0.7,1.8c-0.2,2.1-0.4,4.1-1,6.1c-0.9,3.5-1.9,6.9-3.1,10.3c-1,2.7-1,5.5-0.8,8.3c0.1,1.2,0.9,1.7,1.9,0.9
		c1.6-1.2,3.2-2.5,4.5-4c1.2-1.4,2.1-3,2.9-4.6c1.1-2.1,2.5-4,4.4-5.5c0.4-0.3,0.8-0.6,1.2-0.8c1.5-0.7,3.1-1,4.4,0
		c1.4,1,1.6,2.6,1.3,4.2c-0.4,2.5-1.9,4.4-3.9,5.7c-1.5,1-3.3,1.7-5,2.4c-0.7,0.3-0.8,0.6-0.7,1.2c0.3,1.9,1.9,3,3.9,2.6
		c1.1-0.3,2.3-0.7,3.3-1.3c2.9-1.7,5.4-3.9,7.2-6.7c0.5-0.7,0.8-1.5,1.2-2.3c0.1-0.3,0.2-0.6,0.4-0.9c0.6-1,2-1.4,2.9-0.8
		c0.9,0.5,1.1,1.7,0.3,2.7c-1.3,1.7-2,3.5-2.3,5.6c-0.1,0.6-0.2,1.2-0.1,1.8c0,1.4,0.7,1.9,2,1.4c0,0,0.1,0,0.1,0
		c4-2.4,7.2-5.6,8.6-10.1c0.1-0.4,0.2-0.9,0.4-1.3c0.4-0.9,1.4-1.2,2.2-0.8c0.9,0.4,0.9,1.2,0.7,2c-0.3,1.5-0.6,3-0.9,4.5
		c0.1,0,0.3,0.1,0.4,0.1c0.3-0.8,0.7-1.7,1-2.5c0.9-2,2-3.9,3.8-5.3c1.4-1.1,2.9-1.6,4.7-0.9c1.1,0.4,1.5,1.2,1.2,2.1
		c-0.3,1.1-1.2,1-2,0.7c-1.5-0.5-2.5,0.3-3.3,1.3c-2,2.4-3.2,5.2-4.1,8.2c-0.4,1.3-0.5,2.8-0.7,4.2c-0.1,1.2-0.5,1.8-1.5,1.8
		c-1,0-1.7-0.7-1.7-1.8c0-2.1,0-4.3,0-6.4c-0.1,0-0.3-0.1-0.4-0.1c-0.3,0.3-0.5,0.7-0.8,0.9c-1.8,1.8-3.6,3.6-5.5,5.3
		c-0.7,0.6-1.7,1-2.7,1.2c-2.5,0.6-4.4-0.8-4.5-3.4c0-0.8,0-1.6,0-2.4c-1.3,1.1-2.4,2.2-3.6,3.1c-2.2,1.6-4.5,3-7.3,3.1
		c-3.2,0.1-5.2-1.4-5.9-4.4c-0.1-0.3-0.1-0.5-0.2-1c-0.3,0.3-0.6,0.5-0.8,0.7c-1.5,1.2-3,2.6-4.6,3.6c-2.7,1.6-4.8,0.5-5.2-2.6
		c-0.1-0.9-0.2-1.9-0.3-2.9c-1,1.2-2,2.5-3.2,3.6c-1.1,1.1-2.4,2.1-3.7,2.8c-3.3,1.7-5.8,0.2-6.2-3.4c0-0.2,0-0.4-0.1-0.7
		c-0.4,0.3-0.6,0.6-0.9,0.8c-0.9,0.6-1.7,1.4-2.6,1.8c-2.7,1.4-4.9,0.2-5.5-2.8c-0.4-2.3,0-4.6,0.5-6.9c0.1-0.7,0-1.4-0.1-2.1
		c-0.6,0.3-1.4,0.5-1.9,0.9c-2.7,2.7-4.7,6-6.4,9.3c-0.2,0.3-0.2,0.8-0.5,0.9c-0.6,0.3-1.3,0.7-2,0.7c-0.8,0-1.1-0.7-1.1-1.4
		c0-1.1,0-2.2,0-3.6c-0.7,0.9-1.3,1.6-1.9,2.2c-1.2,1.2-2.4,2.3-3.7,3.4c-1.1,0.9-2.4,1.2-3.8,0.5c-1.4-0.7-1.7-2-1.7-3.4
		c0-0.9,0.1-1.8,0.2-3.1c-0.4,0.5-0.6,0.8-0.9,1.1c-1.7,1.7-3.3,3.4-5.1,5c-1.3,1.1-3,1.7-4.7,0.8c-1.6-0.9-1.6-2.7-1.5-4.3
		C354.5,547.6,354.8,546.6,354.9,545.7z M412.6,536.6c-0.2,0-0.4,0-0.6,0c-5.4,0.8-10.4,6.1-10.7,11.5c0,0.7,0.3,1.8,0.8,2.1
		c0.5,0.3,1.6,0.1,2.2-0.3C408.7,546.5,412.4,542.7,412.6,536.6z M425.6,543.8c2-0.3,4.1-1.4,5.4-3.1c0.6-0.8,1.1-1.7,1.4-2.7
		c0.2-0.5,0-1.3-0.4-1.6c-0.4-0.2-1.2-0.1-1.6,0.2C428.1,538.4,426.7,540.9,425.6,543.8z"/>
	<path class="st1" d="M220.9,535c-0.6,0.2-1,0.4-1.4,0.4c-0.6,0-1.4,0.1-1.9-0.2c-0.3-0.2-0.5-1.1-0.3-1.5c0.2-0.5,0.9-0.8,1.3-1.1
		c0.2-0.1,0.5-0.2,0.7-0.1c2,0.4,2.6-0.8,3.1-2.4c0.5-1.7,1.4-3.2,2.2-4.8c0.5-0.9,1.2-1.7,2.4-1.5c0.4,0.1,1,0.5,1.1,0.8
		c0.3,1.1,0.1,2.3-0.9,2.9c-1.8,1.1-2,3.1-2.9,5.1c1.7,0,3.1,0,4.5,0c0.8,0,1.7,0,1.7,1.1c0,1-0.8,1.4-1.7,1.4c-1.6,0-3.3,0-5,0
		c-1.2,3.4-1.9,6.9-2.2,10.4c-0.2,2.2-0.2,4.4-0.3,6.6c0,1-0.4,1.8-1.4,1.9c-1.2,0.1-1.5-0.7-1.5-1.7c0-1.7,0-3.5,0-5.3
		c-0.8,0.8-1.5,1.7-2.3,2.4c-1,0.9-2.1,1.7-3.3,2.3c-2.3,1-4.1,0.1-4.9-2.3c-0.7-2.2-0.3-4.4,0.1-6.6c0.1-0.6,0.4-1.2,0.4-1.7
		c0-0.4,0-1.1-0.2-1.2c-0.4-0.1-1,0-1.3,0.2c-0.6,0.5-1.3,1-1.7,1.7c-1.9,2.9-3.8,5.8-5.6,8.8c-0.5,0.8-0.9,1.3-1.9,1.2
		c-0.9,0-1.5-0.5-1.6-1.4c0-1.1,0-2.2,0-3.4c-0.1-0.1-0.2-0.2-0.3-0.3c-0.1,0.3-0.2,0.6-0.4,0.8c-1.6,1.6-3.2,3.3-5,4.8
		c-1.1,0.9-2.4,1.2-3.8,0.5c-1.3-0.7-1.6-2-1.6-3.4c0-0.9,0.1-1.9,0.2-3c-1.2,1.4-2.2,2.7-3.4,3.8c-1.2,1.1-2.4,2.1-3.8,2.8
		c-2.6,1.3-4.5,0.2-4.9-2.6c-0.1-1.1,0-2.3,0-3.5c-1.1,0-2.3,0.2-3.4-0.1c-1.1-0.2-2.1-0.9-3.2-1.4c-0.5,0.9-0.9,2-1.5,3
		c-0.9,1.4-1.8,2.8-3,3.8c-2.1,1.9-4.5,1.4-5.6-1.3c-0.6-1.4-0.7-3-0.9-4.5c-0.1-0.4,0-0.8,0-1.3c-1.8,1.7-3.3,3.3-5.1,4.8
		c-2.2,1.8-4.6,3.2-7.6,3.3c-3.2,0.1-5.2-1.5-5.8-4.7c-1-5,2.2-11.9,6.6-14.3c0.4-0.2,0.8-0.4,1.2-0.5c3-0.8,5.2,1.1,4.8,4.2
		c-0.3,2.1-1.3,3.7-2.8,5.2c-1.7,1.7-3.8,2.8-6.1,3.4c-0.9,0.2-1,0.6-0.8,1.4c0.4,1.9,2,3,4,2.4c1.3-0.4,2.6-0.9,3.7-1.6
		c3-1.8,5.5-4.3,7.4-7.3c0.5-0.8,0.6-1.8,0.8-2.7c0.3-1.3,1.3-2,2.5-1.6c1.3,0.4,1.7,1.3,1.1,2.6c-1.4,3-0.8,6-0.5,9.1
		c0.1,0.4,0.5,1.1,0.8,1.2c0.4,0.1,1.1-0.3,1.3-0.6c1.2-2.1,2.4-4.3,3.5-6.5c0.2-0.5,0-1.2-0.1-1.8c-0.2-1.8-0.1-3.6,1-5.2
		c0.6-0.8,1.3-1.5,2.4-1.1c1.1,0.3,1.2,1.3,1.1,2.3c-0.2,1.4-0.5,2.8-1,4.2c-0.4,1.1,0,1.7,0.8,2.2c2.1,1.6,4.9,1.1,6.4-1.2
		c1.7-2.7,4-4.8,6.8-6.3c1.4-0.8,3-1.2,4.6-0.4c1.1,0.5,1.4,1.7,0.6,2.6c-0.5,0.6-1,0.8-1.8,0.3c-0.5-0.3-1.4-0.4-1.9-0.2
		c-4.2,2.3-7,5.7-7.5,10.7c-0.1,1.5,0.7,2,2,1.2c1-0.6,2-1.2,2.6-2c2-2.5,3.9-5.2,5.8-7.7c0.1-0.1,0.1-0.2,0.2-0.3
		c0.6-1.1,1.6-1.7,2.4-1.2c1.1,0.6,0.6,1.6,0.4,2.4c-0.4,1.7-1,3.3-1.3,5c-0.2,1-0.3,2-0.2,3c0,1.1,0.6,1.4,1.6,0.9
		c0.3-0.2,0.6-0.4,0.9-0.6c3-2.8,5.7-5.8,6.8-9.8c0.1-0.3,0.2-0.5,0.3-0.8c0.5-1,1.6-1.4,2.5-1c0.8,0.4,1.2,1.4,0.6,2.4
		c-1,1.6-1.2,3.3-1.4,5.1c0,0.3,0,0.5,0,0.9c1.2-1.8,2.3-3.6,3.6-5.2c1-1.3,2.2-2.5,3.5-3.6c0.5-0.5,1.2-0.8,1.9-1
		c2.1-0.7,3.7,0.3,3.9,2.5c0.1,1.4-0.3,2.8-0.5,4.1c-0.2,1.4-0.5,2.8-0.5,4.3c0,1.8,1,2.3,2.4,1.1c1.8-1.7,3.5-3.6,5.1-5.5
		C220.2,540.7,219.9,537.8,220.9,535z M140,543.7c2.7-0.2,6.3-3.2,6.8-5.5c0.1-0.3,0.1-0.6,0.1-1c0-0.9-0.6-1.2-1.4-0.9
		c-0.4,0.1-0.8,0.3-1,0.6C142.4,538.7,141,541,140,543.7z"/>
	<path class="st3" d="M200.5,420.7c2.2,0.3,4,1.2,5.3,2.9c1.4,1.9,1.6,3.8,0.1,5.9c0.6,0.2,1,0.4,1.4,0.5c1.9,0.6,3.3,1.7,4.3,3.4
		c1.3,2.5,0.8,4.8-1.7,6.3c-1.9,1.2-3.9,2.1-5.7,3.3c-0.8,0.5-1.4,1.3-1.9,2c-0.6,1-1.4,1.4-2.2,0.7c-2.3-1.8-3.7-4.2-4.1-7.2
		c-0.1-1,0.5-1.4,1.5-1.5c3-0.1,5.3-1.9,7.4-3.7c0.3-0.3,0.4-1.4,0.1-1.8c-0.3-0.4-1.3-0.8-1.7-0.6c-2.5,1.2-5.2,2.1-6.7,4.8
		c-0.4,0.8-1.1,0.9-1.8,0.5c-0.4-0.2-0.9-0.5-1.1-0.9c-1.2-1.9-2.4-3.9-3.4-5.9c-0.2-0.4-0.1-1.3,0.2-1.7c0.3-0.3,1-0.3,1.6-0.3
		c0.6-0.1,1.4,0,1.9-0.2c1.3-0.6,2.5-1.3,3.7-2c0.5-0.3,1.2-0.7,1.4-1.2c0.3-0.5,0.4-1.3,0.2-1.8c-0.2-0.4-1.2-0.7-1.6-0.5
		c-2.4,1.1-5,2-6.6,4.3c-0.7,0.9-1.5,1.1-2.3,0.3c-2-1.8-3.4-4.1-4.1-6.8c-0.3-1.2,0.4-1.8,1.7-1.6c0.9,0.1,2,0,2.9-0.3
		c1.3-0.5,2.4-1.2,3.6-1.9c1.1-0.6,2.1-1.3,2.3-2.8c0.1-0.8,0.9-1.1,1.6-0.7c2.4,1.3,4.3,3.2,5.7,5.5c0.2,0.2-0.2,1-0.6,1.4
		c-0.4,0.4-0.9,0.7-1.4,1C200.5,420.3,200.5,420.5,200.5,420.7z"/>
	<path class="st3" d="M177.7,395.9c0.1-0.8,0.3-2.1,0.6-3.3c0.7-2.4,2.2-4.2,4.7-4.9c2.9-0.8,5.9-1.5,8.8-2.1
		c1.4-0.3,2.6-0.8,3.2-2.3c0.5-1.3,1.8-1.4,2.7-0.3c0.4,0.4,0.7,0.9,0.8,1.4c0.6,2.5,1.2,4.9,1.7,7.4c0.1,0.6,0,1.2-0.1,1.8
		c-0.4,1.3-1.9,1.7-2.7,0.6c-0.8-1-1.7-1.2-2.7-0.9c-2.5,0.5-5,1-7.5,1.6c-3.9,1-5.2,4.9-2.9,8.1c1,1.4,2.3,2,4,1.6
		c3.1-0.7,6.1-1.5,9.2-2.2c1-0.2,1.4-0.8,1.7-1.8c0.2-0.6,0.8-1.5,1.2-1.5c0.6,0,1.5,0.6,1.7,1.1c0.7,2.2,1.2,4.4,1.5,6.6
		c0.1,0.5-0.5,1.4-1,1.8c-0.3,0.2-1.2-0.3-1.7-0.7c-0.7-0.7-1.4-0.9-2.4-0.7c-3.4,0.8-6.9,1.5-10.3,2.2c-2.5,0.5-4.7-0.3-6.4-2.1
		C178.9,404.3,177.9,400.5,177.7,395.9z"/>
	<path class="st3" d="M400.7,433.1c0-0.1,0-0.5,0.1-0.9c0.4-4.7,4-7.3,8.6-6.1c4.9,1.3,8.2,6.3,7,10.9c-0.4,1.8-1.4,3.1-2.9,4.1
		c-1,0.7-1,1.3,0.2,1.7c0.6,0.2,1.4,0.2,2,0.1c1.4-0.3,2.3,0.4,2.1,1.8c-0.4,2.7-4.6,7-7.1,7.6c-1.2,0.2-2-0.4-1.9-1.6
		c0.1-1-0.2-1.8-1-2.4c-2.5-1.8-4.9-3.6-7.4-5.3c-0.6-0.4-1.1-0.5-1.8,0.1c-1.1,1-2.6,0.4-2.6-1.1c0-3,0.8-5.9,2.7-8.4
		C398.9,433.2,399.8,433.3,400.7,433.1z M405.3,433.2c-0.5,0.4-1.4,0.8-1.6,1.4c-0.1,0.5,0.3,1.3,0.8,1.8c1,1,2.2,1.8,3.2,2.6
		c0.6,0.5,1.2,0.9,2,0.3c0.8-0.7,1.1-1.5,0.7-2.5C409.9,435.3,407.1,433.5,405.3,433.2z"/>
	<path class="st3" d="M326.9,481.4c0.6-0.5,1-0.8,1.3-1.1c3.2-2.9,7.4-2.4,9.9,1.1c2.4,3.5,2.4,8.3-0.2,11.5
		c-1.7,2.1-3.8,3.1-6.5,2.7c-0.5-0.1-1,0.1-1.5,0.1c0.1,0.6,0.1,1.2,0.4,1.7c0.2,0.4,0.7,0.7,1.1,0.9c1.4,0.7,1.6,2.1,0.2,2.8
		c-1.2,0.6-2.6,1.1-3.9,1.2c-1.8,0.1-3.7,0-5.4-0.4c-1.9-0.4-2.1-1.6-0.8-3.1c0.4-0.4,0.6-1.2,0.6-1.7c-0.5-3.2-1.1-6.4-1.7-9.6
		c-0.1-0.3-0.6-0.5-1-0.8c-0.5-0.3-1.5-0.6-1.5-1c-0.1-0.6,0.1-1.7,0.6-2c2.1-1.4,4.3-2.6,6.5-3.7
		C325.7,479.4,326.7,479.5,326.9,481.4z M332.1,488.5c-0.1-0.5-0.3-1.6-0.7-2.6c-0.2-0.5-0.5-1.1-0.9-1.4c-0.6-0.3-1.4-0.5-2.1-0.4
		c-0.3,0.1-0.7,1-0.6,1.6c0.1,1.6,0.4,3.2,0.6,4.7c0.1,1,0.7,1.3,1.6,1.2C331.4,491.6,332.1,490.7,332.1,488.5z"/>
	<path class="st3" d="M211.5,458.3c0.3-3.6,0.5-4.2,5.2-3.9c0-0.4,0-0.9,0-1.3c0.1-3.2,2.6-5.3,5.7-4.6c2.9,0.6,5.2,2.1,6.9,4.5
		c1.4,2,2.9,3.6,5.6,3.9c1,0.1,0.9,0.9,0.5,1.6c-0.7,1.1-1.8,1.4-3.1,1.6c-0.5,0.1-1,0.2-1.3,0.6c-1.4,1.7-3.2,2.1-5.3,1.7
		c-2.4-0.5-4.4-1.9-6-3.7c-0.4-0.5-0.9-1.3-1.6-0.6c-0.8,0.7-0.3,1.4,0.2,2c0.7,0.7,1.5,1.2,2.2,1.9c1.2,1.1,2.6,2,3.7,3.2
		c2.1,2.4,1.2,5.5-1.9,6.6c-1.7,0.6-3.5,0.5-5.2-0.2c-3.7-1.5-6.5-4.1-8.5-7.6c-0.2-0.3-0.3-0.6-0.4-0.9
		C207,460,208.4,458.1,211.5,458.3z M223.4,458.3c1.2,0,3.2-2,3.4-3.5c0-0.6-0.2-1.5-0.6-1.7c-0.5-0.3-1.6-0.4-1.9,0
		c-0.9,0.9-1.8,2-2.4,3.2C221.3,457.4,222.2,458.4,223.4,458.3z M212.1,462.7c0,1.7,1.7,3.9,3.5,4.7c0.7,0.3,1.4,0.6,1.9-0.2
		c0.5-0.8-0.1-1.3-0.6-1.8c-1.1-1-2.1-2-3.2-2.9c-0.3-0.3-0.6-0.5-1-0.7C212.5,462.1,212.2,462.5,212.1,462.7z"/>
	<path class="st1" d="M277.8,543.6c-2.4,2.3-4.4,4.6-6.7,6.5c-2.2,1.8-4.7,3-7.6,3c-2.6,0-4.6-1.3-5.1-3.8c-0.4-1.7-0.5-3.7-0.2-5.4
		c0.7-3.7,2.7-6.8,5.7-9.2c0.2-0.2,0.4-0.4,0.7-0.5c1.6-0.9,3.2-1.2,4.8-0.2c1.5,1.1,1.7,2.7,1.3,4.4c-0.6,2.6-2.1,4.5-4.3,5.8
		c-1.4,0.9-3,1.5-4.5,2.1c-0.8,0.3-0.9,0.6-0.8,1.3c0.3,1.6,1.6,2.8,3.2,2.6c1.2-0.1,2.4-0.5,3.4-1.1c3-1.6,5.4-3.8,7.4-6.5
		c0.3-0.4,0.4-1.1,0.3-1.6c-0.1-1.3,0.1-2.4,1-3.3c1.8-1.7,4-2.8,6.4-2.9c1.6-0.1,3.3,0.1,4.8,0.5c1,0.2,1.4,1.1,1.1,2.1
		c-0.2,0.9-1,1.3-1.9,1.3c-0.3,0-0.6-0.2-0.9-0.4c-1.7-1.4-5.8-0.8-7.1,1.1c-0.5,0.8-0.2,1.4,0.5,1.7c1.1,0.5,2.2,0.9,3.3,1.4
		c1.5,0.6,3.1,1.2,4.5,2c2.1,1.3,2.4,3,0.8,4.9c-2.5,3-5.8,4.7-9.7,5.2c-1.7,0.2-2.9-0.5-3.3-1.7c-0.5-1.6,0-4.2,1.2-4.8
		c0.4-0.2,1.1-0.2,1.5-0.1c0.2,0.1,0.2,0.8,0.2,1.3c0,0.8-0.1,1.6-0.1,2.4c0.8,0,1.8,0.2,2.5-0.1c1.6-0.8,3.2-1.7,4.5-2.8
		c1.2-1,0.9-1.8-0.5-2.5C282,545.3,279.7,544.4,277.8,543.6z M261.2,543.7c3-0.7,5.3-2.4,6.5-5.3c0.2-0.6-0.1-1.4-0.1-2
		c-0.6,0.1-1.4,0-1.9,0.3C263.4,538.5,262,540.9,261.2,543.7z"/>
	<path class="st3" d="M286.3,490.2c0-4.6,3.5-8.3,8.3-8.9c2.3-0.3,4.5-0.1,6.5,0.9c2.9,1.5,4.5,3.9,4.7,7.2c0.2,3.3-1.4,5.6-4.1,7.1
		c-3.4,2-6.9,2.3-10.6,0.8C288,496.2,286.2,493.5,286.3,490.2z M298.1,491.4c0.1,0,0.1,0,0.2-0.1c-0.4-1.7-0.7-3.5-1.2-5.2
		c-0.2-0.5-1-1.1-1.5-1c-0.5,0-1.3,0.7-1.4,1.2c-0.4,2.5,0,4.9,1.1,7.2c0.2,0.4,1.1,0.8,1.6,0.7c0.4,0,0.9-0.7,1.1-1.2
		C298.1,492.5,298,491.9,298.1,491.4z"/>
	<path class="st4" d="M409.3,416.4c0.4-2.7,1-5.1,2.7-7.2c1.9-2.5,4-3,6.9-1.8c1.5,0.6,3.1,1.3,4.6,2c0.7,0.3,1.4,0.4,2.1-0.4
		c0.2-0.2,1-0.2,1.3,0c2.2,1.7,2.2,6.5-0.8,7.7c-0.9,0.4-1.1,0.9-0.9,1.7c0.4,2-0.2,3.7-1.3,5.3c-1.2,1.7-2.9,2.3-4.8,1.8
		c-1.9-0.4-2.9-1.9-3.2-3.7c-0.4-2,0.2-3.8,0.9-5.6c0.2-0.6,0.9-1.4,0-1.9c-1.1-0.6-2.2-1.4-3.5-0.6c-0.4,0.2-0.5,1.1-0.5,1.7
		c0,0.5,0.5,1,0.7,1.5c0.3,0.8,0.6,1.6,0.7,2.4c0.1,0.9-0.4,1.8-1.4,2c-1,0.3-1.8-0.2-2.2-1.1C409.9,419,409.6,417.7,409.3,416.4z
		 M421.6,419c0.2-0.3,0.8-0.7,0.9-1.2c0.2-0.7-1.5-2-2.5-2c-0.8,0-1,0.6-1,1.2C419,418.1,420,419,421.6,419z"/>
	<path class="st3" d="M379.8,459.9c-0.2,0.9-0.2,1.8-0.6,2.7c-0.4,0.9-1.1,1.5-2.2,1.2c-1-0.2-1.4-1-1.5-1.9c0-0.7,0-1.5,0.3-2.1
		c1-2.8,2.6-5.1,5.1-6.6c2.9-1.8,5.7-1.8,8,1.2c0.9,1.2,1.9,2.3,2.9,3.3c0.6,0.6,1.2,1.1,2.2,0.6c0.2-0.1,0.9,0.2,1.1,0.6
		c1.5,2.5-1,6.7-3.9,6.6c-1,0-1.5,0.3-1.7,1.3c-0.5,2.1-2,3.4-3.9,4.3c-1.7,0.8-3.3,0.5-4.7-0.6c-1.4-1.1-1.8-2.6-1.5-4.3
		c0.4-2.2,1.7-3.7,3.3-5.2c1.4-1.3,1.4-1.4,0-2.7c-0.2-0.2-0.4-0.5-0.7-0.6c-0.6-0.2-1.3-0.5-1.7-0.3c-0.4,0.2-0.6,1-0.8,1.6
		c-0.1,0.3,0,0.6,0,1C379.7,459.9,379.7,459.9,379.8,459.9z M384.6,463.2c0,1.3,0.8,2.3,1.6,2.4c0.4,0,1.1-0.2,1.3-0.5
		c0.7-0.8,0-1.5-0.4-2.1c-0.1-0.1-0.2-0.3-0.3-0.4c-0.4-0.2-1-0.7-1.3-0.6C385,462.3,384.7,463,384.6,463.2z"/>
	<path class="st4" d="M430.8,391.4c-0.5-0.7-0.9-1.4-1.5-1.9c-0.5-0.5-1.2-1.1-0.6-1.7c0.4-0.5,1.3-0.9,1.9-0.9
		c2,0.3,3.3,1.6,4.1,3.3c0.2,0.3,0.2,0.9,0,1.2c-1.6,2.8-1.7,6-2.6,8.9c-0.2,0.8-0.4,1.6-0.6,2.4c-0.5,1.5-1.4,1.7-2.5,0.6
		c-2.2-2.1-4.3-4.2-6.4-6.3c-0.3-0.3-0.5-0.6-0.8-0.7c-0.5-0.3-1.1-0.5-1.6-0.7c-0.1,0.8-0.5,1.6-0.4,2.3c0.1,0.6,0.9,1,1.2,1.6
		c0.2,0.5,0.5,1.2,0.3,1.6c-0.2,0.4-0.9,0.7-1.5,0.8c-1.4,0.1-4-1.8-4.5-3.2c-0.1-0.3-0.1-0.6,0-0.9c0.9-3.2,1.9-6.3,2.8-9.5
		c0.2-0.7,0.3-1.4,0.5-2.1c0.3-1,1-1.1,1.8-0.7c0.5,0.3,0.9,0.6,1.3,1c2.2,2,4.4,4,6.6,6c0.4,0.3,1.1,0.6,1.4,0.5
		C430.3,392.8,430.5,392.1,430.8,391.4z"/>
	<path class="st4" d="M343.6,481.3c0-6.3,6.9-11,12.5-8.4c1.6,0.7,2.9,1.9,3.5,3.6c0.5,1.5,0.1,2.3-1.3,2.8
		c-2.1,0.8-4.2,1.6-6.2,2.4c-1,0.4-1,0.8-0.3,1.5c1,1,3,1.3,4.4,0.5c0.9-0.5,1.6-1.3,2.4-1.9c0.4-0.3,1-0.8,1.3-0.7
		c0.5,0.3,1,0.8,1.3,1.4c0.2,0.4,0,1-0.2,1.4c-1.9,4.7-9.9,8.4-15,3.1C344.5,485.5,343.6,483.4,343.6,481.3z M349.3,477.6
		c0,1.3,0.5,1.6,1.7,1.2c0.3-0.1,0.6-0.2,0.9-0.4c0.4-0.3,1.1-0.7,1.1-1c-0.1-0.5-0.5-1.2-0.9-1.5C350.9,475,349.4,476,349.3,477.6z
		"/>
	<path class="st3" d="M275.8,495.2c-1.2-0.3-2.5-0.5-3.7-1c-2.6-1.1-3.8-3.6-3.1-6.3c0.6-2.3,1.2-4.6,1.9-6.9c0.3-1,0.1-1.4-0.9-1.6
		c-0.6-0.1-1.5-0.6-1.5-0.9c-0.1-1,0.5-1.7,1.6-2c2.4-0.6,4.7-1.5,7.1-2c0.9-0.2,1.9,0.1,2.8,0.2c0.2,0,0.3,0.5,0.4,0.8
		c0,0.1-0.1,0.2-0.1,0.3c-0.7,2.9-0.7,2.8,2.2,3.7c0.6,0.2,1.5,0.6,1.5,0.9c-0.1,0.9-0.4,1.7-0.8,2.6c-0.1,0.2-0.7,0.2-1.1,0.1
		c-0.9-0.2-1.7-0.4-2.5-0.7c-0.7-0.2-1-0.1-1.2,0.6c-0.5,1.8-1.1,3.7-1.5,5.5c-0.4,1.7,0.6,2.7,2.3,2.4c0.6-0.1,1.3-0.4,1.6,0.4
		c0.4,0.9,0.1,1.7-0.6,2.2C279.1,494.7,277.5,495.1,275.8,495.2z"/>
	<path class="st3" d="M244.6,467.4c0.8-0.2,1.3-0.3,1.8-0.4c1.9-0.6,3.7,0,4.6,1.6c0.8,1.4,0.5,3.4-0.8,4.6
		c-1.4,1.3-3.5,1.6-4.9,0.4c-0.7-0.6-1-1.6-1.5-2.5c-0.2-0.3-0.4-0.9-0.6-0.9c-0.4,0-0.8,0.3-1,0.6c-0.8,1.2-1.6,2.5-2.4,3.7
		c-0.4,0.7-0.4,1.4,0.2,2.1c0.6,0.6,1,1.4,0.4,2.3c-0.6,0.8-1.6,0.9-2.4,0.5c-2.7-1.2-5.3-2.7-7.4-4.8c-0.5-0.5-0.8-1.4-0.7-2.1
		c0.1-0.9,1.1-1,1.9-1.1c0.6-0.1,1.2-0.4,1.6-0.9c1.1-1.4,2.1-2.9,3.1-4.4c0.3-0.4,0.2-1.2,0-1.7c-0.6-1.5-0.1-2.5,1.5-2.4
		c2.5,0.2,4.8,1,6.9,2.3c0.6,0.4,0.8,0.8,0.4,1.5C245.1,466,244.9,466.5,244.6,467.4z"/>
	<path class="st5" d="M372.8,266.8c2.2-1.3,4.4-2.6,6.5-4c2.4-1.5,3.6-1.4,5.5,0.7c0.2,0.2,0.3,0.9,0.2,1.1
		c-0.2,0.3-0.7,0.4-1.1,0.5c-0.4,0.1-1,0-1.1,0.3c-2.1,3.1-4,6.2-6.1,9.3c0.1,0,0.3,0,0.4,0c0.2,0.7,0.4,1.4,0.6,2.1c0,0,0,0,0,0
		c-0.1,0.1-0.2,0.2-0.3,0.3c0,0,0,0,0,0c-2.6-0.3-4.5-1.9-6.3-3.6c-0.1-0.1,0-0.8,0.2-1c0.2-0.2,0.8-0.4,1-0.3
		c0.7,0.6,1.2,0.3,1.6-0.3c1-1.5,2-3.1,2.8-4.8c-2.9,1.7-5.8,3.4-8.6,5.1c-0.1-0.1-0.2-0.1-0.4-0.2c0.4-3.4,0.8-6.7,1.2-10.4
		c-0.3,0.3-0.6,0.4-0.7,0.6c-0.9,1.4-1.7,2.8-2.6,4.1c-0.4,0.6-0.5,1.1,0.1,1.7c0.2,0.2,0.4,0.8,0.3,1.1c-0.1,0.2-0.8,0.4-1.1,0.3
		c-1.2-0.6-2.4-1.2-3.5-2c-0.3-0.2-0.3-1-0.4-1.6c0.5,0,1-0.2,1.3,0c0.7,0.3,1.1,0.1,1.4-0.4c1.7-2.8,3.5-5.5,5.2-8.3
		c0.3-0.6,0.4-1-0.1-1.6c-0.3-0.3-0.2-1-0.1-1.4c0-0.1,0.9-0.2,1.2-0.1c1.1,0.5,2.1,1.2,3.1,1.9c0.3,0.2,0.4,0.7,0.4,1.1
		c-0.3,3.2-0.6,6.4-0.9,9.7c0,0.1,0,0.2,0,0.3C372.6,266.9,372.7,266.9,372.8,266.8z"/>
	<path class="st1" d="M192.4,319.4c1.9,2.2,3.8,4.3,5.7,6.5c0.3,0.3,0.5,0.7,0.9,1.3c-3.6,0.3-7,0.6-10.3,0.9c0,0.1,0,0.2-0.1,0.2
		c0.3,0.2,0.6,0.3,0.8,0.4c1.2,0.5,2.5,1,3.7,1.4c0.9,0.3,1.8,0.9,2.4-0.5c0.1-0.2,0.6-0.3,0.8-0.2c0.3,0.1,0.6,0.6,0.6,0.8
		c-0.4,1.5-0.9,2.9-1.5,4.3c-0.1,0.3-0.9,0.3-1.3,0.4c-0.1-0.4-0.3-0.8-0.2-1.1c0.2-0.8,0-1.3-0.8-1.6c-2.9-1.1-5.8-2.2-8.7-3.4
		c-0.8-0.3-1.4-0.4-1.9,0.5c-0.1,0.3-0.9,0.4-1.2,0.3c-0.2-0.1-0.5-0.7-0.4-1c0.4-1.3,0.8-2.5,1.3-3.7c0.1-0.2,0.6-0.4,0.9-0.4
		c3.3-0.4,6.6-0.7,10.1-1c-0.9-1-1.7-1.9-2.5-2.7c-1-1.1-2-2.1-3.1-3.2c-1.8-1.9-2-3.4-0.3-5.5c0.2-0.2,0.8-0.4,1.1-0.3
		c0.3,0.1,0.4,0.6,0.6,0.9c0.2,0.4,0.3,1.1,0.7,1.2c3.1,1.3,6.3,2.5,9.5,3.7c0.5,0.2,0.9,0.2,1.2-0.4c0.1-0.3,0.9-0.5,1.2-0.4
		c0.3,0.1,0.6,0.8,0.5,1.1c-0.6,1.9-1.4,3.7-2.2,5.6c-0.1,0.2-0.8,0.4-1,0.3c-0.3-0.2-0.6-0.8-0.5-1c0.3-0.9-0.2-1.2-0.8-1.5
		c-1.6-0.6-3.2-1.2-4.8-1.8c-0.1,0-0.2,0-0.3,0C192.3,319.2,192.4,319.3,192.4,319.4z"/>
	<path class="st1" d="M236.1,276.9c-3-1.5-6-2.9-9.1-4.4c-0.1,0.1-0.2,0.2-0.2,0.3c1.3,1.6,2.5,3.2,3.9,4.8c0.2,0.2,0.7,0,1.1,0
		c0.4,0,0.8,0.1,1.3,0.1c-0.1,0.4,0,1-0.2,1.2c-0.9,0.9-1.9,1.8-3,2.5c-0.3,0.2-1-0.1-1.6-0.2c0.1-0.4,0.2-0.9,0.5-1.3
		c0.5-0.5,0.5-0.9,0.1-1.5c-2-2.6-4.1-5.2-6.1-7.7c-0.4-0.6-0.9-0.7-1.7-0.4c-0.3,0.1-0.9-0.1-1.3-0.4c-0.1-0.1,0-0.9,0.2-1.1
		c0.9-0.9,1.9-1.7,3-2.4c0.3-0.2,0.8-0.1,1.2,0.1c2.6,1.2,5.1,2.4,7.7,3.6c0.4,0.2,0.7,0.3,1.4,0.6c-0.4-1.7-0.7-3.3-1-4.7
		c-0.3-1.4-0.7-2.8-1-4.2c-0.3-1.5,1.6-4.1,3.2-4.1c0.4,0,0.7,0.6,1.2,1c-1.3,1-0.8,1.8-0.1,2.7c1.8,2.3,3.6,4.6,5.4,6.9
		c0.3,0.3,0.6,0.7,0.9,1c0.4-0.2,0.7-0.5,1.1-0.5c0.3,0,0.8,0.1,0.9,0.3c0.2,0.2,0.2,0.8,0.1,0.9c-1.7,1.4-3.4,2.8-5.1,4.1
		c-0.1,0.1-0.8-0.2-0.9-0.5c-0.1-0.3,0-0.7,0.1-1.1c0.1-0.4,0.5-0.9,0.3-1.2c-1.1-1.6-2.3-3-3.4-4.5c-0.1,0.1-0.2,0.1-0.3,0.2
		c0.6,3.2,1.2,6.4,1.9,9.7C236.4,276.8,236.3,276.9,236.1,276.9z M234.6,266.7L234.6,266.7L234.6,266.7L234.6,266.7z"/>
	<path class="st3" d="M369.1,481.5c-1.5,0-2-0.9-1.5-2.1c0.2-0.6,0.3-1.5,0-2c-1.7-3.2-3.5-6.3-5.3-9.4c-0.5-0.9-1.4-1.3-2.5-1.4
		c-1.7-0.1-2.4-1.3-1.5-2.7c1.4-2.4,3.6-4.2,6-5.6c0.3-0.2,1.2,0.1,1.5,0.4c0.5,0.4,0.7,1.1,1,1.6c2.4,4.4,4.9,8.7,7.3,13.1
		c0.5,0.9,1.1,1.4,2.2,1.3c0.9-0.1,1.4,0.6,1.2,1.6c-0.1,0.4-0.3,0.8-0.6,1.1c-2.1,1.9-4.5,3.3-7.2,4.1
		C369.4,481.5,369.2,481.5,369.1,481.5z"/>
	<path class="st6" d="M313.9,546.6c-1.5,1.5-2.9,3.1-4.4,4.5c-0.9,0.8-2,1.5-3.1,1.9c-2.4,1-4.2-0.3-4.4-2.8
		c-0.3-4.2,1.1-7.7,3.9-10.7c1.9-2.1,4-4,6.9-4.5c0.8-0.1,1.8,0.1,2.6,0.4c0.9,0.4,1.2,1.4,0.6,2.2c-0.5,0.8-1.1,1.1-2.1,0.5
		c-0.4-0.3-1.2-0.3-1.7-0.1c-3.7,1.3-7.5,6.8-7.5,10.8c0,1.5,0.6,1.9,1.9,1.2c0.9-0.5,1.7-1.1,2.5-1.9c2.5-2.4,4.5-5.1,6.1-8.1
		c0.1-0.2,0.2-0.5,0.4-0.7c0.6-0.7,1.4-1.1,2.1-0.6c0.4,0.3,0.6,1.2,0.5,1.7c-0.4,2-1.1,3.9-1.5,5.9c-0.2,0.9-0.2,1.9-0.2,2.9
		c0,0.8,0.5,1.2,1.3,0.8c0.7-0.4,1.4-0.8,1.9-1.4c1.7-2.1,3.4-4.2,5-6.4c0.5-0.6,0.8-1.5,1.7-0.9c0.9,0.5,1,1.3,0.5,2.2
		c-1.9,3.4-4.4,6.3-7.5,8.7c-1.2,0.9-2.5,1.3-3.9,0.6c-1.5-0.7-1.7-2.1-1.7-3.6C313.9,548.3,313.9,547.5,313.9,546.6z M314,546.3
		C314,546.3,314,546.3,314,546.3c0.1-0.1,0-0.1,0-0.1C314,546.2,313.9,546.2,314,546.3C313.9,546.3,314,546.3,314,546.3z"/>
	<path class="st1" d="M478.5,546.2c-1.2,1.3-2.2,2.6-3.3,3.8c-1.1,1-2.2,2-3.5,2.7c-3.1,1.7-5.3,0.4-5.4-3.1
		c-0.1-4.1,1.5-7.6,4.3-10.4c1.9-1.9,3.9-3.7,6.6-4.1c0.9-0.1,1.9,0.1,2.7,0.5c0.9,0.4,1,1.4,0.4,2.2c-0.5,0.7-1.1,1-2,0.4
		c-0.4-0.3-1.3-0.3-1.8-0.1c-3.6,1.4-7.3,6.7-7.4,10.6c0,1.7,0.8,2.2,2.1,1.2c1.6-1.2,3.2-2.6,4.5-4.1c1.5-1.8,2.7-3.9,4-5.9
		c0.1-0.2,0.2-0.4,0.3-0.5c0.5-0.7,1.3-1,2.1-0.7c0.9,0.4,0.7,1.2,0.5,1.9c-0.6,2.2-1.1,4.4-1.7,6.6c-0.1,0.4-0.2,0.9-0.1,1.3
		c0.1,0.6,0.2,1.4,0.5,1.5c0.4,0.2,1.2-0.1,1.6-0.4c2.5-1.9,4.3-4.4,6-7.1c0.4-0.7,0.7-1.8,1.9-1.2c0.8,0.4,0.9,1.3,0.2,2.5
		c-1.7,2.9-3.8,5.5-6.5,7.7c-1.4,1.2-2.9,2.2-4.8,1.2c-1.8-1-1.7-2.8-1.6-4.5C478.4,547.5,478.5,546.9,478.5,546.2z"/>
	<path class="st1" d="M229.2,546.2c0.3-4.9,2.4-8.9,6.4-11.9c1.5-1.2,3.8-1.2,5.1-0.3c1.2,0.9,1.7,3,1.1,5c-0.8,2.5-2.5,4.4-4.8,5.6
		c-1.3,0.7-2.7,1.2-4.1,1.7c-0.6,0.2-0.8,0.5-0.7,1.1c0.3,2,2,3.2,4,2.6c1.2-0.3,2.4-0.9,3.5-1.5c2.7-1.7,5-3.8,6.9-6.4
		c0.5-0.7,1.1-1.3,1.9-0.7c0.8,0.6,0.6,1.3,0.1,2c-2.6,3.8-5.8,6.9-10,8.8c-0.6,0.3-1.2,0.4-1.8,0.6c-4.3,1-7.3-1.2-7.6-5.7
		C229.2,546.9,229.2,546.6,229.2,546.2z M232.4,543.5c0.1,0.1,0.2,0.2,0.3,0.4c0.9-0.4,1.9-0.8,2.7-1.3c1.7-1,3.1-2.4,3.6-4.3
		c0.2-0.6-0.2-1.3-0.3-2c-0.6,0.1-1.4,0.1-1.9,0.4C234.8,538.5,233.4,540.9,232.4,543.5z"/>
	<path class="st1" d="M406.4,288.2c-0.2-0.4-0.5-0.8-0.5-1.1c0-0.4,0.1-0.9,0.4-1.2c0.1-0.1,0.8,0,1,0.2c0.8,0.8,1.5,1.6,2.2,2.5
		c0.2,0.3,0.1,0.9,0.2,1.3c-0.5,0-1,0-1.5-0.1c-0.1,0-0.2-0.1-0.4-0.3c-2.1,1.8-4.1,3.6-6.2,5.4c-1.3,1.1-2.6,2.3-3.9,3.4
		c-0.9,0.7-1.4,0.5-1.5-0.6c-0.1-0.8,0-1.6,0-2.4c0.2-3.6,0.4-7.3,0.6-10.9c0-0.2,0-0.4,0-0.8c-2,1.7-3.8,3.2-5.6,4.8
		c0.2,0.3,0.5,0.6,0.6,0.8c0,0.4,0,0.9-0.3,1.2c-0.1,0.2-0.8,0.1-1-0.1c-0.9-0.9-1.8-1.9-2.6-2.9c-0.4-0.5-0.5-1.1,0.2-1.5
		c0.7-0.4,1,0,1.3,0.5c0.1,0.2,0.2,0.3,0.4,0.6c2-1.8,4-3.5,6-5.2c0.6-0.5,1.1-1,1.7-1.5c0.7-0.6,1.2-1.2,0.6-2.3
		c-0.1-0.2,0.2-0.9,0.4-1.2c0.2-0.2,0.8-0.1,1,0.1c1.1,0.9,2.1,1.9,1.9,3.7c-0.5,4.1-0.7,8.3-1.1,12.7
		C402.4,291.7,404.4,290,406.4,288.2z"/>
	<path class="st1" d="M256.9,253.5c0.9,2.5,1.8,4.6,2.7,6.9c0.4-0.1,0.7-0.3,1-0.2c0.4,0.1,0.8,0.3,1,0.6c0.1,0.2-0.1,0.8-0.3,0.9
		c-1.2,0.6-2.4,1.1-3.6,1.5c-0.6,0.2-1.2,0.2-1.3-0.7c-0.1-0.8,0.3-1.1,1-1.1c0.1,0,0.2-0.1,0.5-0.1c-0.1-0.4-0.2-0.7-0.3-1.1
		c-1.1-2.9-2.2-5.7-3.4-8.6c-0.3-0.8-0.7-1.5-1.8-1.3c-0.3,0.1-0.8-0.4-0.9-0.7c-0.1-0.3,0.1-0.9,0.3-1.1c1.3-0.8,2.6-1.3,4.2-0.5
		c3.2,1.6,6.6,3.1,9.9,4.6c0.4,0.2,0.8,0.3,1.5,0.7c-1-2.7-2-5.2-2.9-7.6c-0.4,0.1-0.7,0.2-1,0.1c-0.4-0.1-0.8-0.5-1.2-0.7
		c0.2-0.3,0.4-0.8,0.7-1c1-0.5,2.1-0.9,3.1-1.2c0.3-0.1,0.8,0.1,1.2,0.2c-0.1,0.5-0.3,1-0.5,1.4c-0.1,0.2-0.3,0.2-0.5,0.4
		c1.5,4,3.1,7.9,4.5,11.9c0.2,0.5,0.1,1.1,0.2,1.7c-0.6,0-1.4,0.1-1.9-0.1c-3.7-1.5-7.4-3.1-11-4.6
		C257.8,253.8,257.5,253.7,256.9,253.5z"/>
	<path class="st3" d="M258.1,489.5c-2.6-0.5-5.3-1.7-7.6-3.6c-1.1-0.9-0.7-2.1,0.6-2.7c0.8-0.3,1.7-0.9,2.1-1.6
		c0.9-1.5,1.5-3.2,2.1-4.9c0.2-0.5-0.2-1.1-0.3-1.6c-0.1-0.5-0.5-1.2-0.3-1.6c0.3-0.4,1-0.9,1.5-0.9c2.4,0.3,4.9,0.8,7.3,1.3
		c1,0.2,1.1,0.9,0.7,1.7c-1.3,2.8-2.5,5.7-3.8,8.5c-0.5,1.1-0.7,2.1,0,3.3C261,488.6,260.1,489.5,258.1,489.5z"/>
	<path class="st1" d="M200.4,313.8c-4.6,0-8.6-3.8-8.6-8.1c0-4.5,3.7-8.3,8-8.3c4.6,0,8.8,3.9,8.8,8.3
		C208.5,310,204.7,313.8,200.4,313.8z M198.5,301.6c-0.3,0-0.6,0-1,0c-1.9,0.1-3.1,0.9-3.6,2.3c-0.4,1.3,0.2,2.7,1.8,3.7
		c2.4,1.6,5,2.2,7.9,1.7c1.5-0.3,2.5-1,2.8-2.6c0.3-1.4-0.5-2.3-1.5-3C203.1,302.2,200.9,301.6,198.5,301.6z"/>
	<path class="st5" d="M420.3,317.4c4.5,0,8,3.6,8,8.4c0,4.3-4,8-8.7,8c-4.6,0-8-3.6-8-8.4C411.7,321.2,415.7,317.4,420.3,317.4z
		 M422.6,320.8c-3,0-7.2,3.2-8.1,6.1c-0.6,2.2,0.8,4.2,3,3.9c3.7-0.5,6.4-2.6,8-6C426.4,322.7,425,320.7,422.6,320.8z"/>
	<path class="st1" d="M355.2,249c-1.2,2.7-2.5,5.3-3.6,8c-0.7,1.5-0.3,2.5,1,3.4c0.2,0.2,0.5,0.3,0.7,0.4c3.2,1.8,4.4,1.4,6-1.9
		c1-2.2,2-4.3,3-6.6c-0.5-0.3-1-0.4-1.2-0.8c-0.2-0.3-0.3-0.8-0.3-1.2c0-0.2,0.7-0.4,1-0.3c1.3,0.5,2.6,1.1,3.9,1.7
		c0.5,0.3,1,0.7,0.6,1.4c-0.4,0.7-0.9,0.4-1.4,0.2c-0.2-0.1-0.4-0.1-0.7-0.2c-1,2.1-1.9,4.2-2.9,6.3c-0.3,0.7-0.6,1.3-0.9,1.9
		c-1.4,2.5-3.8,3.5-6.5,2.7c-1.3-0.4-2.6-1-3.8-1.7c-2.8-1.6-3.5-3.7-2.3-6.7c1-2.4,2.2-4.8,3.2-7.2c0.2-0.4,0.3-0.7,0.5-1
		c-0.1-0.1-0.1-0.2-0.1-0.3c-0.5-0.3-1.3-0.4-0.9-1.3c0.4-0.9,1.1-0.6,1.6-0.4c1.9,0.6,3.8,1.3,5.4,2.7
		C356.9,249.3,356.2,249.5,355.2,249z"/>
	<path class="st1" d="M323.3,247.4c-0.2,1.7-0.4,3.4-0.7,5.2c1,0.1,2,0.3,2.9,0.3c1.1,0.1,1.9-0.4,2.5-1.3c0.2-0.3,0.3-0.7,0.6-0.9
		c0.3-0.2,0.7-0.3,1-0.5c0.1,0.3,0.4,0.7,0.3,1c-0.4,1.3-0.9,2.6-1.5,3.9c-0.1,0.2-0.6,0.4-0.9,0.3c-3.2-0.5-6.4-1-9.6-1.5
		c-1.3-0.2-1.6-0.6-1.1-1.5c0.1-0.3,0.5-0.4,0.8-0.6c0.3-0.2,0.9-0.4,1-0.7c0.6-3.6,1.1-7.2,1.6-10.7c-0.3-0.1-0.5-0.2-0.6-0.2
		c-0.8-0.1-1.2-0.7-0.9-1.3c0.1-0.3,0.8-0.6,1.3-0.6c2.5,0.2,5,0.6,7.5,0.9c0.6,0.1,1.3,0.1,1.9,0c0.9-0.2,1.4,0.2,1.5,1
		c0.1,1.1,0.2,2.2-0.6,3.2c-0.9-0.8-1.6-1.7-2.6-2.1c-1-0.4-2.2-0.4-3.4-0.5c-0.2,1.4-0.4,2.8-0.6,4.2c0.5,0.1,0.8,0.2,1.2,0.3
		c0.9,0.2,1.4,0,1.5-1.1c0.1-0.4,0.5-1.2,0.8-1.2c0.8,0,1.2,0.6,1.2,1.4c-0.1,1.6-0.3,3.2-0.6,4.7c-0.1,0.7-0.7,1.2-1.4,0.9
		c-0.3-0.1-0.6-0.8-0.6-1.3C325.7,247.5,325.6,247.4,323.3,247.4z"/>
	<path class="st1" d="M243.2,255.7c0.8,1.4,1.5,2.5,2.2,3.8c0.7-0.4,1.4-0.8,2.2-1.2c-0.2-0.5-0.5-0.9-0.6-1.3c-0.1-0.4,0-0.8,0-1.3
		c0.5,0,1.2-0.1,1.5,0.2c0.7,0.7,1.2,1.5,1.8,2.4c0.4,0.7,0.8,1.5,1,2.3c0.1,0.4-0.3,0.9-0.6,1.3c-0.1,0.1-0.8-0.1-1-0.3
		c-1.3-1.4-1.3-1.4-3.1-0.2c0.8,1.5,1.7,2.9,2.6,4.6c1.1-0.7,2.2-1.2,3-2c0.5-0.5,0.5-1.4,0.7-2.2c0.1-0.4-0.1-0.9,0-1.3
		c0.1-0.3,0.3-0.6,0.5-0.7c0.2-0.1,0.7,0.2,0.7,0.4c0.5,1.4,0.9,2.8,1.3,4.2c0.1,0.2-0.2,0.7-0.5,0.8c-2.8,1.5-5.7,3.1-8.5,4.6
		c-0.8,0.4-1.5,0.8-1.8-0.5c-0.1-0.3,0.1-0.8,0.2-0.9c0.7-0.3,0.6-0.8,0.4-1.3c-1.7-3.1-3.5-6.3-5.2-9.4c-0.4,0.1-0.6,0.3-0.8,0.3
		c-0.5-0.1-0.9-0.3-1.4-0.5c0.2-0.4,0.2-1,0.5-1.1c1.8-1.1,3.7-2.2,5.6-3.3c1-0.6,1.9-1.4,2.9-2c0.3-0.2,1-0.3,1.1-0.2
		c0.7,0.8,1.3,1.6,1.8,2.5c0.3,0.6-0.1,1.1-0.8,0.8C246.4,253,245.1,254.9,243.2,255.7z"/>
	<path class="st1" d="M377.7,276.8c0.1,0,0.3,0,0.4,0.1c1.2,1.1,1.9,0.1,2.5-0.7c2.1-2.4,4.2-4.8,6.3-7.3c-0.3-0.3-0.6-0.5-0.6-0.7
		c0-0.5,0-1,0.2-1.5c0-0.1,0.8-0.1,1.1,0.1c1.6,1.3,3.2,2.8,4.9,4.1c1,0.8,2,1.4,3,2.1c0.3,0.2,0.6,0.7,0.6,0.8c-0.6,1-1.3,2-2,2.9
		c0,0-0.7-0.2-0.8-0.5c-0.2-0.7,0-1.7-0.4-2.2c-0.8-1-1.8-1.7-2.9-2.7c-1,1.1-1.9,2.2-2.9,3.3c0.3,0.3,0.6,0.4,0.8,0.7
		c0.8,0.9,1.4,1,2.2-0.1c0.2-0.3,0.8-0.3,1.2-0.4c0.1,0.5,0.5,1.2,0.3,1.5c-1.1,1.5-2.3,2.8-3.5,4.2c-0.2,0.2-1,0-1.4-0.2
		c-0.1-0.1-0.2-0.7,0-1c0.9-1.7,1-1.7-0.9-3c-1.1,1.3-2.2,2.5-3.4,3.9c0.9,0.7,1.7,1.5,2.5,2.1c0.9,0.6,1.8,0.4,2.7,0
		c0.6-0.3,1.4-0.9,1.9-0.1c0.2,0.3-0.6,1.1-0.9,1.7c-0.2,0.3-0.6,0.5-0.8,0.7c-2,1.4-2,1.3-3.7-0.3c-2-1.8-4-3.6-6.1-5.3
		c-0.8-0.6-1.1-1.2-0.4-2.1c0,0,0,0,0,0C377.6,277,377.6,276.9,377.7,276.8C377.7,276.8,377.7,276.8,377.7,276.8z"/>
	<path class="st5" d="M346.8,246.1c0,2.2-0.8,3.1-2.4,3c-0.9-0.1-1.5-0.4-1.5-1.5c0-1.7-0.6-2.5-1.8-2.8c-1.5-0.4-2.8,0-3.6,1.5
		c-1.2,2.2-1.5,4.4-0.3,6.7c1.1,2,3,2.6,5.1,1.6c0.5-0.2,0.9-0.5,1.4-0.6c1-0.2,1.3,0.2,1,1.2c-0.6,1.8-1.8,2.8-3.7,2.9
		c-3.2,0.3-6-0.3-7.9-3.1c-1.9-2.8-1.5-7.2,0.5-10c2.9-3.9,7.1-4.4,11.2-1.6C346.2,244.3,346.8,245,346.8,246.1z"/>
	<path class="st5" d="M414.6,303.2c4.6-0.2,6.9,3.9,7.4,7c0,0.2,0,0.5,0.1,0.7c0.3,0.6,0.8,1.2,0.1,1.8c-0.9,0.8-1.7,1.7-2.7,2.2
		c-0.9,0.4-1.7-0.5-2.2-1.3c-0.5-0.7,0-1.3,0.5-1.8c0.9-0.8,1.3-1.8,0.8-3c-0.6-1.4-1.7-2-3.2-1.9c-2.6,0.2-5.2,2.5-5.7,5.1
		c-0.4,1.6,0.4,3.1,1.8,3.9c0.2,0.1,0.5,0.2,0.8,0.3c0.8,0.3,1.9,0.5,1.8,1.4c-0.1,0.5-1.3,0.9-2,1.1c-1.4,0.5-2.4-0.4-3.4-1.2
		c-2.3-2-3.8-4.5-3-7.6c0.9-3.4,3.2-5.5,6.6-6.5C413,303.3,413.8,303.3,414.6,303.2z"/>
	<path class="st1" d="M294.7,535c-0.5,0.2-0.8,0.4-1.2,0.4c-0.6,0-1.4,0.1-1.9-0.1c-0.3-0.1-0.5-1-0.4-1.3c0.3-0.5,0.8-0.9,1.3-1.3
		c0.2-0.1,0.6-0.2,0.8-0.2c1.9,0.4,2.5-0.7,3-2.3c0.5-1.7,1.4-3.2,2.2-4.8c0.5-1,1.2-1.8,2.4-1.6c0.5,0.1,1.1,0.5,1.2,0.9
		c0.4,1.2-0.1,2.3-1.1,3c-1.7,1.1-1.9,2.9-2.6,4.9c1.6,0,3,0,4.4,0c0.8,0,1.7,0,1.8,1.1c0.1,0.8-0.8,1.4-1.9,1.4
		c-1.2,0-2.5,0-3.7-0.1c-0.9-0.1-1.3,0.2-1.5,1.1c-1.5,5.1-2.1,10.2-2.1,15.5c0,0.4,0,0.7,0,1.1c-0.1,0.8-0.7,1.3-1.5,1.3
		c-0.8,0-1.3-0.5-1.4-1.2c-0.1-1.7-0.2-3.4,0-5c0.6-3.9,1.3-7.8,2-11.7C294.7,535.8,294.7,535.5,294.7,535z"/>
	<path class="st6" d="M279.4,242.3c0.3,1.2,0.5,2.4,0.8,3.6c0.5,2.3,1,4.5,1.5,6.8c0.2,0.7,0.2,1.3,1.3,1.2c0.3,0,0.7,0.5,0.9,0.9
		c0.1,0.1-0.4,0.7-0.7,0.8c-1.8,0.5-3.7,1-5.6,1.3c-0.3,0.1-1-0.4-1-0.6c0-0.4,0.4-0.8,0.6-1.2c0.2-0.4,0.7-0.8,0.6-1.1
		c-0.8-3.6-1.6-7.1-2.4-10.7c-1.6,0-2.2,0.4-2.6,1.7c-0.1,0.4-0.1,0.9-0.3,1.1c-0.3,0.3-0.7,0.6-1.1,0.7c-0.2,0-0.7-0.5-0.8-0.8
		c-0.2-0.8-0.2-1.6-0.2-2.4c0.1-1.8,0.3-1.8,2-2.1c3.1-0.6,6.2-1.4,9.3-2.3c0.7-0.2,1.1-0.3,1.5,0.4c0.5,0.9,1.1,1.8,1.5,2.7
		c0.2,0.3,0.1,1-0.1,1.2c-0.5,0.4-1.1,0.5-1.7-0.2C281.7,241.8,281.2,241.6,279.4,242.3z"/>
	<path class="st6" d="M200.5,293.5c-1-0.4-1.4-1.1-0.8-1.9c1.2-1.6,2.5-3.1,3.8-4.6c0.1-0.2,0.8-0.2,0.9-0.1
		c0.2,0.3,0.4,0.7,0.4,1.1c0,0.2-0.3,0.5-0.6,0.9c3.1,0.8,6.1,1.6,9,2.4c0.1-0.1,0.2-0.3,0.3-0.4c-1.5-2.6-3-5.2-4.6-7.9
		c-0.5,0.6-0.8,0.9-1.1,1.3c-1.4-0.5-1.5-0.7-0.8-1.9c0.7-1.1,1.5-2,2.4-3c0.5-0.6,1-0.3,1.4,0.1c0.5,0.5,0.2,0.7-0.1,1.2
		c-0.2,0.3-0.2,0.9,0,1.2c1.4,2.8,2.9,5.5,4.3,8.3c0.7,1.3,1.4,2.6,2,4c0.2,0.5,0.2,1.1,0.3,1.6c-0.5,0-1.1,0.2-1.6,0
		c-4.4-1-8.8-2-13.2-3.1C201.5,292.3,200.8,292.2,200.5,293.5z"/>
	<path class="st5" d="M214.4,277.2c-0.3,0.3-0.5,0.6-0.8,0.7c-0.4,0.1-0.9,0-1.1-0.2c-0.2-0.1-0.3-0.8-0.1-1
		c1.6-1.6,3.2-3.1,4.8-4.6c0.2-0.2,0.9,0,1,0.1c0.2,0.3,0.3,1,0.1,1.2c-0.4,0.5-0.6,0.9-0.1,1.4c2.5,2.6,5,5.3,7.5,7.9
		c0.1,0.1,0.2,0.1,0.4,0.2c0.2-0.1,0.4-0.4,0.6-0.4c0.5,0,1,0,1.5,0.1c0,0.4,0.1,1-0.2,1.2c-1.5,1.5-3,2.9-4.5,4.3
		c-0.2,0.2-0.7,0.1-1.1,0.1c0-0.5-0.3-1.1-0.1-1.5c0.3-0.5,0.6-0.9,0.1-1.4c-2.5-2.6-5-5.3-7.5-7.9
		C214.8,277.4,214.6,277.3,214.4,277.2z"/>
	<path class="st5" d="M411.1,294.4c-0.2-0.3-0.5-0.6-0.5-0.9c0-0.3,0.1-0.8,0.3-1c0.2-0.2,0.9-0.2,1-0.1c1.3,1.9,2.5,3.8,3.7,5.8
		c0.1,0.2-0.2,0.8-0.4,0.8c-0.4,0.1-1.1,0.1-1.2-0.2c-0.5-0.8-1-0.5-1.6-0.2c-2.8,1.8-5.6,3.6-8.4,5.3c-0.6,0.4-1,0.7-0.5,1.5
		c0.2,0.3-0.1,0.9-0.4,1.3c-0.1,0.1-0.9,0-1.1-0.3c-1.2-1.7-2.3-3.5-3.3-5.2c-0.2-0.3,0.1-0.8,0.2-1.2c0.5,0.1,1.2,0,1.4,0.3
		c0.5,0.5,0.8,0.6,1.3,0.2c3.1-2,6.2-3.9,9.3-5.9C411,294.6,411,294.5,411.1,294.4z"/>
	<path class="st3" d="M424.3,367.6c-2.6,0-4.8-2.2-4.7-4.9c0-2.5,2.2-4.6,4.8-4.6c2.6,0,4.7,2.1,4.7,4.8
		C429.1,365.5,427,367.6,424.3,367.6z"/>
	<path class="st3" d="M186.4,366.9c-2.7,0-4.7-2-4.8-4.6c0-2.7,2.1-4.9,4.7-4.9c2.7,0,4.8,2.1,4.8,4.8
		C191.1,364.7,189,366.8,186.4,366.9z"/>
	<path class="st1" d="M499.3,526.8c-0.7,5.4-1.4,10.8-2.1,16.1c-0.1,1-0.6,1.7-1.7,1.6c-1.1-0.1-1.2-0.9-1.1-1.9
		c0.5-5.5,1-11,1.5-16.4c0.1-1.1,0.6-1.6,1.7-1.5C498.7,524.7,499.2,525.4,499.3,526.8z"/>
	<path class="st5" d="M260.5,466.1c1.6,0.6,3.2,1,4.8,1.7c0.9,0.4,1.5,1.3,1.2,2.4c-0.3,1.1-1.2,1.6-2.2,1.5
		c-1.6-0.2-3.2-0.4-4.8-0.9c-1.6-0.5-2.2-1.6-2-2.7c0.2-1.1,1.2-1.7,2.9-1.6C260.4,466.3,260.4,466.2,260.5,466.1z"/>
	<path class="st6" d="M494.8,547.6c1.4,0,2.2,0.8,2.2,2.2c0,1.7-1.1,3-2.6,3c-1.3,0-2.2-0.8-2.2-2.1
		C492.1,548.9,493.2,547.6,494.8,547.6z"/>
	<path class="st6" d="M446.4,530.3c1.1,0,2.6,1.4,1.9,2.6c-0.3,0.5-0.5,1.1-0.8,1.6c-0.6,1-1.4,1.2-2.5,0.9c-1-0.3-1.5-1.2-1.3-2.4
		C443.9,531.7,445.3,530.3,446.4,530.3z"/>
	<path class="st6" d="M393.3,269.1c-0.6-0.2-1.4-0.4-2.1-0.7c-0.2-0.1-0.4-0.7-0.3-0.9c0.1-0.2,0.6-0.4,0.9-0.4
		c1.9,0,3.7,1.6,3.9,3.4c0,0.3-0.1,0.7-0.3,0.9c-0.1,0.1-0.7,0.1-0.8-0.1C394.1,270.6,393.7,269.8,393.3,269.1z"/>
	<path class="st7" d="M299.7,247.3c0,3.4-1.3,4.9-3.5,4.3c-0.7-0.2-1.5-0.6-2-1.2c-2-2.1-3-4.7-2.9-7.6c0.1-1.4,0.4-2.6,1.9-3.2
		c1.5-0.6,2.7,0,3.6,1.1C298.7,242.8,299.7,245.2,299.7,247.3z"/>
	<path class="st8" d="M390.7,367.5c0.2,46.7-38.3,85.4-85.4,85.3c-46.8-0.1-85.3-38.2-85.2-85.5c0.1-47.2,38.7-85.3,85.6-85.3
		C352.5,282.1,391,320.7,390.7,367.5z M297.4,308.4c0,0.1,0.1,0.1,0.1,0.1c-2.8,3.8-4.9,7.9-6.3,12.3c1,0.2,2,0.4,2.8,0.5
		c1.4-2.9,2.7-5.8,4.3-8.5c1-1.6,2.3-3.1,3.7-4.3c2.1-1.8,4.5-1.8,6.7-0.1c1.3,1,2.4,2.2,3.3,3.6c2.3,3.2,3.8,6.9,5,10.7
		c0.1,0.3,0.1,0.6,0.2,1c-3.7,0.1-7.2,0.3-10.8,0.4c0.4,0.5,0.8,0.9,1.1,1.4c0.7,1.1,1.7,1.6,3.1,1.6c2.5-0.1,5,0,7.7,0
		c0.9,3.4,1.8,7.2,2.7,10.7c1.1,0.2,1.9,0.4,2.9,0.6c-0.9-4-1.7-7.9-2.5-11.9c0.2,0,0.4-0.1,0.7-0.1c4.2-0.6,8.5-1.2,12.7-1.8
		c0.4-0.1,1,0.3,1.3,0.7c4,5.6,6.9,11.8,8.9,18.5c0.3,0.9,0.5,1.9,0.8,3c-2.1,0.5-4.1,0.9-6.1,1.4c-0.4,0.1-0.8,0.3-1,0.6
		c-0.3,0.5-0.5,1.1-0.8,1.7c-0.3,0.7-0.2,1.1,0.7,1c1.1-0.2,2.1-0.4,3.2-0.7c1.6-0.4,3.1-0.7,5-1.2c0.6,5.4,1.3,10.6,1.9,15.9
		c1.6,0.4,2.8-0.6,2.7-2.4c-0.1-2.2-0.3-4.5-0.6-6.7c-0.3-2.6-0.8-5.1-1.2-7.7c3.8-1.3,7.6-2.8,10.6-5.7c0.1,0.3,0.2,0.4,0.3,0.6
		c2.2,5.1,3.7,10.5,4.4,16c0,0.3,0.1,0.8,0.3,0.9c0.9,0.4,1.9,0.7,2.9,1c-2.6-31.2-29.6-58.3-64.5-57.3c-35.1,1-57.8,28.8-60.7,54.1
		c0.7-0.1,1.3-0.4,2-0.4c0.9,0,1-0.5,1.2-1.2c0.8-3.3,1.7-6.5,2.6-9.7c0.3-1.2,0.9-2.3,1.3-3.3c1.9,1.1,3.5,2.2,5.3,3.1
		c1.8,0.9,3.7,1.5,5.6,2.3c-0.5,3.1-1,6-1.5,9.1c1.1,0.2,2,0.5,3,0.7c0.5-3,1-6,1.5-9c6.3,1.6,12.4,2.7,18.7,3.3
		c-0.2-1.4-1.9-3.2-3.1-3.4c-3-0.5-6.1-0.9-9.1-1.5c-1.9-0.4-3.8-0.9-5.7-1.3c2.1-8,5.3-15.3,10-21.9c0.2-0.3,0.9-0.4,1.3-0.4
		c2.8,0.4,5.5,0.9,8.3,1.3c0.3,0,0.8,0,0.9-0.2c0.6-0.8,1.1-1.6,1.6-2.5c-3.2-0.5-6.3-0.9-9.4-1.4c0-0.1-0.1-0.2-0.1-0.4
		c1.4-1.4,2.8-3,4.3-4.3C286.3,313,291.4,309.9,297.4,308.4z M292.4,326.4c-1.5-0.7,0.2-1.5-0.1-2.4c-0.4,0.1-0.9,0.1-1.3,0.3
		c-1.7,0.6-2.7,1.9-3.3,3.6c-0.2,0.5-0.4,1.3-0.9,1.5c-2,1.2-1.9,2.9-1.5,4.8c0.1,0.5,0.1,1.2-0.2,1.7c-0.6,1.1-1.5,2.1-2.1,3.2
		c-0.6,1.2-1.1,2.5-1.4,3.8c-0.1,0.6,0.4,1.4,0.7,2.4c-0.7,1.3-0.6,1.9,0.8,3.3c0.4,0.4,0.9,0.8,1.3,1.2c0.3,0.3,0.7,0.7,0.8,1.1
		c0.8,2.1,1.5,4.2,2.2,6.3c0.6,1.7,1.6,2.9,3.3,3.6c0.7,0.3,1.3,0.5,2,0.8c2.1,0.9,2.5,1.6,2.3,3.9c-0.3,2.9-0.6,5.9-1,8.8
		c-0.1,0.8-0.1,1.6-0.2,2.4c5.5,2.9,11.3,3.8,17.4,3.4c1-0.1,1.7-0.4,2.5-1.1c1.3-1.1,2.8-2,4.3-2.7c1-0.4,1.4-1,1.5-2
		c0.3-2.7,1.9-4.4,4.6-5c0.8-0.2,1.6-0.3,2.4-0.4c2.7-0.4,3.8-1.6,4.1-4.2c0.1-1,0.1-2,0.2-3c0.1-1,0.1-1.9,0.3-2.9
		c0.3-1.9,1.1-3.5,2.8-4.5c0.6-0.4,1.7-0.9,1.2-1.8c-0.8-1.5-0.3-2.5,0.5-3.7c0.7-1.1,0.2-2.1-0.9-2.7c-0.9-0.4-1.8-1-2.8-1.3
		c-1.1-0.4-2.2-0.8-3.3-0.7c-2,0.1-3.6-0.1-4.9-1.8c-1.1-1.4-2.4-1.5-3.9-0.6c-1.4,0.9-2.7,0.5-4.2,0.1c0.7-0.9,1.3-1.7,2-2.5
		c0.7-0.7,0.7-1.2-0.1-1.9c-0.3-0.3-0.5-0.9-0.6-1.4c-0.5-2.4-1.5-3.3-3.9-3.7c-0.9-0.1-1.8-0.1-2.6-0.3c-0.4-0.1-0.8-0.3-1.1-0.6
		c-0.6-0.5-1.2-1.2-1.8-1.8c-0.9-0.9-1.7-1.9-2.7-2.7c-0.5-0.5-1.3-0.8-2-0.9c-0.7-0.1-1.4,0.1-2.1,0c-1.3-0.2-2.6-0.4-4-0.6
		c-0.9-0.2-1.8-0.6-2.6-0.7c-1.3-0.2-1.6,0.1-1.7,1.5C292.5,326.3,292.4,326.4,292.4,326.4z M312.9,409.9c-9.3,0-15.4-0.7-21.3-2.8
		c-1.6-0.6-3.2-1.5-4.7-2.3c-0.4-0.2-0.6-0.9-0.8-1.3c0.5-0.2,1-0.6,1.5-0.5c1.2,0.1,2.4,0.3,3.5,0.5c6.1,1.3,12.2,2.4,18.5,2
		c3.4-0.2,6.9-0.7,9.8-2.7c4.1-2.7,4.7-7.6,1.6-11.2c-2.2-2.6-5.1-3.6-8.5-3.3c-6.1,0.5-12.1,0-17.9-2.2c-5.5-2.1-10.4-5.3-14.9-9
		c-5.2-4.2-10.8-7.5-17.2-9.5c-6.2-1.9-12.5-2.5-18.9-0.7c-0.9,0.3-1.2,0.7-1.1,1.6c0.3,3,0.3,6,0.7,9c2.3,14.7,8.8,27.3,20,37.3
		c15.4,13.8,33.5,19.1,53.9,15.5c25.5-4.5,45.2-24,50.6-49.2c0.5-2.2,1.1-4.5,0.6-6.9c-1-3.9-4.5-6.4-8-5.4
		c-2.2,0.6-3.8,2.1-4.6,4.2c-0.8,1.9-1.2,3.9-1.6,5.8c-2.1,9.3-7.3,16.4-14.7,22C330.5,407.3,320.5,409.9,312.9,409.9z M320.1,406.9
		c0.2,0,0.4,0,0.6-0.1c6.2-1.4,11.4-4.5,16.5-8.2c7.8-5.6,11.6-13.4,13.4-22.5c0.2-0.8-0.1-1.2-0.8-1.5c-2.5-1.3-5-0.6-6.8,1.9
		c-1.3,1.9-1.9,4-2.2,6.3c-0.6,3.9-2.2,7.3-5.4,9.7c-2.8,2.1-5.8,3.8-8.7,5.7c-0.4,0.3-0.8,0.7-1,1.2c-0.8,1.4-1.3,3-2.2,4.3
		C322.6,404.9,321.3,405.8,320.1,406.9z M326.5,395.5c1.5-0.9,3.1-1.8,4.6-2.8c3.8-2.6,6.3-6,6.4-10.8c0-0.8-0.2-1.1-0.8-1.5
		c-3.3-1.7-7-0.1-7.6,3.7c-0.5,3.1-1.7,5.7-4.7,7.2c-0.1,0-0.1,0.1-0.1,0.1C325,392.7,325.7,394,326.5,395.5z M284.7,358.8
		c0,3.7,0,7.3,0,10.9c0,0.3,0.2,0.7,0.4,0.9c0.8,0.7,1.7,1.3,2.7,2.1c0-3.5,0-6.7,0-9.9c0-0.2-0.1-0.4-0.3-0.6
		C286.6,361.1,285.7,360.1,284.7,358.8z M322.8,389.3c1.5-0.9,2.6-2.1,3.1-3.7c0.2-0.7,0.1-1.1-0.5-1.5c-2.4-1.4-5.7-0.3-6.9,2.3
		C319.9,387.4,321.3,388.3,322.8,389.3z M323,375c2.3,0.3,3.3-0.8,2.9-3.1C323.3,372.2,322.9,372.7,323,375z"/>
	<path class="st9" d="M412.6,536.6c-0.2,6.1-3.9,10-8.3,13.3c-0.5,0.4-1.7,0.6-2.2,0.3c-0.5-0.3-0.8-1.4-0.8-2.1
		c0.3-5.4,5.3-10.7,10.7-11.5C412.2,536.5,412.4,536.6,412.6,536.6z"/>
	<path class="st10" d="M425.6,543.8c1.1-2.9,2.5-5.4,4.8-7.2c0.4-0.3,1.3-0.5,1.6-0.2c0.3,0.2,0.5,1.1,0.4,1.6
		c-0.3,1-0.8,1.9-1.4,2.7C429.6,542.3,427.6,543.5,425.6,543.8z"/>
	<path class="st10" d="M140,543.7c1-2.7,2.4-5,4.5-6.9c0.3-0.3,0.7-0.4,1-0.6c0.8-0.3,1.3,0,1.4,0.9c0,0.3,0,0.6-0.1,1
		C146.3,540.5,142.7,543.5,140,543.7z"/>
	<path class="st9" d="M405.3,433.2c1.7,0.2,4.6,2.1,5.2,3.5c0.4,1,0.1,1.9-0.7,2.5c-0.8,0.6-1.4,0.2-2-0.3c-1.1-0.9-2.2-1.7-3.2-2.6
		c-0.4-0.4-0.9-1.3-0.8-1.8C403.9,434,404.8,433.7,405.3,433.2z"/>
	<path class="st10" d="M332.1,488.5c0,2.2-0.7,3.1-2.1,3.2c-0.9,0-1.5-0.3-1.6-1.2c-0.2-1.6-0.5-3.2-0.6-4.7c0-0.5,0.3-1.5,0.6-1.6
		c0.6-0.1,1.5,0.1,2.1,0.4c0.4,0.2,0.7,0.9,0.9,1.4C331.7,486.9,331.9,488,332.1,488.5z"/>
	<path class="st9" d="M223.4,458.3c-1.2,0-2.1-1-1.6-2.1c0.6-1.2,1.4-2.3,2.4-3.2c0.3-0.3,1.4-0.3,1.9,0c0.4,0.3,0.7,1.2,0.6,1.7
		C226.6,456.4,224.6,458.3,223.4,458.3z"/>
	<path class="st11" d="M212.1,462.7c0.1-0.2,0.4-0.6,0.6-1c0.3,0.2,0.7,0.5,1,0.7c1.1,1,2.1,2,3.2,2.9c0.6,0.5,1.1,1,0.6,1.8
		c-0.5,0.8-1.3,0.5-1.9,0.2C213.8,466.5,212.1,464.4,212.1,462.7z"/>
	<path class="st10" d="M261.2,543.7c0.9-2.8,2.2-5.2,4.5-7c0.4-0.3,1.2-0.2,1.9-0.3c0.1,0.7,0.3,1.5,0.1,2
		C266.5,541.3,264.2,542.9,261.2,543.7z"/>
	<path class="st10" d="M298.1,491.4c-0.1,0.6,0,1.2-0.2,1.6c-0.2,0.5-0.7,1.1-1.1,1.2c-0.5,0.1-1.4-0.3-1.6-0.7
		c-1-2.3-1.5-4.7-1.1-7.2c0.1-0.5,0.9-1.2,1.4-1.2c0.5,0,1.4,0.6,1.5,1c0.5,1.7,0.8,3.5,1.2,5.2
		C298.2,491.3,298.1,491.3,298.1,491.4z"/>
	<path class="st10" d="M421.6,419c-1.6,0-2.6-0.9-2.6-2c0-0.6,0.1-1.2,1-1.2c1.1,0,2.7,1.2,2.5,2C422.3,418.3,421.8,418.7,421.6,419
		z"/>
	<path class="st11" d="M384.6,463.2c0.2-0.2,0.4-0.8,0.9-1.1c0.2-0.1,0.8,0.3,1.3,0.6c0.1,0.1,0.2,0.2,0.3,0.4
		c0.4,0.7,1.1,1.3,0.4,2.1c-0.3,0.3-0.9,0.5-1.3,0.5C385.3,465.5,384.6,464.5,384.6,463.2z"/>
	<path class="st11" d="M349.3,477.6c0-1.5,1.5-2.5,2.7-1.7c0.5,0.3,0.9,1,0.9,1.5c0,0.3-0.6,0.7-1.1,1c-0.2,0.2-0.6,0.2-0.9,0.4
		C349.8,479.2,349.3,478.9,349.3,477.6z"/>
	<path class="st0" d="M372.8,266.8c-0.1,0-0.1,0.1-0.2,0.1c0-0.1,0-0.2,0-0.3C372.6,266.7,372.7,266.8,372.8,266.8z"/>
	<path class="st0" d="M377.7,276.8c-0.1,0.1-0.2,0.2-0.3,0.3C377.6,277,377.6,276.9,377.7,276.8z"/>
	<path class="st0" d="M192.4,319.4c0-0.1-0.1-0.1-0.1-0.2c0.1,0,0.2,0,0.3,0C192.5,319.2,192.5,319.3,192.4,319.4z"/>
	<polygon class="st0" points="234.6,266.7 234.5,266.7 234.6,266.7 	"/>
	<path class="st0" d="M314,546.3C314,546.3,313.9,546.3,314,546.3c0-0.1,0-0.1,0-0.1C314,546.2,314.1,546.2,314,546.3
		C314,546.3,314,546.3,314,546.3z"/>
	<path class="st10" d="M232.4,543.5c1-2.6,2.3-5,4.6-6.8c0.4-0.4,1.2-0.3,1.9-0.4c0.1,0.7,0.4,1.4,0.3,2c-0.6,1.9-2,3.3-3.6,4.3
		c-0.9,0.5-1.8,0.9-2.7,1.3C232.6,543.8,232.5,543.7,232.4,543.5z"/>
	<path class="st7" d="M198.5,301.6c2.4,0,4.6,0.6,6.5,2.1c0.9,0.7,1.8,1.6,1.5,3c-0.4,1.5-1.4,2.3-2.8,2.6c-2.9,0.5-5.5-0.1-7.9-1.7
		c-1.6-1.1-2.2-2.4-1.8-3.7c0.4-1.4,1.7-2.2,3.6-2.3C197.9,301.5,198.2,301.6,198.5,301.6z"/>
	<path class="st9" d="M422.6,320.8c2.3,0,3.8,1.9,2.8,4c-1.5,3.4-4.3,5.4-8,6c-2.1,0.3-3.6-1.7-3-3.9
		C415.4,324,419.6,320.8,422.6,320.8z"/>
	<path class="st12" d="M312.9,409.9c7.6,0,17.6-2.5,26.2-9c7.5-5.6,12.7-12.8,14.7-22c0.4-2,0.9-4,1.6-5.8c0.8-2.1,2.4-3.6,4.6-4.2
		c3.5-0.9,7,1.5,8,5.4c0.6,2.4-0.1,4.6-0.6,6.9c-5.3,25.3-25.1,44.8-50.6,49.2c-20.3,3.6-38.5-1.7-53.9-15.5
		c-11.1-10-17.7-22.5-20-37.3c-0.5-3-0.5-6-0.7-9c-0.1-0.9,0.2-1.3,1.1-1.6c6.4-1.9,12.7-1.2,18.9,0.7c6.4,1.9,12,5.3,17.2,9.5
		c4.6,3.7,9.4,6.9,14.9,9c5.8,2.2,11.8,2.7,17.9,2.2c3.4-0.3,6.2,0.7,8.5,3.3c3.2,3.6,2.5,8.5-1.6,11.2c-3,2-6.4,2.4-9.8,2.7
		c-6.3,0.4-12.4-0.8-18.5-2c-1.2-0.2-2.4-0.5-3.5-0.5c-0.5,0-1,0.3-1.5,0.5c0.3,0.5,0.4,1.1,0.8,1.3c1.5,0.9,3.1,1.8,4.7,2.3
		C297.5,409.2,303.6,409.8,312.9,409.9z"/>
	<path class="st13" d="M292.5,326.3c0.1-1.4,0.3-1.7,1.7-1.5c0.9,0.1,1.8,0.5,2.6,0.7c1.3,0.3,2.6,0.5,4,0.6c0.7,0.1,1.5-0.2,2.1,0
		c0.7,0.1,1.4,0.5,2,0.9c1,0.8,1.8,1.8,2.7,2.7c0.6,0.6,1.1,1.2,1.8,1.8c0.3,0.3,0.7,0.5,1.1,0.6c0.9,0.1,1.7,0.1,2.6,0.3
		c2.4,0.4,3.4,1.3,3.9,3.7c0.1,0.5,0.3,1.1,0.6,1.4c0.8,0.7,0.8,1.1,0.1,1.9c-0.7,0.8-1.3,1.6-2,2.5c1.5,0.4,2.8,0.8,4.2-0.1
		c1.5-1,2.8-0.9,3.9,0.6c1.3,1.7,2.9,2,4.9,1.8c1.1-0.1,2.2,0.4,3.3,0.7c1,0.3,1.9,0.9,2.8,1.3c1.1,0.5,1.6,1.6,0.9,2.7
		c-0.8,1.2-1.3,2.2-0.5,3.7c0.5,0.9-0.6,1.4-1.2,1.8c-1.7,1.1-2.5,2.7-2.8,4.5c-0.1,0.9-0.2,1.9-0.3,2.9c-0.1,1-0.1,2-0.2,3
		c-0.3,2.6-1.4,3.8-4.1,4.2c-0.8,0.1-1.6,0.3-2.4,0.4c-2.7,0.6-4.3,2.2-4.6,5c-0.1,1-0.5,1.5-1.5,2c-1.5,0.7-3,1.7-4.3,2.7
		c-0.8,0.6-1.5,1-2.5,1.1c-6.1,0.4-11.9-0.5-17.4-3.4c0.1-0.8,0.1-1.6,0.2-2.4c0.3-2.9,0.6-5.9,1-8.8c0.2-2.2-0.2-3-2.3-3.9
		c-0.7-0.3-1.3-0.5-2-0.8c-1.7-0.7-2.7-1.9-3.3-3.6c-0.7-2.1-1.5-4.2-2.2-6.3c-0.2-0.4-0.5-0.8-0.8-1.1c-0.4-0.4-0.9-0.8-1.3-1.2
		c-1.4-1.4-1.5-1.9-0.8-3.3c-0.3-1-0.8-1.8-0.7-2.4c0.3-1.3,0.8-2.6,1.4-3.8c0.6-1.1,1.5-2.1,2.1-3.2c0.3-0.5,0.3-1.2,0.2-1.7
		c-0.4-1.9-0.4-3.6,1.5-4.8c0.4-0.3,0.7-1,0.9-1.5c0.6-1.6,1.6-2.9,3.3-3.6c0.4-0.2,0.9-0.2,1.3-0.3c0.3,0.9-1.4,1.7,0.1,2.4
		c0.1,0,0.2,0,0.3,0C292.6,326.4,292.6,326.3,292.5,326.3z"/>
	<path class="st14" d="M297.4,308.4c-6,1.5-11.2,4.6-15.7,8.8c-1.5,1.4-2.9,2.9-4.3,4.3c0,0.1,0.1,0.2,0.1,0.4
		c3.1,0.5,6.3,0.9,9.4,1.4c-0.5,0.8-1,1.7-1.6,2.5c-0.2,0.2-0.6,0.3-0.9,0.2c-2.8-0.4-5.5-0.9-8.3-1.3c-0.4-0.1-1.1,0.1-1.3,0.4
		c-4.7,6.6-7.9,13.9-10,21.9c2,0.5,3.8,1,5.7,1.3c3,0.6,6.1,1,9.1,1.5c1.2,0.2,2.9,2,3.1,3.4c-6.3-0.6-12.4-1.7-18.7-3.3
		c-0.5,3-1,6-1.5,9c-0.9-0.2-1.9-0.4-3-0.7c0.5-3.1,1-6,1.5-9.1c-1.8-0.7-3.8-1.4-5.6-2.3c-1.8-0.9-3.5-2-5.3-3.1
		c-0.4,1-0.9,2.1-1.3,3.3c-0.9,3.2-1.8,6.5-2.6,9.7c-0.2,0.8-0.4,1.2-1.2,1.2c-0.7,0-1.3,0.2-2,0.4c2.9-25.3,25.6-53.1,60.7-54.1
		c34.9-1,61.9,26,64.5,57.3c-1-0.3-2-0.6-2.9-1c-0.2-0.1-0.3-0.6-0.3-0.9c-0.7-5.5-2.2-10.9-4.4-16c-0.1-0.2-0.2-0.3-0.3-0.6
		c-3,2.9-6.8,4.4-10.6,5.7c0.4,2.6,0.9,5.1,1.2,7.7c0.3,2.2,0.5,4.5,0.6,6.7c0.1,1.8-1.1,2.8-2.7,2.4c-0.6-5.3-1.2-10.5-1.9-15.9
		c-1.9,0.4-3.4,0.8-5,1.2c-1.1,0.2-2.1,0.4-3.2,0.7c-0.9,0.2-1-0.3-0.7-1c0.2-0.6,0.4-1.2,0.8-1.7c0.2-0.3,0.6-0.5,1-0.6
		c2-0.5,3.9-0.9,6.1-1.4c-0.3-1.1-0.6-2-0.8-3c-2-6.6-4.9-12.8-8.9-18.5c-0.3-0.4-0.9-0.7-1.3-0.7c-4.2,0.5-8.5,1.2-12.7,1.8
		c-0.2,0-0.5,0.1-0.7,0.1c0.8,4,1.7,7.9,2.5,11.9c-1-0.2-1.8-0.4-2.9-0.6c-0.9-3.6-1.9-7.3-2.7-10.7c-2.7,0-5.2-0.1-7.7,0
		c-1.4,0.1-2.4-0.4-3.1-1.6c-0.3-0.5-0.7-0.9-1.1-1.4c3.6-0.1,7.1-0.3,10.8-0.4c-0.1-0.4-0.1-0.7-0.2-1c-1.2-3.8-2.7-7.5-5-10.7
		c-0.9-1.3-2.1-2.6-3.3-3.6c-2.2-1.7-4.6-1.7-6.7,0.1c-1.4,1.2-2.8,2.7-3.7,4.3c-1.6,2.7-2.9,5.6-4.3,8.5c-0.8-0.1-1.7-0.3-2.8-0.5
		c1.4-4.4,3.5-8.6,6.3-12.3c0-0.1,0.1-0.1,0.1-0.2C297.6,308.4,297.5,308.4,297.4,308.4z M271.9,323.8c-1.9-0.5-3.6-1-5.3-1.5
		c-0.3-0.1-0.9,0-1.1,0.2c-5.6,5-10.1,10.8-13.5,17.4c-0.1,0.3,0,0.9,0.2,1.1c2.7,2.6,6.2,3.8,9.7,5
		C264,338,267.2,330.7,271.9,323.8z M338.9,323.8c4.7,6.8,7.9,14.1,10.1,22.2c2.4-1.1,4.6-2.1,6.7-3.2c1-0.5,1.8-1.4,2.6-2.2
		c0.3-0.3,0.3-1,0.1-1.3c-3.4-6.3-7.7-11.8-13-16.6c-0.3-0.2-0.9-0.3-1.2-0.3C342.5,322.8,340.8,323.3,338.9,323.8z M320.5,323.6
		c4.3-0.6,8.5-1.1,13-1.7c-5.7-6.7-12.2-11.5-20.7-13.7C316.7,312.8,318.7,318,320.5,323.6z M268.7,319.8c1.7,0.4,3.2,0.9,4.7,1.1
		c0.3,0.1,0.8-0.3,1-0.6c2.6-3.1,5.4-5.9,8.6-8.3c0.1-0.1,0.2-0.2,0.3-0.3C278.1,313.6,273.4,316.3,268.7,319.8z M327.7,311.9
		c3.1,2.6,6,5.4,8.5,8.5c0.2,0.3,0.6,0.7,0.9,0.7c1.6-0.3,3.2-0.7,5-1.2C337.5,316.4,332.9,313.6,327.7,311.9z"/>
	<path class="st15" d="M320.1,406.9c1.1-1.1,2.4-2,3.3-3.2c0.9-1.3,1.5-2.9,2.2-4.3c0.2-0.4,0.6-0.9,1-1.2c2.9-1.9,5.9-3.6,8.7-5.7
		c3.2-2.4,4.8-5.8,5.4-9.7c0.3-2.2,0.9-4.4,2.2-6.3c1.8-2.5,4.3-3.2,6.8-1.9c0.7,0.3,0.9,0.7,0.8,1.5c-1.8,9.1-5.6,16.9-13.4,22.5
		c-5.1,3.7-10.3,6.8-16.5,8.2C320.5,406.9,320.3,406.9,320.1,406.9z"/>
	<path class="st15" d="M326.5,395.5c-0.8-1.5-1.5-2.8-2.2-4.2c0,0.1,0,0,0.1-0.1c3-1.5,4.2-4.1,4.7-7.2c0.7-3.7,4.3-5.4,7.6-3.7
		c0.6,0.3,0.9,0.7,0.8,1.5c-0.2,4.8-2.6,8.2-6.4,10.8C329.6,393.7,328,394.6,326.5,395.5z"/>
	<path class="st16" d="M284.7,358.8c1.1,1.2,1.9,2.3,2.8,3.3c0.1,0.2,0.3,0.4,0.3,0.6c0,3.2,0,6.5,0,9.9c-1-0.8-1.9-1.4-2.7-2.1
		c-0.2-0.2-0.4-0.6-0.4-0.9C284.7,366.1,284.7,362.5,284.7,358.8z"/>
	<path class="st15" d="M322.8,389.3c-1.5-1-2.9-1.9-4.3-2.8c1.2-2.6,4.5-3.7,6.9-2.3c0.6,0.4,0.8,0.7,0.5,1.5
		C325.4,387.1,324.4,388.4,322.8,389.3z"/>
	<path class="st16" d="M323,375c-0.2-2.4,0.3-2.8,2.9-3.1C326.4,374.2,325.3,375.3,323,375z"/>
	<path class="st8" d="M292.5,326.3c0.1,0,0.1,0.1,0.2,0.1c-0.1,0-0.2,0-0.3,0C292.4,326.4,292.5,326.3,292.5,326.3z"/>
	<path class="st17" d="M271.9,323.8c-4.7,6.8-7.9,14.2-10.1,22.2c-3.5-1.2-7-2.4-9.7-5c-0.2-0.2-0.3-0.8-0.2-1.1
		c3.4-6.7,7.9-12.5,13.5-17.4c0.3-0.2,0.8-0.3,1.1-0.2C268.3,322.8,270,323.3,271.9,323.8z"/>
	<path class="st17" d="M338.9,323.8c1.9-0.5,3.6-1,5.3-1.4c0.4-0.1,1,0,1.2,0.3c5.4,4.7,9.7,10.3,13,16.6c0.2,0.3,0.1,1.1-0.1,1.3
		c-0.8,0.8-1.6,1.7-2.6,2.2c-2.1,1.2-4.4,2.1-6.7,3.2C346.7,338,343.6,330.6,338.9,323.8z"/>
	<path class="st18" d="M320.5,323.6c-1.8-5.6-3.8-10.8-7.7-15.4c8.5,2.2,15,7,20.7,13.7C329.1,322.5,324.8,323,320.5,323.6z"/>
	<path class="st19" d="M268.7,319.8c4.7-3.5,9.4-6.3,14.6-8.1c-0.1,0.1-0.1,0.2-0.3,0.3c-3.2,2.4-6,5.2-8.6,8.3
		c-0.2,0.3-0.7,0.6-1,0.6C272,320.7,270.5,320.3,268.7,319.8z"/>
	<path class="st19" d="M327.7,311.9c5.1,1.7,9.8,4.5,14.4,8c-1.8,0.4-3.4,0.9-5,1.2c-0.2,0-0.6-0.4-0.9-0.7
		C333.7,317.2,330.9,314.4,327.7,311.9z"/>
	<path class="st8" d="M297.4,308.4c0.1,0,0.2,0,0.3,0c0,0.1-0.1,0.1-0.1,0.2C297.5,308.5,297.5,308.4,297.4,308.4z"/>
</g>
</svg>
