<svg xmlns="http://www.w3.org/2000/svg" viewBox="0 0 612 792"><style><![CDATA[.P{fill:#2e82b9}.Q{fill:#2c81b8}.R{fill:#2d82b8}]]></style><path d="M296.8 263.2c1.9.5 3.6 1.3 4.8 3 1.9 2.7 2.4 5.6 1.2 8.6-1.3 3.6-4.3 5.3-8.6 4.9-3.2-.2-6.1-3-6.8-6.3-1-4.6 1.6-9.6 6.7-10 .1 0 .2-.1.3-.2h2.4zm3 10.8c-.2-3.1-1.2-5.7-3.4-7.7-1.7-1.5-4-1-4.7 1-1.2 2.9.9 8.5 3.7 10.1 1.8 1 3.7.2 4.3-1.7 0-.7 0-1.3.1-1.7z" class="P"/><path d="M402.9 393.4c0 53.6-43.4 97.5-97.5 97.5-53.8 0-97.4-43.4-97.5-97.5 0-54.1 43.8-97.6 97.7-97.5 53.8.1 97.2 43.8 97.3 97.5zm-12.2.1c.3-46.8-38.2-85.3-85.1-85.4s-85.5 38-85.6 85.3 38.4 85.4 85.2 85.5c47.3 0 85.7-38.7 85.5-85.4z" fill="#a9abae"/><path d="M200.5 446.7c2.2.3 4 1.2 5.3 2.9 1.4 1.9 1.6 3.8.1 5.9.6.2 1 .4 1.5.6 1.9.6 3.5 1.8 4.4 3.7 1.2 2.4.6 4.6-1.7 6l-5.8 3.4c-.8.5-1.4 1.3-1.9 2-.6 1-1.4 1.4-2.2.7-2.3-1.8-3.7-4.2-4.1-7.2-.1-1 .5-1.4 1.5-1.5 3-.1 5.3-1.9 7.4-3.7.3-.3.4-1.4.1-1.8s-1.3-.8-1.7-.6c-2.5 1.2-5.2 2.1-6.7 4.8-.4.8-1.1.9-1.8.5-.4-.2-.9-.5-1.1-.9l-3.4-5.9c-.2-.4-.1-1.3.2-1.7.3-.3 1-.3 1.6-.3.6-.1 1.4 0 1.9-.2 1.3-.6 2.5-1.3 3.7-2 .5-.3 1.2-.7 1.4-1.2.3-.5.4-1.4.2-1.8s-1.2-.7-1.6-.5c-2.4 1.1-5 2-6.6 4.3-.7.9-1.5 1.1-2.3.3-2-1.8-3.4-4.1-4.1-6.8-.3-1.2.4-1.8 1.7-1.6 1 .1 2.1 0 3-.3 1.2-.4 2.3-1.2 3.5-1.8 1.1-.6 2.1-1.3 2.3-2.8.1-.8.9-1.1 1.6-.7 2.4 1.3 4.3 3.2 5.7 5.5.2.2-.2 1-.6 1.4s-.9.7-1.4 1c-.1-.1-.1.1-.1.3zm-22.9-24.4l.7-3.7c.7-2.5 2.2-4.3 4.8-4.9l8.8-2.1c1.4-.3 2.5-.8 3.1-2.3.5-1.3 1.7-1.4 2.7-.3.3.3.6.7.7 1.1l1.9 8c.1.5 0 1-.2 1.5-.4 1.3-1.8 1.7-2.7.6-.8-1-1.6-1.2-2.7-.9l-7.5 1.6c-3.8 1-5.2 4.7-3 8 1 1.4 2.3 2.1 4 1.8l9.2-2.2c1-.2 1.4-.8 1.7-1.8.2-.6.8-1.5 1.2-1.5.6 0 1.5.6 1.7 1.1.7 2.2 1.2 4.4 1.6 6.6.1.6-.5 1.4-1 1.8-.3.2-1.2-.3-1.7-.7-.7-.7-1.5-.9-2.5-.7-3.3.8-6.7 1.5-10.1 2.1-2.8.5-5.1-.4-7-2.5-2.1-2.5-3.5-6.6-3.7-10.6zM400.7 459c0-.4.1-1 .2-1.7.7-3.8 3.2-5.7 7-5.5 5.4.4 9.7 6.1 8.4 11.1-.4 1.8-1.5 3.1-2.9 4.1-1 .7-1 1.2.1 1.6.6.3 1.5.3 2.1.1 1.4-.3 2.4.5 2 1.8-1.1 3.6-3.6 6.1-7 7.5-1.2.5-1.9-.3-2-1.6-.1-.7-.3-1.7-.8-2.1-2.5-2-5.1-3.8-7.7-5.7-.5-.4-.9-.2-1.5.1-.5.3-1.3.5-1.7.3-.5-.2-1-1-.9-1.5.1-3 .8-5.8 2.6-8.2.3-.1 1.2 0 2.1-.3zm4.7.2c-.6.4-1.3.7-1.6 1.3-.5.7.2 1.3.7 1.8 1.1.9 2.2 1.7 3.3 2.6.7.5 1.3 1 2.1.3s1-1.5.7-2.5c-.6-1.3-3.5-3.2-5.2-3.5zm-78 47.8c.1-.1.5-.4.9-.7 3.2-2.8 7.3-2.3 9.8 1.1 2.5 3.5 2.4 8.3-.1 11.5-1.7 2.1-3.8 3.1-6.5 2.7-.5-.1-1 .1-1.6.1.2.6.2 1.3.5 1.9.2.3.7.5 1 .7 1.3.7 1.5 2 .1 2.7-1.2.6-2.7 1.2-4.1 1.2-1.8.1-3.7-.1-5.4-.5-1.9-.4-2.1-1.7-.8-3.1.4-.4.7-1.2.6-1.7-.5-3.2-1.1-6.4-1.7-9.6-.1-.3-.7-.6-1-.8-.5-.3-1.3-.5-1.5-.9-.2-.5 0-1.5.4-1.8 2.2-2 4.6-3.5 7.6-4 .4-.1 1 .6 1.8 1.2zm.3 4.3l.6 5c.1.7.3 1.4 1.1 1.4.9.1 1.7-.1 2.2-.9.9-1.5.1-5.5-1.4-6.4-.5-.3-1.3-.4-1.9-.2-.2.1-.4.8-.6 1.1zm-116.2-27c.3-3.9.8-4.1 5.1-3.9 0-.4 0-.8.1-1.3.1-3.3 2.6-5.3 5.8-4.6 2.9.6 5.2 2.1 6.8 4.5 1.4 2 2.9 3.6 5.5 3.8.9.1.9.8.6 1.4-.6 1.1-1.7 1.6-2.9 1.6-.8.1-1.3.2-1.8.9-1.3 1.6-3.1 1.8-5 1.4-2.4-.5-4.4-1.9-6-3.7-.4-.5-.9-1.3-1.6-.6-.8.7-.3 1.4.2 2 .7.7 1.5 1.2 2.2 1.9 1.3 1.1 2.7 2.1 3.8 3.3 2 2.3 1.1 5.4-1.8 6.5a6.62 6.62 0 0 1-4.8 0c-4.1-1.5-7.1-4.3-9.1-8-.3-.6-.5-1.4-.6-2.2-.1-2.2 1-3.2 3.2-3h.3zm15.3-3.9c0-1.4-1.5-2.3-2.6-1.3-1 .8-1.8 2-2.4 3.2-.6 1.3.7 2.4 2.1 2 1.3-.4 2.9-2.6 2.9-3.9zm-14.8 8.4c.4 2.2 1.8 3.5 3.4 4.5.7.4 1.5.7 2-.1.6-.8-.1-1.4-.7-1.9-1-.9-2-1.9-3.1-2.9-.3-.3-.6-.5-1-.7-.1.4-.4.8-.6 1.1zm74.3 27.4c0-4.6 3.5-8.3 8.3-8.8 2.8-.3 5.5 0 7.9 1.8 3.8 2.8 5.4 9.7-.5 13.3-3.5 2.1-7.1 2.5-10.9 1-3.2-1.3-4.9-4-4.8-7.3zm11.9 1.2c-.4-1.7-.7-3.5-1.2-5.2-.2-.5-1-1.1-1.6-1.1-.5 0-1.3.7-1.3 1.2-.4 2.4 0 4.9 1 7.1.2.4 1 .8 1.6.8.4 0 .9-.7 1.2-1.1" class="Q"/><path d="M409.3 442.4c.4-2.6 1-5 2.6-7.1 2-2.6 4.1-3.1 7.1-1.8l4.5 1.9c.7.3 1.4.4 2.1-.4.2-.2 1-.2 1.3 0 2.2 1.7 2.2 6.5-.8 7.7-.9.4-1.1.9-.9 1.7.4 2-.2 3.8-1.4 5.4s-2.9 2.2-4.8 1.7c-1.9-.4-2.9-1.9-3.2-3.7-.4-2 .2-3.8.9-5.6.2-.6.9-1.4 0-1.9-1.1-.6-2.2-1.4-3.5-.6-.4.2-.5 1.2-.4 1.8 0 .5.5 1 .7 1.5.3.7.6 1.5.6 2.3 0 .9-.4 1.8-1.4 2-1 .3-1.8-.2-2.2-1.1-.6-1.2-.9-2.5-1.2-3.8zm12.3 2.6c.2-.3.8-.7.9-1.2.2-.7-1.5-2-2.6-2-.8 0-1 .6-.9 1.2 0 1.1 1 2 2.6 2z" fill="#2d81b8"/><path d="M379.8 486c-.2.9-.3 1.8-.6 2.6-.4.9-1.2 1.4-2.2 1.2-.9-.2-1.3-1-1.4-1.9 0-.6 0-1.2.2-1.8.9-3.1 2.7-5.6 5.6-7.2 3-1.6 5.4-1.4 7.6 1.3l3.2 3.6c.5.6 1.1 1 2 .5.2-.1 1 .2 1.2.6 1.4 2.6-1 6.7-3.9 6.6-1.1 0-1.5.3-1.7 1.3-.6 2.2-2.1 3.6-4.2 4.4-3.3 1.2-6.5-1.5-5.8-4.9.4-2.3 1.8-3.9 3.4-5.4 1.2-1.1 1.2-1.2.1-2.5-.2-.2-.4-.5-.6-.6-.6-.2-1.3-.7-1.9-.5-.9.2-.9 1.1-.9 1.9v.7c-.2 0-.2.1-.1.1zm4.8 3.2c0 1.3.7 2.3 1.6 2.4.4 0 1.1-.2 1.3-.5.7-.8 0-1.5-.4-2.1-.1-.1-.2-.3-.3-.4-.4-.2-1-.7-1.3-.6-.5.3-.7 1-.9 1.2z" class="Q"/><path d="M430.8 417.4c-.5-.7-.9-1.4-1.4-1.9s-1.2-1.1-.6-1.8c.5-.5 1.4-.9 2-.8 1.8.3 3.1 1.5 3.9 3.1.2.4.3 1 .1 1.3-1.5 2.5-1.6 5.4-2.4 8.1-.3 1-.5 2-.7 3-.5 1.7-1.4 2-2.7.8l-6.6-6.5-.4-.4c-.5-.3-1.1-.5-1.6-.7-.1.8-.5 1.7-.4 2.4.1.6.9 1 1.2 1.6.2.4.5 1.1.3 1.5s-.8.7-1.3.8c-1.5.2-4.3-1.8-4.7-3.3-.1-.3-.1-.6 0-.8 1.7-3 1.9-6.5 2.8-9.7.2-.6.3-1.2.5-1.7.3-1.1 1-1.4 2-.7.6.4 1.1.9 1.7 1.4l6 5.5c.4.3 1.1.7 1.4.5.4-.4.6-1.1.9-1.7zm-87.2 89.8c0-6.5 7.4-11.1 13-8.1 1.4.8 2.6 1.9 3 3.5.4 1.4 0 2.1-1.3 2.6l-6.2 2.4c-1 .4-1.1.9-.3 1.6 1 .9 3 1.3 4.3.5.9-.5 1.6-1.3 2.4-1.9.4-.3 1.2-.9 1.4-.7.6.4.9 1.1 1.3 1.7.1.2 0 .6-.2.9-1.6 3.6-4.5 5.4-8.2 5.8-3.3.4-6-1-7.7-3.8-.8-1.3-1.2-3-1.8-4.5.1.1.2.1.3 0zm5.5-3.9c.2 1.5.7 1.9 1.9 1.5.3-.1.7-.2 1-.4 1.2-.5 1.4-1.5.4-2.2-.5-.4-1.4-.5-1.9-.3-.6.1-.9.9-1.4 1.4z" fill="#2d81b8"/><path d="M276.3 521.3c-1.5-.4-2.8-.6-4-1.1-2.7-1.1-3.9-3.6-3.1-6.3l1.9-6.9c.3-1 .1-1.4-.9-1.6-.2 0-.3 0-.5-.1-.4-.3-1.1-.7-1-.9.2-.6.5-1.5 1-1.7 2.7-1 5.5-1.8 8.4-2.5.7-.2 1.6.2 2.3.4.2.1.3.7.2 1-.1 1-.7 2.1-.3 2.8.3.6 1.7.6 2.6 1 .5.2 1.5.7 1.4.9-.1.9-.4 1.7-.8 2.6-.1.2-.7.2-1.1.1l-2.7-.7c-.3 0-.9.3-1 .6l-1.6 5.8c-.4 1.6.7 2.5 2.3 2.3.6-.1 1.4-.5 1.8.4s.1 1.8-.7 2.2c-1.5.8-3 1.2-4.2 1.7zm-31.7-27.9l1.8-.5c1.9-.6 3.8.1 4.7 1.7.8 1.4.3 3.4-1 4.6-1.5 1.2-3.6 1.4-4.9.2-.6-.6-.9-1.5-1.4-2.3-.2-.4-.4-.7-.7-1-.3.2-.8.4-1 .7l-2.4 3.8c-.4.7-.4 1.3.1 2 .6.7 1.1 1.5.4 2.4-.7.8-1.7.9-2.5.4l-7-4.5c-.7-.5-1.3-1.2-1-2.3.4-1 1.2-1.1 2.1-1.2.5-.1 1-.3 1.3-.7l3.2-4.6c.3-.4.2-1.2 0-1.7-.6-1.4-.1-2.5 1.5-2.4 2.5.2 4.8 1 7 2.3.6.4.7.9.4 1.5l-.6 1.6z" class="Q"/><path d="M377.5 303.1c-2.6-.3-4.5-1.9-6.3-3.6-.1-.1 0-.8.2-1s.8-.4 1-.3c.7.6 1.2.3 1.6-.3 1-1.5 2-3.1 2.8-4.8l-8.6 5.1c-.1-.1-.2-.1-.4-.2l1.2-10.4c-.3.3-.6.4-.7.6l-2.6 4.1c-.4.6-.5 1.1.1 1.7.2.2.4.8.3 1.1-.1.2-.8.4-1.1.3-1.2-.6-2.4-1.2-3.5-2-.3-.2-.3-1-.4-1.6.5 0 1-.2 1.3 0 .7.3 1.1.1 1.4-.4l5.2-8.3c.3-.6.4-1-.1-1.6-.3-.3-.2-1-.1-1.4 0-.1.9-.2 1.2-.1 1.1.5 2.1 1.2 3.1 1.9.3.2.4.7.4 1.1l-.9 9.7v.3c.1 0 .1-.1.2-.1l6.5-4c2.4-1.5 3.8-1.4 5.6.7.2.2.3.8.2 1-.2.3-.7.4-1.1.6-.4.1-1 0-1.2.3-2.1 3.1-4 6.2-6 9.3h.4l.6 2.1c-.2 0-.2.1-.3.2z" class="R"/><path d="M192.4 345.4l5.7 6.5c.3.3.5.7.9 1.3l-10.3.9c0 .1 0 .2-.1.2.3.2.6.3.9.4l3.7 1.4c.9.3 1.8.9 2.4-.5.1-.2.6-.3.8-.2.3.1.6.6.6.8-.4 1.5-.9 2.9-1.5 4.3-.1.3-.9.3-1.3.4-.1-.4-.3-.8-.2-1.1.2-.8 0-1.3-.8-1.6l-8.7-3.4c-.8-.3-1.4-.4-1.9.5-.1.3-.9.4-1.2.3-.2-.1-.5-.7-.4-1l1.3-3.7c.1-.2.6-.4.9-.4 3.3-.4 6.6-.7 10.1-1-.9-1-1.7-1.9-2.5-2.7-1-1.1-2-2.1-3.1-3.2-1.8-1.9-2-3.4-.3-5.5.2-.2.8-.4 1.1-.3s.4.6.6.9c.2.4.3 1.1.7 1.2 3.1 1.3 6.3 2.5 9.5 3.7.5.2.9.2 1.2-.4.1-.3.9-.5 1.2-.4s.6.8.5 1.1c-.6 1.9-1.4 3.7-2.2 5.6-.1.2-.8.4-1 .3-.3-.2-.6-.8-.5-1 .3-.9-.2-1.2-.8-1.5l-4.8-1.8h-.3c-.3-.3-.2-.2-.2-.1zm40.7-48.6l-.7-3.7-1.2-5.2c-.3-1.5 1.7-4.1 3.2-4 .4 0 .7.6 1.2 1-1.3 1-.8 1.8 0 2.7l5.4 6.9c.3.3.6.7.8 1 .5-.2.8-.5 1.1-.5s.8.1.9.3c.2.2.2.8.1.9l-5.1 4.1c-.1.1-.7-.2-.9-.5s-.1-.9 0-1c1-.6.6-1.2.1-1.8l-3.1-4c-.1 0-.2.1-.3.1l1.9 9.7c-.1.1-.2.2-.3.2l-9.1-4.4c-.1.1-.2.2-.2.3l3.9 4.8c.1.2.7 0 1.1 0s.8.1 1.3.1c-.1.4 0 1-.2 1.2-.9.9-1.8 1.8-2.9 2.5-.4.2-1.1-.1-1.7-.2.1-.4.2-.9.5-1.3.5-.5.5-.9.1-1.5l-6.1-7.7c-.4-.6-.9-.7-1.7-.4-.3.1-.9-.1-1.3-.4-.1-.1 0-.9.2-1.1l2.9-2.4c.3-.2.9-.1 1.3 0l7.7 3.6c.2.2.5.4 1.1.7zm1.5-4.1z" class="P"/><path d="M377.5 502.2c-.2.3-.4.8-.7 1.2-2.1 1.8-4.5 3.2-7.1 4.1-.4.1-1 .1-1.4 0-.9-.3-1.3-.9-.7-1.8.6-.8.5-1.6 0-2.4l-5.2-9.1c-.6-1-1.4-1.5-2.7-1.6-1.6-.1-2.3-1.3-1.5-2.7 1.4-2.5 3.6-4.2 6-5.7.3-.2 1.1.1 1.5.4.4.4.6 1 .9 1.5l7.3 13.1c.5.9 1.1 1.5 2.3 1.3 1 0 1.3.6 1.3 1.7z" class="Q"/><path d="M400.3 319.5l6.1-5.3c-.2-.3-.5-.6-.4-.9 0-.5.2-.9.3-1.4.3.1.8.1 1 .4.7.8 1.5 1.6 2.1 2.5.2.3.2.9.2 1.3h-1.5c-.1 0-.3-.2-.4-.3l-9.5 8.2c-.5.4-1.1.6-1.6.9-.2-.7-.6-1.3-.6-2 .1-3.9.4-7.8.6-11.7v-1.4l-5.6 4.8c.6.8 1.2 1.6-.1 2.3-1.4-.8-2.4-2-3.3-3.3-.3-.5-.4-1 .2-1.4.7-.4 1-.1 1.4.5.1.2.2.3.4.6 2-1.8 4-3.5 6-5.2.5-.5 1.1-1 1.6-1.4.8-.7 1.4-1.3.7-2.4-.1-.2.2-.8.4-1.1.2-.2.8-.2 1 0 1.1.9 2.1 1.9 1.9 3.7-.5 3.8-.7 7.6-1 11.5.1.2.1.6.1 1.1zm-143.3-40l2.6 6.9c.4-.1.7-.3.9-.2.4.1.8.4 1.1.7.1.1-.2.8-.4.9a27.49 27.49 0 0 1-3.6 1.5c-.6.2-1.1.1-1.3-.6-.1-.8.2-1.1 1-1.2.1 0 .3-.1.6-.2l-.3-1-3.4-8.7c-.3-.8-.7-1.4-1.8-1.2-.3 0-.8-.4-1-.7-.1-.3.1-.9.4-1 1.3-.9 2.6-1.3 4.2-.5 3.2 1.6 6.6 3.1 9.9 4.6.4.2.8.3 1.5.6l-2.9-7.6c-.3.1-.7.2-.9.1-.4-.2-.8-.5-1.2-.8.2-.3.4-.8.7-.9 1-.5 2-.8 3-1.1.4-.1.8.1 1.3.2-.2.5-.3 1-.5 1.4-.1.1-.2.2-.4.3l4.4 11.6c.2.6.2 1.3.3 2-.7-.1-1.5 0-2.2-.3-3.6-1.4-7.2-3-10.7-4.4-.5-.1-.8-.2-1.3-.4z" class="P"/><path d="M258.2 515.5c-2.6-.5-5.4-1.7-7.8-3.7-1.1-.9-.6-2.1.7-2.6.8-.3 1.6-.8 2-1.5.9-1.6 1.6-3.3 2.2-5 .2-.4-.1-1.2-.4-1.6-.8-1.3-.3-2.6 1.2-2.5 2.5.3 5 .8 7.5 1.3 1 .2.9.9.5 1.7l-3.9 8.7c-.4.9-.6 1.8-.1 2.7.8 1.6.2 2.5-1.9 2.5z" class="Q"/><path d="M200.4 339.8c-4.6 0-8.7-3.8-8.7-8 0-4.5 3.7-8.4 8.1-8.4 4.6 0 8.7 3.9 8.7 8.2 0 4.4-3.7 8.2-8.1 8.2zm1.5-4.3h.7c2.1-.1 3.4-1 3.8-2.7.3-1.2-.5-2.6-2.2-3.6-2.1-1.3-4.4-1.7-6.8-1.6-1.9.1-3.1 1-3.5 2.4-.4 1.3.2 2.6 1.7 3.6 2 1.3 4.1 1.8 6.3 1.9z" class="P"/><path d="M419.7 359.8c-4.6 0-8-3.6-8-8.4 0-4.2 4-8 8.5-8.1 4.6 0 8.1 3.6 8.2 8.4 0 4.4-4 8.1-8.7 8.1zm3-13c-3 0-7.2 3.2-8.1 6.1-.7 2.2.8 4.2 2.9 3.9 3.7-.5 6.4-2.6 8-5.9.9-2.2-.5-4.2-2.8-4.1z" class="R"/><path d="M362.3 278.4c-.5-.3-1-.5-1.3-.8-.2-.3-.3-.8-.2-1.1.1-.2.7-.5.9-.4 1.4.5 2.7 1.1 4 1.8.5.2.9.6.6 1.4-.4.8-.9.5-1.4.3-.2-.1-.4-.1-.7-.2l-1.9 4.1-1.8 3.9c-1.4 2.7-3.8 3.8-6.7 2.9-1.3-.4-2.6-1-3.8-1.7-2.7-1.6-3.4-3.7-2.2-6.6l3.8-8.4c-.3-.2-.6-.2-.7-.4-.2-.3-.4-.7-.3-1s.6-.6.9-.6c2.2.5 4.3 1.4 6.1 2.8-.6 1.2-.7 1.3-2.2.9l-3.7 8.1c-.5 1.1-.3 2.2.8 2.9s2.4 1.2 3.7 1.7c1 .3 1.9-.1 2.3-1 1.1-3 2.4-5.8 3.8-8.6zm-32.3-8.6c-1.1-2.9-3.5-2.7-5.8-2.9l-.6 4.2 1.3.3c.9.2 1.3-.2 1.4-1.1.1-.5.5-1.2.7-1.2.8 0 1.2.6 1.2 1.3-.1 1.5-.3 3.1-.6 4.6-.1.7-.6 1.3-1.4 1.1-.9-.2-.7-.9-.6-1.4.2-.9-.1-1.3-1-1.3-.4 0-.9-.1-1.4-.2l-.7 5.3 2.6.3c1.3.2 2.3-.3 3-1.5.1-.2.2-.5.4-.6.3-.2.7-.4 1.1-.6.1.4.4.8.3 1.1l-1.4 3.7c-.1.3-.6.5-.9.5l-9.4-1.5c-1.4-.2-1.7-.5-1.2-1.5.1-.3.5-.4.8-.6s.9-.4 1-.7c.6-3.6 1.1-7.2 1.6-10.8-.4-.1-.6-.2-.8-.3-.8-.2-.9-.9-.7-1.4.1-.3.7-.5 1.1-.5l7.5.9c.7.1 1.4.1 2.1 0 .8-.1 1.2.1 1.4.9 0 1.4 0 2.5-1 3.9zm-90.2 14c-.4.1-.5.2-.6.2-.7.5-1.3.1-1.5-.5-.1-.3.3-1 .6-1.2l6.4-3.8c.6-.4 1.2-.9 1.8-1.4.6-.6 1.1-.7 1.6 0s1.1 1.4 1.4 2.2c.3.7-.1 1.2-.8.9-2.3-1.2-3.6.8-5.5 1.5l2.2 3.8c.4-.2.7-.4 1-.5 1.1-.4 1.2-1 .6-1.9-.2-.3 0-.9 0-1.3.5.1 1.4 0 1.6.3 1 1.4 1.8 3 2.6 4.5.1.3-.2.9-.5 1.3-.1.1-.8 0-1-.2-.4-.4-.8-1.3-1.1-1.3-.7.1-1.3.6-2.1 1l2.7 4.7 2.8-1.7c.9-.6 1-1.6.9-2.6 0-.7-.4-1.6.6-1.8.3 0 .9.9 1.3 1.5.2.3.2.7.3 1 .6 2.4.6 2.3-1.5 3.4l-7.3 4.1c-.4.2-1 .8-1.4 0-.3-.6-.7-1.1.3-1.6.2-.1.3-.7.2-.9-2-3.3-3.8-6.5-5.6-9.7zm137.9 19c.1 0 .3 0 .4.1 1.2 1.1 1.9.1 2.5-.7l6.3-7.3c-.3-.3-.6-.5-.6-.7 0-.5 0-1 .2-1.5 0-.1.8-.1 1.1.1l4.9 4.1c1 .8 2 1.4 3 2.1.3.2.6.7.6.9-.5 1-1.2 1.9-1.9 2.7-.1.1-.9-.3-.9-.4.4-2.6-1.8-3.4-3.3-4.9l-2.9 3.3c.3.3.6.5.8.7.8.9 1.4.9 2.2-.1.2-.3.8-.3 1.2-.4.1.5.5 1.2.3 1.5-1.1 1.5-2.3 2.8-3.5 4.2-.2.2-.9 0-1.4-.2-.1-.1-.2-.7 0-1 .9-1.7 1-1.7-.9-3l-3.4 3.9c.6.6 1.2 1.1 1.8 1.6 1 .9 2.1 1.1 3.4.5.6-.3 1.4-.9 1.9-.1.2.3-.6 1.1-.9 1.7-.2.3-.6.5-.8.7-2 1.4-2 1.3-3.7-.3L378 305c-.8-.6-1.1-1.2-.4-2.1 0 .1 0 0 .1-.1z" class="P"/><path d="M331.9 276.2c0-4.1 3-8 6.6-8.5 2.2-.3 4.3.3 6.2 1.7.2.2.5.3.7.4 1.1.4 1.6 1.5 1.3 3.4-.2 1.3-.8 1.9-2.1 2-1.2.1-1.7-.4-1.7-1.6s-.4-2.2-1.6-2.7c-1.4-.5-2.5-.2-3.4.9-1.8 2.3-2.1 5.7.1 8.3 1 1.2 2.7 1.4 4.3.6.8-.4 1.7-1.2 2.3-.4.3.4-.2 1.7-.7 2.4-1.1 1.8-3 1.6-4.7 1.5-4.7-.2-7.3-3.2-7.3-8zm82.3 67.6c-1.7 1.5-3.5 1.5-5.4-.1-2.4-2-4-4.5-3.1-7.7.9-3.4 3.2-5.6 6.6-6.5 5.2-1.3 9.1 1.5 9.8 7 .1.7 1.1 1.4.2 2.2-.8.7-1.5 1.6-2.4 2.1-1 .6-1.8-.2-2.4-1-.6-.7-.3-1.4.3-2 .9-.8 1.4-1.8.8-3-.6-1.4-1.6-2-3-1.9-2.7.3-5.4 2.2-5.9 5.4-.3 1.8.7 3.2 2.6 3.9.8.3 1.7.5 1.9 1.6z" class="R"/><path d="M275.4 269.2c-1.7.1-2.2.5-2.6 2-.1.3-.1.8-.3 1-.3.3-.7.6-1.1.6-.2 0-.6-.4-.7-.7l-.2-2.5c.1-1.8.3-1.7 2-2 3.4-.6 6.8-1.5 10.5-2.3.5.8 1.2 1.9 1.8 3.1.2.3.1 1.1-.2 1.3-.5.4-1.2.4-1.6-.3-.8-1.3-2-1.7-3.5-1.1 0 .4.1.8.2 1.2l2.1 9.1c.2.7.2 1.5 1.4 1.3.2 0 .6.5.8.9.1.2-.3.7-.5.7-1.9.5-3.8 1-5.8 1.4-.3.1-.9-.4-1-.7s.3-.9.6-1.1c.6-.3.8-.6.6-1.2-.9-3.6-1.7-7.1-2.5-10.7zm-74.9 50.3c-1-.4-1.4-1.1-.8-1.9l3.8-4.6c.1-.2.8-.2.9-.1.2.3.4.7.4 1.1 0 .2-.3.5-.6.9l9 2.4c.1-.1.2-.3.3-.4l-4.6-7.9-1.1 1.3c-1.4-.5-1.5-.7-.8-1.9.7-1.1 1.5-2 2.4-3 .5-.6 1-.3 1.4.1.5.5.2.7-.1 1.2a1.28 1.28 0 0 0 0 1.2l4.3 8.3 2 4c.2.5.2 1.1.3 1.6-.5 0-1.1.2-1.6 0l-13.2-3.1c-1-.4-1.7-.5-2 .8z" fill="#2f82b9"/><path d="M402.6 333.1c-1.8-1.8-3.1-3.9-4-6.2-.1-.2.1-.8.3-.8.5-.1 1.2-.1 1.4.1.6.9 1 .6 1.7.2l8.5-5.4c.3-.2.5-.4.8-.6-.2-.3-.4-.5-.4-.7 0-.4.1-.9.2-1.3.4.1 1 0 1.2.3l3.4 5.3c.1.2-.1 1-.3 1.1-.4.1-1.1.1-1.2-.2-.6-.8-1.1-.5-1.7-.1l-8.3 5.3c-.6.4-1 .7-.5 1.5.3.7-.3 1.1-1.1 1.5z" class="P"/><path d="M214.5 303.2c-.3.3-.6.7-.9.8-.4.1-.8-.1-1.1-.3-.2-.1-.2-.7-.1-.9l4.9-4.7c.1-.1.8 0 .9.1.2.4.4 1 .2 1.2-.7.7-.4 1.2.2 1.8l6.6 7c.3.3.6.6 1 .9.3-.2.5-.5.7-.5.5-.1 1-.1 1.4.1.2.1.2.9-.1 1.1l-4.6 4.3c-.2.2-1 .1-1.1 0-.1-.5-.3-1.1-.1-1.4.4-.6.4-.9 0-1.4l-7.4-7.9c-.2 0-.3-.1-.5-.2z" class="R"/><path d="M424.3 393.6c-2.6 0-4.8-2.2-4.7-4.9 0-2.5 2.2-4.6 4.8-4.6s4.7 2.2 4.7 4.8-2.1 4.7-4.8 4.7zm-237.9-.7c-2.7 0-4.7-2-4.8-4.6 0-2.7 2.1-4.9 4.7-4.9 2.7 0 4.8 2.1 4.8 4.8 0 2.5-2.1 4.6-4.7 4.7z" class="Q"/><path d="M260.4 492.1l4.7 1.6c.9.4 1.6 1.3 1.3 2.4s-1.3 1.6-2.3 1.5c-1.6-.2-3.1-.4-4.6-.9s-2.2-1.6-2-2.7 1.2-1.7 2.9-1.6v-.3z" class="R"/><path d="M393.3 295c-.5-.1-1.3-.3-1.9-.6-.3-.1-.5-.7-.4-1 .1-.2.6-.5.9-.5 1.9.1 3.5 1.5 3.8 3.3.1.3 0 .8-.2.9s-.8.1-.9-.1c-.6-.4-.9-1.2-1.3-2z" fill="#2f82b9"/><path d="M372.8 292.8c-.1 0-.1.1-.2.1v-.3c0 .1.1.2.2.2zm4.9 10l-.3.3c.2-.1.2-.2.3-.3zm-185.3 42.6c0-.1-.1-.1-.1-.2h.3c-.1 0-.1.1-.2.2zm42.2-52.7h-.1.1z" fill="#fefefe"/><path d="M309.8 435.9c10.7 0 20.6-2.5 29.3-9 7.5-5.6 12.7-12.8 14.7-22 .4-2 .9-4 1.6-5.8.9-2.1 2.4-3.7 4.7-4.2 3.5-.9 6.9 1.6 7.9 5.4.6 2.4-.1 4.7-.6 7-5.6 25.4-25 44.6-50.5 49.1-20.3 3.6-38.4-1.6-53.8-15.4-11.2-10-17.8-22.6-20.1-37.4-.5-3-.5-6-.8-9-.1-1 .4-1.4 1.3-1.6 5.7-1.7 11.5-1.3 17.2.2 7 1.8 13.2 5.4 18.8 9.9 5.5 4.5 11.5 8.3 18.5 10.1 4.8 1.3 9.6 1.5 14.5 1 5.2-.5 10.2 3.3 10.3 8.1.1 2.9-1.3 5-3.6 6.5-3 1.9-6.3 2.4-9.7 2.6-6.3.4-12.4-.8-18.5-2-1.3-.3-2.6-.4-3.9-.5-.4 0-.8.3-1.1.5.2.4.3.9.6 1.2 2.1 1.7 4.6 2.5 7.2 3.2 5.3 1.5 10.6 2.1 16 2.1z" fill="#fecb29"/><path d="M292.5 352.3c.1-1.4.3-1.7 1.7-1.5.9.1 1.8.5 2.6.7 1.3.3 2.6.5 4 .6.7.1 1.5-.2 2.1 0 .7.1 1.4.5 2 .9 1 .8 1.8 1.8 2.7 2.7l1.8 1.8c.3.3.7.5 1.1.6.9.1 1.7.1 2.6.3 2.4.4 3.4 1.3 3.9 3.7.1.5.3 1.1.6 1.4.8.7.8 1.1.1 1.9l-2 2.5c1.5.4 2.8.8 4.2-.1 1.5-1 2.8-.9 3.9.6 1.3 1.7 2.9 2 4.9 1.8 1.1-.1 2.2.4 3.3.7 1 .3 1.9.9 2.8 1.3 1.1.5 1.6 1.6.9 2.7-.8 1.2-1.3 2.2-.5 3.7.5.9-.6 1.4-1.2 1.8-1.7 1.1-2.5 2.7-2.8 4.5l-.3 2.9-.2 3c-.3 2.6-1.4 3.8-4.1 4.2l-2.4.4c-2.7.6-4.3 2.2-4.6 5-.1 1-.5 1.5-1.5 2-1.5.7-3 1.7-4.3 2.7-.8.6-1.5 1-2.5 1.1-6.1.4-11.9-.5-17.4-3.4.1-.8.1-1.6.2-2.4l1-8.8c.2-2.2-.2-3-2.3-3.9-.7-.3-1.3-.5-2-.8-1.7-.7-2.7-1.9-3.3-3.6l-2.2-6.3a4.44 4.44 0 0 0-.8-1.1c-.4-.4-.9-.8-1.3-1.2-1.4-1.4-1.5-1.9-.8-3.3-.3-1-.8-1.8-.7-2.4.3-1.3.8-2.6 1.4-3.8.6-1.1 1.5-2.1 2.1-3.2.3-.5.3-1.2.2-1.7-.4-1.9-.4-3.6 1.5-4.8.4-.3.7-1 .9-1.5.6-1.6 1.6-2.9 3.3-3.6.4-.2.9-.2 1.3-.3.3.9-1.4 1.7.1 2.4h.3c-.2-.1-.2-.2-.3-.2z" fill="#018f4f"/><path d="M297.4 334.4c-6 1.5-11.2 4.6-15.7 8.8-1.5 1.4-2.9 2.9-4.3 4.3 0 .1.1.2.1.4l9.4 1.4c-.5.8-1 1.7-1.6 2.5a.96.96 0 0 1-.9.2l-8.3-1.3c-.4-.1-1.1.1-1.3.4-4.7 6.6-7.9 13.9-10 21.9 2 .5 3.8 1 5.7 1.3 3 .6 6.1 1 9.1 1.5 1.2.2 2.9 2 3.1 3.4-6.3-.6-12.4-1.7-18.7-3.3l-1.5 9c-.9-.2-1.9-.4-3-.7l1.5-9.1c-1.8-.7-3.8-1.4-5.6-2.3s-3.5-2-5.3-3.1c-.4 1-.9 2.1-1.3 3.3l-2.6 9.7c-.2.8-.4 1.2-1.2 1.2-.7 0-1.3.2-2 .4 2.9-25.3 25.6-53.1 60.7-54.1 34.9-1 61.9 26 64.5 57.3-1-.3-2-.6-2.9-1-.2-.1-.3-.6-.3-.9-.7-5.5-2.2-10.9-4.4-16-.1-.2-.2-.3-.3-.6-3 2.9-6.8 4.4-10.6 5.7.4 2.6.9 5.1 1.2 7.7.3 2.2.5 4.5.6 6.7.1 1.8-1.1 2.8-2.7 2.4l-1.9-15.9c-1.9.4-3.4.8-5 1.2-1.1.2-2.1.4-3.2.7-.9.2-1-.3-.7-1 .2-.6.4-1.2.8-1.7.2-.3.6-.5 1-.6 2-.5 3.9-.9 6.1-1.4-.3-1.1-.6-2-.8-3-2-6.6-4.9-12.8-8.9-18.5-.3-.4-.9-.7-1.3-.7-4.2.5-8.5 1.2-12.7 1.8-.2 0-.5.1-.7.1l2.5 11.9c-1-.2-1.8-.4-2.9-.6l-2.7-10.7c-2.7 0-5.2-.1-7.7 0-1.4.1-2.4-.4-3.1-1.6-.3-.5-.7-.9-1.1-1.4l10.8-.4c-.1-.4-.1-.7-.2-1-1.2-3.8-2.7-7.5-5-10.7-.9-1.3-2.1-2.6-3.3-3.6-2.2-1.7-4.6-1.7-6.7.1-1.4 1.2-2.8 2.7-3.7 4.3-1.6 2.7-2.9 5.6-4.3 8.5-.8-.1-1.7-.3-2.8-.5 1.4-4.4 3.5-8.6 6.3-12.3 0-.1.1-.1.1-.2-.1.1-.2.1-.3.1zm-25.5 15.4c-1.8-.5-3.5-1-5.2-1.4-.4-.1-1.1 0-1.4.3-5.5 4.9-9.9 10.6-13.3 17.1-.3.6-.2 1 .3 1.4 2.8 2.4 6.1 3.6 9.6 4.8 2.1-8 5.3-15.4 10-22.2zm77 22.2c2.3-1.1 4.5-2 6.6-3.1 1.1-.6 2-1.5 2.8-2.3.2-.2.3-1 .1-1.3a57.57 57.57 0 0 0-12.9-16.5c-.3-.2-.7-.5-1-.4l-5.6 1.6c4.7 6.6 7.8 13.9 10 22zm-28.4-22.5l7.4-.9c1.8-.2 3.5-.5 5.5-.8-4.3-6-14.6-12.8-20.4-13.5m14.6 3.7c3.3 2.5 6.2 5.3 8.8 8.5.2.2.6.6.8.5 1.6-.3 3.1-.7 4.8-1.1-3.8-3.3-12.5-8.1-14.4-7.9zm-44.1-.1c-.1-.1-.2-.2-.3-.4-5.1 2-9.9 4.7-14.5 8.3 1.6.4 2.9.7 4.2 1.1.6.2 1 0 1.5-.5l8.4-8.3c.3-.1.5-.1.7-.2z" fill="#059052"/><path d="M320.3 432.9l3.9-4.2c.7-.8 1.1-2 1.4-3 .2-.8.6-1.2 1.2-1.6 2.9-1.8 5.8-3.5 8.5-5.5 3.2-2.4 4.9-5.8 5.5-9.8.3-2.2.9-4.4 2.3-6.2 1.8-2.5 4.4-3.2 6.9-1.8.6.3.8.7.7 1.3-1.7 8.9-5.4 16.7-13 22.3-5.2 3.8-10.5 7.1-16.9 8.5h-.5zm6.2-11.4l-2.2-4.2s.1-.1.2-.1c2.9-1.4 4-3.9 4.6-6.9.7-3.9 4.2-5.7 7.7-3.9.6.3.8.7.8 1.5-.2 4.8-2.6 8.2-6.4 10.8-1.6 1-3.2 1.9-4.7 2.8z" fill="#fecc2b"/><path d="M284.7 384.8l2.8 3.3c.2.2.3.6.3.8v9.7c-1-.8-2-1.4-2.8-2.2-.2-.2-.3-.6-.3-1v-10.6z" fill="#079254"/><path d="M322.9 415.3l-4.3-2.9c.8-2.5 4.8-3.9 7.1-2.1.3.2.4.8.3 1.2-.5 1.8-1.8 2.9-3.1 3.8z" fill="#fecc2d"/><path d="M326 397.9c.2 2.4-.8 3.5-3 3.1-.1-2.3.2-2.7 3-3.1z" fill="#079254"/><path d="M292.5 352.3c.1 0 .1.1.2.1h-.3l.1-.1zm4.9-17.9h.3c0 .1-.1.1-.1.2-.1-.1-.1-.2-.2-.2z" fill="#fdfefd"/></svg>