<?xml version="1.0" encoding="utf-8"?>
<!-- Generator: Adobe Illustrator 19.2.0, SVG Export Plug-In . SVG Version: 6.00 Build 0)  -->
<svg version="1.1" id="Layer_1" xmlns="http://www.w3.org/2000/svg" xmlns:xlink="http://www.w3.org/1999/xlink" x="0px" y="0px"
	 viewBox="0 0 612 792" style="enable-background:new 0 0 612 792;" xml:space="preserve">
<style type="text/css">
	.st0{fill:#2E82B9;}
	.st1{fill:#A9ABAE;}
	.st2{fill:#2C81B8;}
	.st3{fill:#2D81B8;}
	.st4{fill:#2D82B8;}
	.st5{fill:#2F82B9;}
	.st6{fill:#F6F9FB;}
	.st7{fill:#FEFEFE;}
	.st8{fill:#FECB29;}
	.st9{fill:#018F4F;}
	.st10{fill:#059052;}
	.st11{fill:#FECC2B;}
	.st12{fill:#079254;}
	.st13{fill:#FECC2D;}
	.st14{fill:#FDFEFD;}
</style>
<g>
	<path class="st0" d="M296.8,263.2c1.9,0.5,3.6,1.3,4.8,3c1.9,2.7,2.4,5.6,1.2,8.6c-1.3,3.6-4.3,5.3-8.6,4.9c-3.2-0.2-6.1-3-6.8-6.3
		c-1-4.6,1.6-9.6,6.7-10c0.1,0,0.2-0.1,0.3-0.2C295.2,263.2,296,263.2,296.8,263.2z M299.8,274c-0.2-3.1-1.2-5.7-3.4-7.7
		c-1.7-1.5-4-1-4.7,1c-1.2,2.9,0.9,8.5,3.7,10.1c1.8,1,3.7,0.2,4.3-1.7C299.7,275,299.7,274.4,299.8,274z"/>
	<path class="st1" d="M402.9,393.4c0,53.6-43.4,97.5-97.5,97.5c-53.8,0-97.4-43.4-97.5-97.5c0-54.1,43.8-97.6,97.7-97.5
		C359.4,296,402.8,339.7,402.9,393.4z M390.7,393.5c0.3-46.8-38.2-85.3-85.1-85.4c-46.9-0.1-85.5,38-85.6,85.3
		c-0.1,47.3,38.4,85.4,85.2,85.5C352.5,478.9,390.9,440.2,390.7,393.5z"/>
	<path class="st2" d="M200.5,446.7c2.2,0.3,4,1.2,5.3,2.9c1.4,1.9,1.6,3.8,0.1,5.9c0.6,0.2,1,0.4,1.5,0.6c1.9,0.6,3.5,1.8,4.4,3.7
		c1.2,2.4,0.6,4.6-1.7,6c-1.9,1.2-3.9,2.2-5.8,3.4c-0.8,0.5-1.4,1.3-1.9,2c-0.6,1-1.4,1.4-2.2,0.7c-2.3-1.8-3.7-4.2-4.1-7.2
		c-0.1-1,0.5-1.4,1.5-1.5c3-0.1,5.3-1.9,7.4-3.7c0.3-0.3,0.4-1.4,0.1-1.8c-0.3-0.4-1.3-0.8-1.7-0.6c-2.5,1.2-5.2,2.1-6.7,4.8
		c-0.4,0.8-1.1,0.9-1.8,0.5c-0.4-0.2-0.9-0.5-1.1-0.9c-1.2-1.9-2.4-3.9-3.4-5.9c-0.2-0.4-0.1-1.3,0.2-1.7c0.3-0.3,1-0.3,1.6-0.3
		c0.6-0.1,1.4,0,1.9-0.2c1.3-0.6,2.5-1.3,3.7-2c0.5-0.3,1.2-0.7,1.4-1.2c0.3-0.5,0.4-1.4,0.2-1.8c-0.2-0.4-1.2-0.7-1.6-0.5
		c-2.4,1.1-5,2-6.6,4.3c-0.7,0.9-1.5,1.1-2.3,0.3c-2-1.8-3.4-4.1-4.1-6.8c-0.3-1.2,0.4-1.8,1.7-1.6c1,0.1,2.1,0,3-0.3
		c1.2-0.4,2.3-1.2,3.5-1.8c1.1-0.6,2.1-1.3,2.3-2.8c0.1-0.8,0.9-1.1,1.6-0.7c2.4,1.3,4.3,3.2,5.7,5.5c0.2,0.2-0.2,1-0.6,1.4
		c-0.4,0.4-0.9,0.7-1.4,1C200.5,446.3,200.5,446.5,200.5,446.7z"/>
	<path class="st2" d="M177.6,422.3c0.2-1.2,0.4-2.5,0.7-3.7c0.7-2.5,2.2-4.3,4.8-4.9c2.9-0.8,5.9-1.4,8.8-2.1
		c1.4-0.3,2.5-0.8,3.1-2.3c0.5-1.3,1.7-1.4,2.7-0.3c0.3,0.3,0.6,0.7,0.7,1.1c0.7,2.7,1.3,5.3,1.9,8c0.1,0.5,0,1-0.2,1.5
		c-0.4,1.3-1.8,1.7-2.7,0.6c-0.8-1-1.6-1.2-2.7-0.9c-2.5,0.5-5,1-7.5,1.6c-3.8,1-5.2,4.7-3,8c1,1.4,2.3,2.1,4,1.8
		c3.1-0.7,6.1-1.5,9.2-2.2c1-0.2,1.4-0.8,1.7-1.8c0.2-0.6,0.8-1.5,1.2-1.5c0.6,0,1.5,0.6,1.7,1.1c0.7,2.2,1.2,4.4,1.6,6.6
		c0.1,0.6-0.5,1.4-1,1.8c-0.3,0.2-1.2-0.3-1.7-0.7c-0.7-0.7-1.5-0.9-2.5-0.7c-3.3,0.8-6.7,1.5-10.1,2.1c-2.8,0.5-5.1-0.4-7-2.5
		C179.2,430.4,177.8,426.3,177.6,422.3z"/>
	<path class="st2" d="M400.7,459c0-0.4,0.1-1,0.2-1.7c0.7-3.8,3.2-5.7,7-5.5c5.4,0.4,9.7,6.1,8.4,11.1c-0.4,1.8-1.5,3.1-2.9,4.1
		c-1,0.7-1,1.2,0.1,1.6c0.6,0.3,1.5,0.3,2.1,0.1c1.4-0.3,2.4,0.5,2,1.8c-1.1,3.6-3.6,6.1-7,7.5c-1.2,0.5-1.9-0.3-2-1.6
		c-0.1-0.7-0.3-1.7-0.8-2.1c-2.5-2-5.1-3.8-7.7-5.7c-0.5-0.4-0.9-0.2-1.5,0.1c-0.5,0.3-1.3,0.5-1.7,0.3c-0.5-0.2-1-1-0.9-1.5
		c0.1-3,0.8-5.8,2.6-8.2C398.9,459.2,399.8,459.3,400.7,459z M405.4,459.2c-0.6,0.4-1.3,0.7-1.6,1.3c-0.5,0.7,0.2,1.3,0.7,1.8
		c1.1,0.9,2.2,1.7,3.3,2.6c0.7,0.5,1.3,1,2.1,0.3c0.8-0.7,1-1.5,0.7-2.5C410,461.4,407.1,459.5,405.4,459.2z"/>
	<path class="st2" d="M327.4,507c0.1-0.1,0.5-0.4,0.9-0.7c3.2-2.8,7.3-2.3,9.8,1.1c2.5,3.5,2.4,8.3-0.1,11.5
		c-1.7,2.1-3.8,3.1-6.5,2.7c-0.5-0.1-1,0.1-1.6,0.1c0.2,0.6,0.2,1.3,0.5,1.9c0.2,0.3,0.7,0.5,1,0.7c1.3,0.7,1.5,2,0.1,2.7
		c-1.2,0.6-2.7,1.2-4.1,1.2c-1.8,0.1-3.7-0.1-5.4-0.5c-1.9-0.4-2.1-1.7-0.8-3.1c0.4-0.4,0.7-1.2,0.6-1.7c-0.5-3.2-1.1-6.4-1.7-9.6
		c-0.1-0.3-0.7-0.6-1-0.8c-0.5-0.3-1.3-0.5-1.5-0.9c-0.2-0.5,0-1.5,0.4-1.8c2.2-2,4.6-3.5,7.6-4C326,505.7,326.6,506.4,327.4,507z
		 M327.7,511.3c0.2,1.9,0.4,3.5,0.6,5c0.1,0.7,0.3,1.4,1.1,1.4c0.9,0.1,1.7-0.1,2.2-0.9c0.9-1.5,0.1-5.5-1.4-6.4
		c-0.5-0.3-1.3-0.4-1.9-0.2C328.1,510.3,327.9,511,327.7,511.3z"/>
	<path class="st2" d="M211.5,484.3c0.3-3.9,0.8-4.1,5.1-3.9c0-0.4,0-0.8,0.1-1.3c0.1-3.3,2.6-5.3,5.8-4.6c2.9,0.6,5.2,2.1,6.8,4.5
		c1.4,2,2.9,3.6,5.5,3.8c0.9,0.1,0.9,0.8,0.6,1.4c-0.6,1.1-1.7,1.6-2.9,1.6c-0.8,0.1-1.3,0.2-1.8,0.9c-1.3,1.6-3.1,1.8-5,1.4
		c-2.4-0.5-4.4-1.9-6-3.7c-0.4-0.5-0.9-1.3-1.6-0.6c-0.8,0.7-0.3,1.4,0.2,2c0.7,0.7,1.5,1.2,2.2,1.9c1.3,1.1,2.7,2.1,3.8,3.3
		c2,2.3,1.1,5.4-1.8,6.5c-1.6,0.6-3.2,0.6-4.8,0c-4.1-1.5-7.1-4.3-9.1-8c-0.3-0.6-0.5-1.4-0.6-2.2c-0.1-2.2,1-3.2,3.2-3
		C211.2,484.3,211.4,484.3,211.5,484.3z M226.8,480.4c0-1.4-1.5-2.3-2.6-1.3c-1,0.8-1.8,2-2.4,3.2c-0.6,1.3,0.7,2.4,2.1,2
		C225.2,483.9,226.8,481.7,226.8,480.4z M212,488.8c0.4,2.2,1.8,3.5,3.4,4.5c0.7,0.4,1.5,0.7,2-0.1c0.6-0.8-0.1-1.4-0.7-1.9
		c-1-0.9-2-1.9-3.1-2.9c-0.3-0.3-0.6-0.5-1-0.7C212.5,488.1,212.2,488.5,212,488.8z"/>
	<path class="st2" d="M286.3,516.2c0-4.6,3.5-8.3,8.3-8.8c2.8-0.3,5.5,0,7.9,1.8c3.8,2.8,5.4,9.7-0.5,13.3c-3.5,2.1-7.1,2.5-10.9,1
		C287.9,522.2,286.2,519.5,286.3,516.2z M298.2,517.4c-0.4-1.7-0.7-3.5-1.2-5.2c-0.2-0.5-1-1.1-1.6-1.1c-0.5,0-1.3,0.7-1.3,1.2
		c-0.4,2.4,0,4.9,1,7.1c0.2,0.4,1,0.8,1.6,0.8c0.4,0,0.9-0.7,1.2-1.1"/>
	<path class="st3" d="M409.3,442.4c0.4-2.6,1-5,2.6-7.1c2-2.6,4.1-3.1,7.1-1.8c1.5,0.6,3,1.3,4.5,1.9c0.7,0.3,1.4,0.4,2.1-0.4
		c0.2-0.2,1-0.2,1.3,0c2.2,1.7,2.2,6.5-0.8,7.7c-0.9,0.4-1.1,0.9-0.9,1.7c0.4,2-0.2,3.8-1.4,5.4c-1.2,1.6-2.9,2.2-4.8,1.7
		c-1.9-0.4-2.9-1.9-3.2-3.7c-0.4-2,0.2-3.8,0.9-5.6c0.2-0.6,0.9-1.4,0-1.9c-1.1-0.6-2.2-1.4-3.5-0.6c-0.4,0.2-0.5,1.2-0.4,1.8
		c0,0.5,0.5,1,0.7,1.5c0.3,0.7,0.6,1.5,0.6,2.3c0,0.9-0.4,1.8-1.4,2c-1,0.3-1.8-0.2-2.2-1.1C409.9,445,409.6,443.7,409.3,442.4z
		 M421.6,445c0.2-0.3,0.8-0.7,0.9-1.2c0.2-0.7-1.5-2-2.6-2c-0.8,0-1,0.6-0.9,1.2C419,444.1,420,445,421.6,445z"/>
	<path class="st2" d="M379.8,486c-0.2,0.9-0.3,1.8-0.6,2.6c-0.4,0.9-1.2,1.4-2.2,1.2c-0.9-0.2-1.3-1-1.4-1.9c0-0.6,0-1.2,0.2-1.8
		c0.9-3.1,2.7-5.6,5.6-7.2c3-1.6,5.4-1.4,7.6,1.3c1,1.2,2.1,2.4,3.2,3.6c0.5,0.6,1.1,1,2,0.5c0.2-0.1,1,0.2,1.2,0.6
		c1.4,2.6-1,6.7-3.9,6.6c-1.1,0-1.5,0.3-1.7,1.3c-0.6,2.2-2.1,3.6-4.2,4.4c-3.3,1.2-6.5-1.5-5.8-4.9c0.4-2.3,1.8-3.9,3.4-5.4
		c1.2-1.1,1.2-1.2,0.1-2.5c-0.2-0.2-0.4-0.5-0.6-0.6c-0.6-0.2-1.3-0.7-1.9-0.5c-0.9,0.2-0.9,1.1-0.9,1.9c0,0.2,0,0.5,0,0.7
		C379.7,485.9,379.7,486,379.8,486z M384.6,489.2c0,1.3,0.7,2.3,1.6,2.4c0.4,0,1.1-0.2,1.3-0.5c0.7-0.8,0-1.5-0.4-2.1
		c-0.1-0.1-0.2-0.3-0.3-0.4c-0.4-0.2-1-0.7-1.3-0.6C385,488.3,384.8,489,384.6,489.2z"/>
	<path class="st3" d="M430.8,417.4c-0.5-0.7-0.9-1.4-1.4-1.9c-0.5-0.5-1.2-1.1-0.6-1.8c0.5-0.5,1.4-0.9,2-0.8
		c1.8,0.3,3.1,1.5,3.9,3.1c0.2,0.4,0.3,1,0.1,1.3c-1.5,2.5-1.6,5.4-2.4,8.1c-0.3,1-0.5,2-0.7,3c-0.5,1.7-1.4,2-2.7,0.8
		c-2.2-2.1-4.4-4.3-6.6-6.5c-0.1-0.1-0.3-0.3-0.4-0.4c-0.5-0.3-1.1-0.5-1.6-0.7c-0.1,0.8-0.5,1.7-0.4,2.4c0.1,0.6,0.9,1,1.2,1.6
		c0.2,0.4,0.5,1.1,0.3,1.5c-0.2,0.4-0.8,0.7-1.3,0.8c-1.5,0.2-4.3-1.8-4.7-3.3c-0.1-0.3-0.1-0.6,0-0.8c1.7-3,1.9-6.5,2.8-9.7
		c0.2-0.6,0.3-1.2,0.5-1.7c0.3-1.1,1-1.4,2-0.7c0.6,0.4,1.1,0.9,1.7,1.4c2,1.8,4,3.7,6,5.5c0.4,0.3,1.1,0.7,1.4,0.5
		C430.3,418.7,430.5,418,430.8,417.4z"/>
	<path class="st3" d="M343.6,507.2c0-6.5,7.4-11.1,13-8.1c1.4,0.8,2.6,1.9,3,3.5c0.4,1.4,0,2.1-1.3,2.6c-2.1,0.8-4.2,1.6-6.2,2.4
		c-1,0.4-1.1,0.9-0.3,1.6c1,0.9,3,1.3,4.3,0.5c0.9-0.5,1.6-1.3,2.4-1.9c0.4-0.3,1.2-0.9,1.4-0.7c0.6,0.4,0.9,1.1,1.3,1.7
		c0.1,0.2,0,0.6-0.2,0.9c-1.6,3.6-4.5,5.4-8.2,5.8c-3.3,0.4-6-1-7.7-3.8c-0.8-1.3-1.2-3-1.8-4.5
		C343.4,507.3,343.5,507.3,343.6,507.2z M349.1,503.3c0.2,1.5,0.7,1.9,1.9,1.5c0.3-0.1,0.7-0.2,1-0.4c1.2-0.5,1.4-1.5,0.4-2.2
		c-0.5-0.4-1.4-0.5-1.9-0.3C349.9,502,349.6,502.8,349.1,503.3z"/>
	<path class="st2" d="M276.3,521.3c-1.5-0.4-2.8-0.6-4-1.1c-2.7-1.1-3.9-3.6-3.1-6.3c0.6-2.3,1.2-4.6,1.9-6.9c0.3-1,0.1-1.4-0.9-1.6
		c-0.2,0-0.3,0-0.5-0.1c-0.4-0.3-1.1-0.7-1-0.9c0.2-0.6,0.5-1.5,1-1.7c2.7-1,5.5-1.8,8.4-2.5c0.7-0.2,1.6,0.2,2.3,0.4
		c0.2,0.1,0.3,0.7,0.2,1c-0.1,1-0.7,2.1-0.3,2.8c0.3,0.6,1.7,0.6,2.6,1c0.5,0.2,1.5,0.7,1.4,0.9c-0.1,0.9-0.4,1.7-0.8,2.6
		c-0.1,0.2-0.7,0.2-1.1,0.1c-0.9-0.2-1.8-0.5-2.7-0.7c-0.3,0-0.9,0.3-1,0.6c-0.6,1.9-1.2,3.8-1.6,5.8c-0.4,1.6,0.7,2.5,2.3,2.3
		c0.6-0.1,1.4-0.5,1.8,0.4c0.4,0.9,0.1,1.8-0.7,2.2C279,520.4,277.5,520.8,276.3,521.3z"/>
	<path class="st2" d="M244.6,493.4c0.8-0.2,1.3-0.3,1.8-0.5c1.9-0.6,3.8,0.1,4.7,1.7c0.8,1.4,0.3,3.4-1,4.6
		c-1.5,1.2-3.6,1.4-4.9,0.2c-0.6-0.6-0.9-1.5-1.4-2.3c-0.2-0.4-0.4-0.7-0.7-1c-0.3,0.2-0.8,0.4-1,0.7c-0.8,1.2-1.6,2.5-2.4,3.8
		c-0.4,0.7-0.4,1.3,0.1,2c0.6,0.7,1.1,1.5,0.4,2.4c-0.7,0.8-1.7,0.9-2.5,0.4c-2.4-1.4-4.7-2.9-7-4.5c-0.7-0.5-1.3-1.2-1-2.3
		c0.4-1,1.2-1.1,2.1-1.2c0.5-0.1,1-0.3,1.3-0.7c1.1-1.5,2.2-3,3.2-4.6c0.3-0.4,0.2-1.2,0-1.7c-0.6-1.4-0.1-2.5,1.5-2.4
		c2.5,0.2,4.8,1,7,2.3c0.6,0.4,0.7,0.9,0.4,1.5C245.1,492.1,244.9,492.5,244.6,493.4z"/>
	<path class="st4" d="M377.5,303.1c-2.6-0.3-4.5-1.9-6.3-3.6c-0.1-0.1,0-0.8,0.2-1c0.2-0.2,0.8-0.4,1-0.3c0.7,0.6,1.2,0.3,1.6-0.3
		c1-1.5,2-3.1,2.8-4.8c-2.9,1.7-5.8,3.4-8.6,5.1c-0.1-0.1-0.2-0.1-0.4-0.2c0.4-3.4,0.8-6.7,1.2-10.4c-0.3,0.3-0.6,0.4-0.7,0.6
		c-0.9,1.4-1.7,2.8-2.6,4.1c-0.4,0.6-0.5,1.1,0.1,1.7c0.2,0.2,0.4,0.8,0.3,1.1c-0.1,0.2-0.8,0.4-1.1,0.3c-1.2-0.6-2.4-1.2-3.5-2
		c-0.3-0.2-0.3-1-0.4-1.6c0.5,0,1-0.2,1.3,0c0.7,0.3,1.1,0.1,1.4-0.4c1.7-2.8,3.5-5.5,5.2-8.3c0.3-0.6,0.4-1-0.1-1.6
		c-0.3-0.3-0.2-1-0.1-1.4c0-0.1,0.9-0.2,1.2-0.1c1.1,0.5,2.1,1.2,3.1,1.9c0.3,0.2,0.4,0.7,0.4,1.1c-0.3,3.2-0.6,6.4-0.9,9.7
		c0,0.1,0,0.2,0,0.3c0.1,0,0.1-0.1,0.2-0.1c2.2-1.3,4.4-2.6,6.5-4c2.4-1.5,3.8-1.4,5.6,0.7c0.2,0.2,0.3,0.8,0.2,1
		c-0.2,0.3-0.7,0.4-1.1,0.6c-0.4,0.1-1,0-1.2,0.3c-2.1,3.1-4,6.2-6,9.3c0.1,0,0.3,0,0.4,0c0.2,0.7,0.4,1.4,0.6,2.1l0,0
		C377.6,302.9,377.6,303,377.5,303.1L377.5,303.1z"/>
	<path class="st0" d="M192.4,345.4c1.9,2.2,3.8,4.3,5.7,6.5c0.3,0.3,0.5,0.7,0.9,1.3c-3.6,0.3-7,0.6-10.3,0.9c0,0.1,0,0.2-0.1,0.2
		c0.3,0.2,0.6,0.3,0.9,0.4c1.2,0.5,2.5,1,3.7,1.4c0.9,0.3,1.8,0.9,2.4-0.5c0.1-0.2,0.6-0.3,0.8-0.2c0.3,0.1,0.6,0.6,0.6,0.8
		c-0.4,1.5-0.9,2.9-1.5,4.3c-0.1,0.3-0.9,0.3-1.3,0.4c-0.1-0.4-0.3-0.8-0.2-1.1c0.2-0.8,0-1.3-0.8-1.6c-2.9-1.1-5.8-2.2-8.7-3.4
		c-0.8-0.3-1.4-0.4-1.9,0.5c-0.1,0.3-0.9,0.4-1.2,0.3c-0.2-0.1-0.5-0.7-0.4-1c0.4-1.3,0.8-2.5,1.3-3.7c0.1-0.2,0.6-0.4,0.9-0.4
		c3.3-0.4,6.6-0.7,10.1-1c-0.9-1-1.7-1.9-2.5-2.7c-1-1.1-2-2.1-3.1-3.2c-1.8-1.9-2-3.4-0.3-5.5c0.2-0.2,0.8-0.4,1.1-0.3
		c0.3,0.1,0.4,0.6,0.6,0.9c0.2,0.4,0.3,1.1,0.7,1.2c3.1,1.3,6.3,2.5,9.5,3.7c0.5,0.2,0.9,0.2,1.2-0.4c0.1-0.3,0.9-0.5,1.2-0.4
		c0.3,0.1,0.6,0.8,0.5,1.1c-0.6,1.9-1.4,3.7-2.2,5.6c-0.1,0.2-0.8,0.4-1,0.3c-0.3-0.2-0.6-0.8-0.5-1c0.3-0.9-0.2-1.2-0.8-1.5
		c-1.6-0.6-3.2-1.2-4.8-1.8c-0.1,0-0.2,0-0.3,0C192.3,345.2,192.4,345.3,192.4,345.4z"/>
	<path class="st0" d="M233.1,296.8c-0.3-1.4-0.5-2.5-0.7-3.7c-0.4-1.8-0.9-3.5-1.2-5.2c-0.3-1.5,1.7-4.1,3.2-4c0.4,0,0.7,0.6,1.2,1
		c-1.3,1-0.8,1.8,0,2.7c1.8,2.3,3.6,4.6,5.4,6.9c0.3,0.3,0.6,0.7,0.8,1c0.5-0.2,0.8-0.5,1.1-0.5c0.3,0,0.8,0.1,0.9,0.3
		c0.2,0.2,0.2,0.8,0.1,0.9c-1.7,1.4-3.4,2.8-5.1,4.1c-0.1,0.1-0.7-0.2-0.9-0.5c-0.2-0.3-0.1-0.9,0-1c1-0.6,0.6-1.2,0.1-1.8
		c-1-1.3-2.1-2.7-3.1-4c-0.1,0-0.2,0.1-0.3,0.1c0.6,3.2,1.2,6.4,1.9,9.7c-0.1,0.1-0.2,0.2-0.3,0.2c-3-1.5-6.1-2.9-9.1-4.4
		c-0.1,0.1-0.2,0.2-0.2,0.3c1.3,1.6,2.6,3.2,3.9,4.8c0.1,0.2,0.7,0,1.1,0c0.4,0,0.8,0.1,1.3,0.1c-0.1,0.4,0,1-0.2,1.2
		c-0.9,0.9-1.8,1.8-2.9,2.5c-0.4,0.2-1.1-0.1-1.7-0.2c0.1-0.4,0.2-0.9,0.5-1.3c0.5-0.5,0.5-0.9,0.1-1.5c-2-2.6-4.1-5.2-6.1-7.7
		c-0.4-0.6-0.9-0.7-1.7-0.4c-0.3,0.1-0.9-0.1-1.3-0.4c-0.1-0.1,0-0.9,0.2-1.1c0.9-0.8,1.9-1.7,2.9-2.4c0.3-0.2,0.9-0.1,1.3,0
		c2.6,1.2,5.1,2.4,7.7,3.6C232.2,296.3,232.5,296.5,233.1,296.8z M234.6,292.7L234.6,292.7L234.6,292.7L234.6,292.7z"/>
	<path class="st2" d="M377.5,502.2c-0.2,0.3-0.4,0.8-0.7,1.2c-2.1,1.8-4.5,3.2-7.1,4.1c-0.4,0.1-1,0.1-1.4,0
		c-0.9-0.3-1.3-0.9-0.7-1.8c0.6-0.8,0.5-1.6,0-2.4c-1.7-3-3.4-6.1-5.2-9.1c-0.6-1-1.4-1.5-2.7-1.6c-1.6-0.1-2.3-1.3-1.5-2.7
		c1.4-2.5,3.6-4.2,6-5.7c0.3-0.2,1.1,0.1,1.5,0.4c0.4,0.4,0.6,1,0.9,1.5c2.4,4.4,4.9,8.7,7.3,13.1c0.5,0.9,1.1,1.5,2.3,1.3
		C377.2,500.5,377.5,501.1,377.5,502.2z"/>
	<path class="st0" d="M400.3,319.5c2.1-1.8,4.1-3.6,6.1-5.3c-0.2-0.3-0.5-0.6-0.4-0.9c0-0.5,0.2-0.9,0.3-1.4c0.3,0.1,0.8,0.1,1,0.4
		c0.7,0.8,1.5,1.6,2.1,2.5c0.2,0.3,0.2,0.9,0.2,1.3c-0.5,0-1,0-1.5,0c-0.1,0-0.3-0.2-0.4-0.3c-3.2,2.8-6.4,5.5-9.5,8.2
		c-0.5,0.4-1.1,0.6-1.6,0.9c-0.2-0.7-0.6-1.3-0.6-2c0.1-3.9,0.4-7.8,0.6-11.7c0-0.4,0-0.7,0-1.4c-2,1.7-3.8,3.2-5.6,4.8
		c0.6,0.8,1.2,1.6-0.1,2.3c-1.4-0.8-2.4-2-3.3-3.3c-0.3-0.5-0.4-1,0.2-1.4c0.7-0.4,1-0.1,1.4,0.5c0.1,0.2,0.2,0.3,0.4,0.6
		c2-1.8,4-3.5,6-5.2c0.5-0.5,1.1-1,1.6-1.4c0.8-0.7,1.4-1.3,0.7-2.4c-0.1-0.2,0.2-0.8,0.4-1.1c0.2-0.2,0.8-0.2,1,0
		c1.1,0.9,2.1,1.9,1.9,3.7c-0.5,3.8-0.7,7.6-1,11.5C400.3,318.6,400.3,319,400.3,319.5z"/>
	<path class="st0" d="M257,279.5c0.9,2.4,1.8,4.6,2.6,6.9c0.4-0.1,0.7-0.3,0.9-0.2c0.4,0.1,0.8,0.4,1.1,0.7c0.1,0.1-0.2,0.8-0.4,0.9
		c-1.2,0.6-2.4,1.1-3.6,1.5c-0.6,0.2-1.1,0.1-1.3-0.6c-0.1-0.8,0.2-1.1,1-1.2c0.1,0,0.3-0.1,0.6-0.2c-0.1-0.4-0.2-0.7-0.3-1
		c-1.1-2.9-2.3-5.8-3.4-8.7c-0.3-0.8-0.7-1.4-1.8-1.2c-0.3,0-0.8-0.4-1-0.7c-0.1-0.3,0.1-0.9,0.4-1c1.3-0.9,2.6-1.3,4.2-0.5
		c3.2,1.6,6.6,3.1,9.9,4.6c0.4,0.2,0.8,0.3,1.5,0.6c-1-2.7-1.9-5.1-2.9-7.6c-0.3,0.1-0.7,0.2-0.9,0.1c-0.4-0.2-0.8-0.5-1.2-0.8
		c0.2-0.3,0.4-0.8,0.7-0.9c1-0.5,2-0.8,3-1.1c0.4-0.1,0.8,0.1,1.3,0.2c-0.2,0.5-0.3,1-0.5,1.4c-0.1,0.1-0.2,0.2-0.4,0.3
		c1.5,3.9,3,7.7,4.4,11.6c0.2,0.6,0.2,1.3,0.3,2c-0.7-0.1-1.5,0-2.2-0.3c-3.6-1.4-7.2-3-10.7-4.4C257.8,279.8,257.5,279.7,257,279.5
		z"/>
	<path class="st2" d="M258.2,515.5c-2.6-0.5-5.4-1.7-7.8-3.7c-1.1-0.9-0.6-2.1,0.7-2.6c0.8-0.3,1.6-0.8,2-1.5c0.9-1.6,1.6-3.3,2.2-5
		c0.2-0.4-0.1-1.2-0.4-1.6c-0.8-1.3-0.3-2.6,1.2-2.5c2.5,0.3,5,0.8,7.5,1.3c1,0.2,0.9,0.9,0.5,1.7c-1.3,2.9-2.6,5.8-3.9,8.7
		c-0.4,0.9-0.6,1.8-0.1,2.7C260.9,514.6,260.3,515.5,258.2,515.5z"/>
	<path class="st0" d="M200.4,339.8c-4.6,0-8.7-3.8-8.7-8c0-4.5,3.7-8.4,8.1-8.4c4.6,0,8.7,3.9,8.7,8.2
		C208.5,336,204.8,339.8,200.4,339.8z M201.9,335.5c0.2,0,0.5,0,0.7,0c2.1-0.1,3.4-1,3.8-2.7c0.3-1.2-0.5-2.6-2.2-3.6
		c-2.1-1.3-4.4-1.7-6.8-1.6c-1.9,0.1-3.1,1-3.5,2.4c-0.4,1.3,0.2,2.6,1.7,3.6C197.6,334.9,199.7,335.4,201.9,335.5z"/>
	<path class="st4" d="M419.7,359.8c-4.6,0-8-3.6-8-8.4c0-4.2,4-8,8.5-8.1c4.6,0,8.1,3.6,8.2,8.4
		C428.4,356.1,424.4,359.8,419.7,359.8z M422.7,346.8c-3,0-7.2,3.2-8.1,6.1c-0.7,2.2,0.8,4.2,2.9,3.9c3.7-0.5,6.4-2.6,8-5.9
		C426.4,348.7,425,346.7,422.7,346.8z"/>
	<path class="st0" d="M362.3,278.4c-0.5-0.3-1-0.5-1.3-0.8c-0.2-0.3-0.3-0.8-0.2-1.1c0.1-0.2,0.7-0.5,0.9-0.4c1.4,0.5,2.7,1.1,4,1.8
		c0.5,0.2,0.9,0.6,0.6,1.4c-0.4,0.8-0.9,0.5-1.4,0.3c-0.2-0.1-0.4-0.1-0.7-0.2c-0.6,1.4-1.3,2.7-1.9,4.1c-0.6,1.3-1.2,2.6-1.8,3.9
		c-1.4,2.7-3.8,3.8-6.7,2.9c-1.3-0.4-2.6-1-3.8-1.7c-2.7-1.6-3.4-3.7-2.2-6.6c1-2.5,2.2-4.9,3.3-7.3c0.2-0.4,0.3-0.7,0.5-1.1
		c-0.3-0.2-0.6-0.2-0.7-0.4c-0.2-0.3-0.4-0.7-0.3-1c0.1-0.3,0.6-0.6,0.9-0.6c2.2,0.5,4.3,1.4,6.1,2.8c-0.6,1.2-0.7,1.3-2.2,0.9
		c-1.2,2.7-2.5,5.4-3.7,8.1c-0.5,1.1-0.3,2.2,0.8,2.9c1.1,0.7,2.4,1.2,3.7,1.7c1,0.3,1.9-0.1,2.3-1
		C359.6,284,360.9,281.2,362.3,278.4z"/>
	<path class="st0" d="M330,269.8c-1.1-2.9-3.5-2.7-5.8-2.9c-0.2,1.4-0.4,2.7-0.6,4.2c0.5,0.1,0.9,0.2,1.3,0.3
		c0.9,0.2,1.3-0.2,1.4-1.1c0.1-0.5,0.5-1.2,0.7-1.2c0.8,0,1.2,0.6,1.2,1.3c-0.1,1.5-0.3,3.1-0.6,4.6c-0.1,0.7-0.6,1.3-1.4,1.1
		c-0.9-0.2-0.7-0.9-0.6-1.4c0.2-0.9-0.1-1.3-1-1.3c-0.4,0-0.9-0.1-1.4-0.2c-0.2,1.8-0.5,3.5-0.7,5.3c0.9,0.1,1.7,0.2,2.6,0.3
		c1.3,0.2,2.3-0.3,3-1.5c0.1-0.2,0.2-0.5,0.4-0.6c0.3-0.2,0.7-0.4,1.1-0.6c0.1,0.4,0.4,0.8,0.3,1.1c-0.4,1.2-0.9,2.5-1.4,3.7
		c-0.1,0.3-0.6,0.5-0.9,0.5c-3.2-0.5-6.3-1-9.4-1.5c-1.4-0.2-1.7-0.5-1.2-1.5c0.1-0.3,0.5-0.4,0.8-0.6c0.3-0.2,0.9-0.4,1-0.7
		c0.6-3.6,1.1-7.2,1.6-10.8c-0.4-0.1-0.6-0.2-0.8-0.3c-0.8-0.2-0.9-0.9-0.7-1.4c0.1-0.3,0.7-0.5,1.1-0.5c2.5,0.3,5,0.6,7.5,0.9
		c0.7,0.1,1.4,0.1,2.1,0c0.8-0.1,1.2,0.1,1.4,0.9C331,267.3,331,268.4,330,269.8z"/>
	<path class="st0" d="M239.8,283.8c-0.4,0.1-0.5,0.2-0.6,0.2c-0.7,0.5-1.3,0.1-1.5-0.5c-0.1-0.3,0.3-1,0.6-1.2
		c2.1-1.3,4.3-2.5,6.4-3.8c0.6-0.4,1.2-0.9,1.8-1.4c0.6-0.6,1.1-0.7,1.6,0c0.5,0.7,1.1,1.4,1.4,2.2c0.3,0.7-0.1,1.2-0.8,0.9
		c-2.3-1.2-3.6,0.8-5.5,1.5c0.8,1.4,1.5,2.6,2.2,3.8c0.4-0.2,0.7-0.4,1-0.5c1.1-0.4,1.2-1,0.6-1.9c-0.2-0.3,0-0.9,0-1.3
		c0.5,0.1,1.4,0,1.6,0.3c1,1.4,1.8,3,2.6,4.5c0.1,0.3-0.2,0.9-0.5,1.3c-0.1,0.1-0.8,0-1-0.2c-0.4-0.4-0.8-1.3-1.1-1.3
		c-0.7,0.1-1.3,0.6-2.1,1c0.9,1.6,1.7,3,2.7,4.7c1-0.6,1.9-1.1,2.8-1.7c0.9-0.6,1-1.6,0.9-2.6c0-0.7-0.4-1.6,0.6-1.8
		c0.3,0,0.9,0.9,1.3,1.5c0.2,0.3,0.2,0.7,0.3,1c0.6,2.4,0.6,2.3-1.5,3.4c-2.5,1.3-4.9,2.8-7.3,4.1c-0.4,0.2-1,0.8-1.4,0
		c-0.3-0.6-0.7-1.1,0.3-1.6c0.2-0.1,0.3-0.7,0.2-0.9C243.4,290.2,241.6,287,239.8,283.8z"/>
	<path class="st0" d="M377.7,302.8c0.1,0,0.3,0,0.4,0.1c1.2,1.1,1.9,0.1,2.5-0.7c2.1-2.4,4.2-4.8,6.3-7.3c-0.3-0.3-0.6-0.5-0.6-0.7
		c0-0.5,0-1,0.2-1.5c0-0.1,0.8-0.1,1.1,0.1c1.6,1.3,3.2,2.8,4.9,4.1c1,0.8,2,1.4,3,2.1c0.3,0.2,0.6,0.7,0.6,0.9
		c-0.5,1-1.2,1.9-1.9,2.7c-0.1,0.1-0.9-0.3-0.9-0.4c0.4-2.6-1.8-3.4-3.3-4.9c-1,1.1-1.9,2.2-2.9,3.3c0.3,0.3,0.6,0.5,0.8,0.7
		c0.8,0.9,1.4,0.9,2.2-0.1c0.2-0.3,0.8-0.3,1.2-0.4c0.1,0.5,0.5,1.2,0.3,1.5c-1.1,1.5-2.3,2.8-3.5,4.2c-0.2,0.2-0.9,0-1.4-0.2
		c-0.1-0.1-0.2-0.7,0-1c0.9-1.7,1-1.7-0.9-3c-1.1,1.3-2.2,2.5-3.4,3.9c0.6,0.6,1.2,1.1,1.8,1.6c1,0.9,2.1,1.1,3.4,0.5
		c0.6-0.3,1.4-0.9,1.9-0.1c0.2,0.3-0.6,1.1-0.9,1.7c-0.2,0.3-0.6,0.5-0.8,0.7c-2,1.4-2,1.3-3.7-0.3c-2-1.8-4-3.6-6.1-5.3
		c-0.8-0.6-1.1-1.2-0.4-2.1l0,0C377.6,303,377.6,302.9,377.7,302.8L377.7,302.8z"/>
	<path class="st4" d="M331.9,276.2c0-4.1,3-8,6.6-8.5c2.2-0.3,4.3,0.3,6.2,1.7c0.2,0.2,0.5,0.3,0.7,0.4c1.1,0.4,1.6,1.5,1.3,3.4
		c-0.2,1.3-0.8,1.9-2.1,2c-1.2,0.1-1.7-0.4-1.7-1.6c0-1.2-0.4-2.2-1.6-2.7c-1.4-0.5-2.5-0.2-3.4,0.9c-1.8,2.3-2.1,5.7,0.1,8.3
		c1,1.2,2.7,1.4,4.3,0.6c0.8-0.4,1.7-1.2,2.3-0.4c0.3,0.4-0.2,1.7-0.7,2.4c-1.1,1.8-3,1.6-4.7,1.5C334.5,284,331.9,281,331.9,276.2z
		"/>
	<path class="st4" d="M414.2,343.8c-1.7,1.5-3.5,1.5-5.4-0.1c-2.4-2-4-4.5-3.1-7.7c0.9-3.4,3.2-5.6,6.6-6.5c5.2-1.3,9.1,1.5,9.8,7
		c0.1,0.7,1.1,1.4,0.2,2.2c-0.8,0.7-1.5,1.6-2.4,2.1c-1,0.6-1.8-0.2-2.4-1c-0.6-0.7-0.3-1.4,0.3-2c0.9-0.8,1.4-1.8,0.8-3
		c-0.6-1.4-1.6-2-3-1.9c-2.7,0.3-5.4,2.2-5.9,5.4c-0.3,1.8,0.7,3.2,2.6,3.9C413.1,342.5,414,342.7,414.2,343.8z"/>
	<path class="st5" d="M275.4,269.2c-1.7,0.1-2.2,0.5-2.6,2c-0.1,0.3-0.1,0.8-0.3,1c-0.3,0.3-0.7,0.6-1.1,0.6c-0.2,0-0.6-0.4-0.7-0.7
		c-0.1-0.8-0.2-1.7-0.2-2.5c0.1-1.8,0.3-1.7,2-2c3.4-0.6,6.8-1.5,10.5-2.3c0.5,0.8,1.2,1.9,1.8,3.1c0.2,0.3,0.1,1.1-0.2,1.3
		c-0.5,0.4-1.2,0.4-1.6-0.3c-0.8-1.3-2-1.7-3.5-1.1c0,0.4,0.1,0.8,0.2,1.2c0.7,3,1.4,6.1,2.1,9.1c0.2,0.7,0.2,1.5,1.4,1.3
		c0.2,0,0.6,0.5,0.8,0.9c0.1,0.2-0.3,0.7-0.5,0.7c-1.9,0.5-3.8,1-5.8,1.4c-0.3,0.1-0.9-0.4-1-0.7c-0.1-0.3,0.3-0.9,0.6-1.1
		c0.6-0.3,0.8-0.6,0.6-1.2C277,276.3,276.2,272.8,275.4,269.2z"/>
	<path class="st5" d="M200.5,319.5c-1-0.4-1.4-1.1-0.8-1.9c1.2-1.6,2.5-3.1,3.8-4.6c0.1-0.2,0.8-0.2,0.9-0.1
		c0.2,0.3,0.4,0.7,0.4,1.1c0,0.2-0.3,0.5-0.6,0.9c3.1,0.8,6.1,1.6,9,2.4c0.1-0.1,0.2-0.3,0.3-0.4c-1.5-2.6-3-5.2-4.6-7.9
		c-0.5,0.6-0.8,0.9-1.1,1.3c-1.4-0.5-1.5-0.7-0.8-1.9c0.7-1.1,1.5-2,2.4-3c0.5-0.6,1-0.3,1.4,0.1c0.5,0.5,0.2,0.7-0.1,1.2
		c-0.2,0.3-0.2,0.9,0,1.2c1.4,2.8,2.9,5.5,4.3,8.3c0.7,1.3,1.4,2.6,2,4c0.2,0.5,0.2,1.1,0.3,1.6c-0.5,0-1.1,0.2-1.6,0
		c-4.4-1-8.8-2-13.2-3.1C201.5,318.3,200.8,318.2,200.5,319.5z"/>
	<path class="st0" d="M402.6,333.1c-1.8-1.8-3.1-3.9-4-6.2c-0.1-0.2,0.1-0.8,0.3-0.8c0.5-0.1,1.2-0.1,1.4,0.1c0.6,0.9,1,0.6,1.7,0.2
		c2.8-1.8,5.7-3.6,8.5-5.4c0.3-0.2,0.5-0.4,0.8-0.6c-0.2-0.3-0.4-0.5-0.4-0.7c0-0.4,0.1-0.9,0.2-1.3c0.4,0.1,1,0,1.2,0.3
		c1.2,1.7,2.3,3.5,3.4,5.3c0.1,0.2-0.1,1-0.3,1.1c-0.4,0.1-1.1,0.1-1.2-0.2c-0.6-0.8-1.1-0.5-1.7-0.1c-2.8,1.8-5.5,3.5-8.3,5.3
		c-0.6,0.4-1,0.7-0.5,1.5C404,332.3,403.4,332.7,402.6,333.1z"/>
	<path class="st4" d="M214.5,303.2c-0.3,0.3-0.6,0.7-0.9,0.8c-0.4,0.1-0.8-0.1-1.1-0.3c-0.2-0.1-0.2-0.7-0.1-0.9
		c1.6-1.6,3.2-3.2,4.9-4.7c0.1-0.1,0.8,0,0.9,0.1c0.2,0.4,0.4,1,0.2,1.2c-0.7,0.7-0.4,1.2,0.2,1.8c2.2,2.3,4.4,4.7,6.6,7
		c0.3,0.3,0.6,0.6,1,0.9c0.3-0.2,0.5-0.5,0.7-0.5c0.5-0.1,1-0.1,1.4,0.1c0.2,0.1,0.2,0.9-0.1,1.1c-1.5,1.5-3,2.9-4.6,4.3
		c-0.2,0.2-1,0.1-1.1,0c-0.1-0.5-0.3-1.1-0.1-1.4c0.4-0.6,0.4-0.9,0-1.4c-2.5-2.6-4.9-5.2-7.4-7.9
		C214.8,303.4,214.7,303.3,214.5,303.2z"/>
	<path class="st2" d="M424.3,393.6c-2.6,0-4.8-2.2-4.7-4.9c0-2.5,2.2-4.6,4.8-4.6c2.6,0,4.7,2.2,4.7,4.8
		C429.1,391.5,427,393.6,424.3,393.6z"/>
	<path class="st2" d="M186.4,392.9c-2.7,0-4.7-2-4.8-4.6c0-2.7,2.1-4.9,4.7-4.9c2.7,0,4.8,2.1,4.8,4.8
		C191.1,390.7,189,392.8,186.4,392.9z"/>
	<path class="st4" d="M260.4,492.1c1.6,0.5,3.2,1,4.7,1.6c0.9,0.4,1.6,1.3,1.3,2.4c-0.3,1.1-1.3,1.6-2.3,1.5
		c-1.6-0.2-3.1-0.4-4.6-0.9c-1.5-0.5-2.2-1.6-2-2.7c0.2-1.1,1.2-1.7,2.9-1.6C260.4,492.3,260.4,492.2,260.4,492.1z"/>
	<path class="st5" d="M393.3,295c-0.5-0.1-1.3-0.3-1.9-0.6c-0.3-0.1-0.5-0.7-0.4-1c0.1-0.2,0.6-0.5,0.9-0.5c1.9,0.1,3.5,1.5,3.8,3.3
		c0.1,0.3,0,0.8-0.2,0.9c-0.2,0.1-0.8,0.1-0.9-0.1C394,296.6,393.7,295.8,393.3,295z"/>
	<path class="st6" d="M212.8,487.6"/>
	<path class="st7" d="M372.8,292.8c-0.1,0-0.1,0.1-0.2,0.1c0-0.1,0-0.2,0-0.3C372.6,292.7,372.7,292.8,372.8,292.8z"/>
	<path class="st7" d="M377.7,302.8c-0.1,0.1-0.2,0.2-0.3,0.3C377.6,303,377.6,302.9,377.7,302.8z"/>
	<path class="st7" d="M192.4,345.4c0-0.1-0.1-0.1-0.1-0.2c0.1,0,0.2,0,0.3,0C192.5,345.2,192.5,345.3,192.4,345.4z"/>
	<polygon class="st7" points="234.6,292.7 234.5,292.7 234.6,292.7 	"/>
	<path class="st8" d="M309.8,435.9c10.7,0,20.6-2.5,29.3-9c7.5-5.6,12.7-12.8,14.7-22c0.4-2,0.9-4,1.6-5.8c0.9-2.1,2.4-3.7,4.7-4.2
		c3.5-0.9,6.9,1.6,7.9,5.4c0.6,2.4-0.1,4.7-0.6,7c-5.6,25.4-25,44.6-50.5,49.1c-20.3,3.6-38.4-1.6-53.8-15.4
		c-11.2-10-17.8-22.6-20.1-37.4c-0.5-3-0.5-6-0.8-9c-0.1-1,0.4-1.4,1.3-1.6c5.7-1.7,11.5-1.3,17.2,0.2c7,1.8,13.2,5.4,18.8,9.9
		c5.5,4.5,11.5,8.3,18.5,10.1c4.8,1.3,9.6,1.5,14.5,1c5.2-0.5,10.2,3.3,10.3,8.1c0.1,2.9-1.3,5-3.6,6.5c-3,1.9-6.3,2.4-9.7,2.6
		c-6.3,0.4-12.4-0.8-18.5-2c-1.3-0.3-2.6-0.4-3.9-0.5c-0.4,0-0.8,0.3-1.1,0.5c0.2,0.4,0.3,0.9,0.6,1.2c2.1,1.7,4.6,2.5,7.2,3.2
		C299.1,435.3,304.4,435.9,309.8,435.9z"/>
	<path class="st9" d="M292.5,352.3c0.1-1.4,0.3-1.7,1.7-1.5c0.9,0.1,1.8,0.5,2.6,0.7c1.3,0.3,2.6,0.5,4,0.6c0.7,0.1,1.5-0.2,2.1,0
		c0.7,0.1,1.4,0.5,2,0.9c1,0.8,1.8,1.8,2.7,2.7c0.6,0.6,1.1,1.2,1.8,1.8c0.3,0.3,0.7,0.5,1.1,0.6c0.9,0.1,1.7,0.1,2.6,0.3
		c2.4,0.4,3.4,1.3,3.9,3.7c0.1,0.5,0.3,1.1,0.6,1.4c0.8,0.7,0.8,1.1,0.1,1.9c-0.7,0.8-1.3,1.6-2,2.5c1.5,0.4,2.8,0.8,4.2-0.1
		c1.5-1,2.8-0.9,3.9,0.6c1.3,1.7,2.9,2,4.9,1.8c1.1-0.1,2.2,0.4,3.3,0.7c1,0.3,1.9,0.9,2.8,1.3c1.1,0.5,1.6,1.6,0.9,2.7
		c-0.8,1.2-1.3,2.2-0.5,3.7c0.5,0.9-0.6,1.4-1.2,1.8c-1.7,1.1-2.5,2.7-2.8,4.5c-0.1,0.9-0.2,1.9-0.3,2.9c-0.1,1-0.1,2-0.2,3
		c-0.3,2.6-1.4,3.8-4.1,4.2c-0.8,0.1-1.6,0.3-2.4,0.4c-2.7,0.6-4.3,2.2-4.6,5c-0.1,1-0.5,1.5-1.5,2c-1.5,0.7-3,1.7-4.3,2.7
		c-0.8,0.6-1.5,1-2.5,1.1c-6.1,0.4-11.9-0.5-17.4-3.4c0.1-0.8,0.1-1.6,0.2-2.4c0.3-2.9,0.6-5.9,1-8.8c0.2-2.2-0.2-3-2.3-3.9
		c-0.7-0.3-1.3-0.5-2-0.8c-1.7-0.7-2.7-1.9-3.3-3.6c-0.7-2.1-1.5-4.2-2.2-6.3c-0.2-0.4-0.5-0.8-0.8-1.1c-0.4-0.4-0.9-0.8-1.3-1.2
		c-1.4-1.4-1.5-1.9-0.8-3.3c-0.3-1-0.8-1.8-0.7-2.4c0.3-1.3,0.8-2.6,1.4-3.8c0.6-1.1,1.5-2.1,2.1-3.2c0.3-0.5,0.3-1.2,0.2-1.7
		c-0.4-1.9-0.4-3.6,1.5-4.8c0.4-0.3,0.7-1,0.9-1.5c0.6-1.6,1.6-2.9,3.3-3.6c0.4-0.2,0.9-0.2,1.3-0.3c0.3,0.9-1.4,1.7,0.1,2.4
		c0.1,0,0.2,0,0.3,0C292.6,352.4,292.6,352.3,292.5,352.3z"/>
	<path class="st10" d="M297.4,334.4c-6,1.5-11.2,4.6-15.7,8.8c-1.5,1.4-2.9,2.9-4.3,4.3c0,0.1,0.1,0.2,0.1,0.4
		c3.1,0.5,6.3,0.9,9.4,1.4c-0.5,0.8-1,1.7-1.6,2.5c-0.2,0.2-0.6,0.3-0.9,0.2c-2.8-0.4-5.5-0.9-8.3-1.3c-0.4-0.1-1.1,0.1-1.3,0.4
		c-4.7,6.6-7.9,13.9-10,21.9c2,0.5,3.8,1,5.7,1.3c3,0.6,6.1,1,9.1,1.5c1.2,0.2,2.9,2,3.1,3.4c-6.3-0.6-12.4-1.7-18.7-3.3
		c-0.5,3-1,6-1.5,9c-0.9-0.2-1.9-0.4-3-0.7c0.5-3.1,1-6,1.5-9.1c-1.8-0.7-3.8-1.4-5.6-2.3c-1.8-0.9-3.5-2-5.3-3.1
		c-0.4,1-0.9,2.1-1.3,3.3c-0.9,3.2-1.8,6.5-2.6,9.7c-0.2,0.8-0.4,1.2-1.2,1.2c-0.7,0-1.3,0.2-2,0.4c2.9-25.3,25.6-53.1,60.7-54.1
		c34.9-1,61.9,26,64.5,57.3c-1-0.3-2-0.6-2.9-1c-0.2-0.1-0.3-0.6-0.3-0.9c-0.7-5.5-2.2-10.9-4.4-16c-0.1-0.2-0.2-0.3-0.3-0.6
		c-3,2.9-6.8,4.4-10.6,5.7c0.4,2.6,0.9,5.1,1.2,7.7c0.3,2.2,0.5,4.5,0.6,6.7c0.1,1.8-1.1,2.8-2.7,2.4c-0.6-5.3-1.2-10.5-1.9-15.9
		c-1.9,0.4-3.4,0.8-5,1.2c-1.1,0.2-2.1,0.4-3.2,0.7c-0.9,0.2-1-0.3-0.7-1c0.2-0.6,0.4-1.2,0.8-1.7c0.2-0.3,0.6-0.5,1-0.6
		c2-0.5,3.9-0.9,6.1-1.4c-0.3-1.1-0.6-2-0.8-3c-2-6.6-4.9-12.8-8.9-18.5c-0.3-0.4-0.9-0.7-1.3-0.7c-4.2,0.5-8.5,1.2-12.7,1.8
		c-0.2,0-0.5,0.1-0.7,0.1c0.8,4,1.7,7.9,2.5,11.9c-1-0.2-1.8-0.4-2.9-0.6c-0.9-3.6-1.9-7.3-2.7-10.7c-2.7,0-5.2-0.1-7.7,0
		c-1.4,0.1-2.4-0.4-3.1-1.6c-0.3-0.5-0.7-0.9-1.1-1.4c3.6-0.1,7.1-0.3,10.8-0.4c-0.1-0.4-0.1-0.7-0.2-1c-1.2-3.8-2.7-7.5-5-10.7
		c-0.9-1.3-2.1-2.6-3.3-3.6c-2.2-1.7-4.6-1.7-6.7,0.1c-1.4,1.2-2.8,2.7-3.7,4.3c-1.6,2.7-2.9,5.6-4.3,8.5c-0.8-0.1-1.7-0.3-2.8-0.5
		c1.4-4.4,3.5-8.6,6.3-12.3c0-0.1,0.1-0.1,0.1-0.2C297.6,334.4,297.5,334.4,297.4,334.4z M271.9,349.8c-1.8-0.5-3.5-1-5.2-1.4
		c-0.4-0.1-1.1,0-1.4,0.3c-5.5,4.9-9.9,10.6-13.3,17.1c-0.3,0.6-0.2,1,0.3,1.4c2.8,2.4,6.1,3.6,9.6,4.8
		C264,364,267.2,356.6,271.9,349.8z M348.9,372c2.3-1.1,4.5-2,6.6-3.1c1.1-0.6,2-1.5,2.8-2.3c0.2-0.2,0.3-1,0.1-1.3
		c-3.3-6.3-7.6-11.8-12.9-16.5c-0.3-0.2-0.7-0.5-1-0.4c-1.8,0.5-3.6,1-5.6,1.6C343.6,356.6,346.7,363.9,348.9,372z M320.5,349.5
		c2.5-0.3,5-0.6,7.4-0.9c1.8-0.2,3.5-0.5,5.5-0.8c-4.3-6-14.6-12.8-20.4-13.5 M327.6,338c3.3,2.5,6.2,5.3,8.8,8.5
		c0.2,0.2,0.6,0.6,0.8,0.5c1.6-0.3,3.1-0.7,4.8-1.1C338.2,342.6,329.5,337.8,327.6,338z M283.5,337.9c-0.1-0.1-0.2-0.2-0.3-0.4
		c-5.1,2-9.9,4.7-14.5,8.3c1.6,0.4,2.9,0.7,4.2,1.1c0.6,0.2,1,0,1.5-0.5c2.8-2.8,5.6-5.5,8.4-8.3C283.1,338,283.3,338,283.5,337.9z"
		/>
	<path class="st11" d="M320.3,432.9c1.3-1.4,2.7-2.7,3.9-4.2c0.7-0.8,1.1-2,1.4-3c0.2-0.8,0.6-1.2,1.2-1.6c2.9-1.8,5.8-3.5,8.5-5.5
		c3.2-2.4,4.9-5.8,5.5-9.8c0.3-2.2,0.9-4.4,2.3-6.2c1.8-2.5,4.4-3.2,6.9-1.8c0.6,0.3,0.8,0.7,0.7,1.3c-1.7,8.9-5.4,16.7-13,22.3
		c-5.2,3.8-10.5,7.1-16.9,8.5C320.5,432.9,320.3,432.9,320.3,432.9z"/>
	<path class="st11" d="M326.5,421.5c-0.8-1.5-1.5-2.8-2.2-4.2c0,0,0.1-0.1,0.2-0.1c2.9-1.4,4-3.9,4.6-6.9c0.7-3.9,4.2-5.7,7.7-3.9
		c0.6,0.3,0.8,0.7,0.8,1.5c-0.2,4.8-2.6,8.2-6.4,10.8C329.6,419.7,328,420.6,326.5,421.5z"/>
	<path class="st12" d="M284.7,384.8c1.1,1.2,1.9,2.3,2.8,3.3c0.2,0.2,0.3,0.6,0.3,0.8c0,3.2,0,6.3,0,9.7c-1-0.8-2-1.4-2.8-2.2
		c-0.2-0.2-0.3-0.6-0.3-1C284.7,392,284.7,388.5,284.7,384.8z"/>
	<path class="st13" d="M322.9,415.3c-1.5-1-2.9-1.9-4.3-2.9c0.8-2.5,4.8-3.9,7.1-2.1c0.3,0.2,0.4,0.8,0.3,1.2
		C325.5,413.3,324.2,414.4,322.9,415.3z"/>
	<path class="st12" d="M326,397.9c0.2,2.4-0.8,3.5-3,3.1C322.9,398.7,323.2,398.3,326,397.9z"/>
	<path class="st14" d="M292.5,352.3c0.1,0,0.1,0.1,0.2,0.1c-0.1,0-0.2,0-0.3,0C292.4,352.4,292.5,352.3,292.5,352.3z"/>
	<path class="st14" d="M297.4,334.4c0.1,0,0.2,0,0.3,0c0,0.1-0.1,0.1-0.1,0.2C297.5,334.5,297.5,334.4,297.4,334.4z"/>
</g>
</svg>
